;TYPE=PLATED
;Layer: PTH_Through_Via
;EasyEDA Pro v2.2.40.8, 2026-02-04 13:14:46
;Gerber Generator version 0.3
M48
METRIC,LZ,0000.00000
;Hole size 1 = 0.30500 METRIC
T01C0.30500
%
G05
G90
T01
X164.03842Y40.63193
X181.61Y43.99631
X164.7952Y45.54419
X168.0464Y40.85153
X160.26003Y55.8292
X172.466Y60.198
X181.0512Y54.102
X178.4745Y56.9976
X204.6224Y27.6352
X178.2572Y80.01
X176.22571Y87.4776
X182.37251Y87.5284
X221.0816Y86.2076
X217.7288Y85.09
X180.2525Y59.7408
X190.1952Y71.7804
X178.054Y87.5284
X214.7824Y81.534
X207.73885Y87.4268
X224.01035Y88.646
X213.4616Y53.6956
X173.1772Y48.05731
X182.5244Y50.68722
X172.1612Y49.9872
X179.4764Y33.3504
X175.26Y67.183
X169.2148Y53.086
X172.1356Y52.2732
X181.0004Y31.1912
X177.95189Y82.29651
X182.5244Y49.784
X225.6536Y79.65435
X195.429Y85.193
X195.1228Y90.8812
X186.4868Y75.7936
X185.0136Y61.6204
X190.246Y70.5104
X178.562Y35.71371
X169.0116Y47.0916
X172.8724Y42.64841
X169.0116Y45.5168
X158.0388Y43.2308
X186.1332Y38.608
X161.96513Y49.6316
X171.2468Y48.0568
X167.32413Y70.358
X175.4632Y80.6196
X220.6244Y68.0212
X218.186Y67.9704
X218.186Y69.2404
X221.5388Y69.2404
X218.186Y70.5612
X222.3516Y70.5612
X221.5388Y68.0212
X218.186Y61.722
X222.3008Y66.802
X218.186Y62.9412
X222.3008Y65.97993
X222.3008Y65.16713
X218.186Y64.2112
X220.9292Y64.1604
X218.186Y65.4304
X220.9292Y63.3476
X218.186Y66.4464
X203.7842Y81.3816
X198.2724Y48.6916
X202.8444Y81.3816
X201.8792Y81.3816
X200.8632Y48.7168
X202.184Y48.7168
X195.6308Y84.3788
X210.9724Y53.2892
X192.37241Y51.3588
X204.6732Y48.8696
X182.5244Y48.8696
X185.2168Y48.1076
X190.246Y73.0758
X182.5752Y59.7408
X209.9564Y48.6664
X204.6732Y51.308
X225.0948Y44.6024
X193.4464Y53.34
X214.0204Y63.246
X220.9292Y60.198
X213.0044Y63.246
X221.7928Y60.198
X229.5144Y72.898
X231.8512Y60.8584
X230.58643Y65.278
X230.5812Y59.8424
X222.7072Y60.198
X229.5144Y70.866
X229.4128Y62.2808
X200.6092Y77.9272
X200.6092Y81.3816
X226.9236Y76.3016
X226.9236Y66.3448
X187.8076Y57.7596
X183.42699Y52.11089
X207.1878Y53.086
X228.5492Y38.9636
X190.246Y69.2912
X184.912Y59.7408
X185.8264Y56.388
X200.8888Y51.1048
X193.2432Y48.6156
X193.2432Y51.1556
X221.0308Y78.70439
X214.7824Y78.24719
X217.8812Y76.8604
X220.6244Y76.8604
X219.00744Y40.8432
X184.93638Y52.1716
X203.4032Y31.5468
X222.3516Y75.2348
X226.2124Y67.4116
X222.3516Y69.2404
X228.1936Y75.2348
X220.1672Y54.8132
X203.4032Y44.5516
X202.0316Y86.23481
X169.0116Y40.8432
X183.8085Y56.35965
X186.8932Y54.0512
X216.662Y39.6748
X218.9988Y39.6748
X205.5368Y26.11541
X171.85589Y71.7296
X171.85589Y68.9864
X226.9236Y58.7248
X172.8216Y44.0436
X171.3992Y33.9852
X173.5836Y34.036
X161.05327Y23.4696
X167.23784Y39.0652
X216.0524Y23.0632
X203.8096Y23.5712
X170.3832Y34.9504
X227.2792Y46.2788
X224.6884Y46.2788
X227.0252Y63.1444
X205.9432Y73.5076
X197.4088Y73.5076
X178.7144Y75.2348
X172.8216Y45.466
X210.2612Y28.6512
X177.2386Y32.4104
X175.9204Y32.4104
X178.6636Y32.5628
X188.1124Y43.9166
X179.1716Y38.608
X175.32315Y42.64841
X180.3908Y32.5628
X180.6956Y34.8488
X183.134Y34.8488
X229.2604Y23.1648
X219.5576Y38.9128
X225.16021Y38.9128
X194.818Y42.6212
X208.23333Y43.43813
X200.0504Y64.6176
X204.47Y64.6176
X171.7548Y25.4
M30