G04 Layer: BottomLayer*
G04 EasyEDA Pro v2.2.40.8, 2026-02-04 13:14:46*
G04 Gerber Generator version 0.3*
G04 Scale: 100 percent, Rotated: No, Reflected: No*
G04 Dimensions in millimeters*
G04 Leading zeros omitted, absolute positions, 4 integers and 5 decimals*
G04 Generated by one-click*
%FSLAX45Y45*%
%MOMM*%
%ADD10C,0.2032*%
%ADD11C,0.254*%
%ADD12O,1.0X1.8*%
%ADD13O,1.0X2.1*%
%ADD14O,1.8X3.99999*%
%ADD15O,3.99999X1.8*%
%ADD16C,0.6136*%
%ADD17C,0.61*%
G75*


G04 Copper Start*
G36*
G01X15478760Y9143746D02*
G01X19476179Y9143746D01*
G01X19464995Y9134614D01*
G01X19456053Y9123278D01*
G01X19449776Y9110275D01*
G01X19446463Y9096222D01*
G01X19446269Y9081785D01*
G01X19449205Y9067648D01*
G01X19455131Y9054482D01*
G01X19463766Y9042910D01*
G01X19463766Y9004594D01*
G01X17754640Y9004594D01*
G01X17742084Y9002941D01*
G01X17730383Y8998094D01*
G01X17720335Y8990384D01*
G01X17699975Y8970025D01*
G01X17692266Y8959977D01*
G01X17687419Y8948276D01*
G01X17685766Y8935720D01*
G01X17685766Y8453120D01*
G01X17687419Y8440564D01*
G01X17692266Y8428863D01*
G01X17699975Y8418815D01*
G01X17723016Y8395775D01*
G01X17733064Y8388065D01*
G01X17744764Y8383218D01*
G01X17757321Y8381565D01*
G01X18666206Y8381565D01*
G01X18666206Y7643316D01*
G01X18651093Y7645630D01*
G01X18635852Y7644421D01*
G01X18621293Y7639754D01*
G01X18608189Y7631877D01*
G01X18597238Y7621208D01*
G01X18589021Y7608315D01*
G01X18583976Y7593883D01*
G01X18582369Y7578678D01*
G01X18584288Y7563510D01*
G01X18589629Y7549185D01*
G01X18598109Y7536463D01*
G01X18609278Y7526021D01*
G01X18622540Y7518415D01*
G01X18637192Y7514049D01*
G01X18652455Y7513153D01*
G01X18667517Y7515778D01*
G01X18681578Y7521782D01*
G01X18693890Y7530846D01*
G01X18694400Y7530846D01*
G01X18706956Y7532499D01*
G01X18718657Y7537346D01*
G01X18728705Y7545055D01*
G01X18749025Y7565375D01*
G01X18756734Y7575423D01*
G01X18761581Y7587124D01*
G01X18763234Y7599680D01*
G01X18763234Y8407400D01*
G01X18761581Y8419956D01*
G01X18756734Y8431657D01*
G01X18749025Y8441705D01*
G01X18726345Y8464384D01*
G01X18716298Y8472094D01*
G01X18704597Y8476940D01*
G01X18692041Y8478593D01*
G01X17782794Y8478593D01*
G01X17782794Y8690498D01*
G01X17797102Y8687047D01*
G01X17811818Y8686837D01*
G01X17826219Y8689879D01*
G01X17839593Y8696021D01*
G01X17851284Y8704963D01*
G01X17860714Y8716263D01*
G01X17867420Y8729365D01*
G01X17871070Y8743623D01*
G01X17871486Y8758335D01*
G01X17868646Y8772776D01*
G01X17862691Y8786236D01*
G01X17853914Y8798050D01*
G01X17853914Y8871966D01*
G01X21429726Y8871966D01*
G01X21429726Y8314808D01*
G01X21423464Y8322505D01*
G01X21403305Y8342664D01*
G01X21393257Y8350374D01*
G01X21381557Y8355221D01*
G01X21369000Y8356874D01*
G01X19972274Y8356874D01*
G01X19972274Y8493760D01*
G01X19970621Y8506316D01*
G01X19965774Y8518017D01*
G01X19958065Y8528065D01*
G01X19932525Y8553604D01*
G01X19922477Y8561314D01*
G01X19910777Y8566161D01*
G01X19898220Y8567814D01*
G01X19588110Y8567814D01*
G01X19578938Y8574967D01*
G01X20157950Y8574967D01*
G01X20170321Y8565868D01*
G01X20184454Y8559860D01*
G01X20199589Y8557263D01*
G01X20214916Y8558217D01*
G01X20229613Y8562671D01*
G01X20242891Y8570386D01*
G01X20254038Y8580949D01*
G01X20262457Y8593792D01*
G01X20267696Y8608227D01*
G01X20269474Y8623481D01*
G01X20267696Y8638734D01*
G01X20262457Y8653169D01*
G01X20254038Y8666013D01*
G01X20242891Y8676575D01*
G01X20229613Y8684290D01*
G01X20214916Y8688744D01*
G01X20199589Y8689698D01*
G01X20184454Y8687102D01*
G01X20170321Y8681093D01*
G01X20157950Y8671995D01*
G01X19459121Y8671995D01*
G01X19446564Y8670342D01*
G01X19434864Y8665495D01*
G01X19424816Y8657785D01*
G01X19406855Y8639825D01*
G01X19399146Y8629777D01*
G01X19394299Y8618076D01*
G01X19392646Y8605520D01*
G01X19392646Y8321040D01*
G01X19394299Y8308484D01*
G01X19399146Y8296783D01*
G01X19406855Y8286735D01*
G01X19424455Y8269136D01*
G01X19434502Y8261426D01*
G01X19446203Y8256580D01*
G01X19458759Y8254927D01*
G01X19682206Y8254927D01*
G01X19682206Y7721600D01*
G01X19683859Y7709044D01*
G01X19688706Y7697343D01*
G01X19696415Y7687295D01*
G01X19711655Y7672055D01*
G01X19721703Y7664346D01*
G01X19733404Y7659499D01*
G01X19745960Y7657846D01*
G01X20066225Y7657846D01*
G01X20073366Y7650705D01*
G01X20073366Y5296154D01*
G01X19745960Y5296154D01*
G01X19733404Y5294501D01*
G01X19721703Y5289654D01*
G01X19711655Y5281945D01*
G01X19695620Y5265909D01*
G01X19687910Y5255862D01*
G01X19683064Y5244161D01*
G01X19681411Y5231605D01*
G01X19681411Y4481355D01*
G01X19683064Y4468799D01*
G01X19687910Y4457098D01*
G01X19695620Y4447051D01*
G01X19699957Y4442714D01*
G01X19285755Y4442714D01*
G01X19285755Y4807613D01*
G01X19300000Y4799866D01*
G01X19315699Y4795809D01*
G01X19331914Y4795682D01*
G01X19347674Y4799495D01*
G01X19362039Y4807018D01*
G01X19374148Y4817802D01*
G01X19383277Y4831203D01*
G01X19388882Y4846418D01*
G01X19390627Y4862539D01*
G01X19388407Y4878601D01*
G01X19382355Y4893645D01*
G01X19372834Y4906770D01*
G01X19372834Y5070350D01*
G01X19382059Y5082945D01*
G01X19388084Y5097347D01*
G01X19390575Y5112758D01*
G01X19389394Y5128325D01*
G01X19384606Y5143184D01*
G01X19376478Y5156513D01*
G01X19365458Y5167572D01*
G01X19352159Y5175748D01*
G01X19337317Y5180588D01*
G01X19321754Y5181824D01*
G01X19306334Y5179388D01*
G01X19291910Y5173415D01*
G01X19281668Y5185113D01*
G01X19268983Y5194104D01*
G01X19254553Y5199895D01*
G01X19239171Y5202166D01*
G01X19223683Y5200793D01*
G01X19208941Y5195852D01*
G01X19195755Y5187614D01*
G01X19184849Y5176532D01*
G01X19176823Y5163215D01*
G01X19172119Y5148395D01*
G01X19170995Y5132888D01*
G01X19173512Y5117544D01*
G01X19179534Y5103209D01*
G01X19188727Y5090670D01*
G01X19188727Y4420319D01*
G01X19190380Y4407762D01*
G01X19195227Y4396062D01*
G01X19202937Y4386014D01*
G01X19229055Y4359895D01*
G01X19239103Y4352186D01*
G01X19250804Y4347339D01*
G01X19263360Y4345686D01*
G01X20436840Y4345686D01*
G01X20449396Y4347339D01*
G01X20461097Y4352186D01*
G01X20471145Y4359895D01*
G01X20496545Y4385295D01*
G01X20504254Y4395343D01*
G01X20509101Y4407044D01*
G01X20510754Y4419600D01*
G01X20510754Y4836850D01*
G01X20519894Y4846544D01*
G01X20526913Y4857869D01*
G01X20531525Y4870369D01*
G01X20533546Y4883539D01*
G01X20532893Y4896846D01*
G01X20865866Y4896846D01*
G01X20865866Y4828520D01*
G01X20867519Y4815964D01*
G01X20872365Y4804263D01*
G01X20880075Y4794216D01*
G01X20905436Y4768855D01*
G01X20915483Y4761145D01*
G01X20927184Y4756299D01*
G01X20939740Y4754646D01*
G01X22557486Y4754646D01*
G01X22557486Y4505989D01*
G01X22546190Y4515466D01*
G01X22533080Y4522213D01*
G01X22518803Y4525895D01*
G01X22504065Y4526333D01*
G01X22489595Y4523502D01*
G01X22476107Y4517545D01*
G01X22464270Y4508754D01*
G01X21793200Y4508754D01*
G01X21780644Y4507101D01*
G01X21768943Y4502254D01*
G01X21758895Y4494545D01*
G01X21738575Y4474225D01*
G01X21730866Y4464177D01*
G01X21726019Y4452476D01*
G01X21724366Y4439920D01*
G01X21724366Y2687095D01*
G01X21361625Y2324354D01*
G01X17086834Y2324354D01*
G01X17086834Y2521555D01*
G01X17506023Y2521555D01*
G01X17506023Y2441555D01*
G01X17507898Y2423713D01*
G01X17513442Y2406651D01*
G01X17522412Y2391115D01*
G01X17534416Y2377783D01*
G01X17548930Y2367238D01*
G01X17565319Y2359941D01*
G01X17582867Y2356211D01*
G01X17600807Y2356211D01*
G01X17618355Y2359941D01*
G01X17634744Y2367238D01*
G01X17649258Y2377783D01*
G01X17661262Y2391115D01*
G01X17670232Y2406651D01*
G01X17675775Y2423713D01*
G01X17677651Y2441555D01*
G01X17677651Y2521555D01*
G01X18370029Y2521555D01*
G01X18370029Y2441555D01*
G01X18371905Y2423713D01*
G01X18377448Y2406651D01*
G01X18386418Y2391115D01*
G01X18398422Y2377783D01*
G01X18412936Y2367238D01*
G01X18429325Y2359941D01*
G01X18446873Y2356211D01*
G01X18464813Y2356211D01*
G01X18482361Y2359941D01*
G01X18498750Y2367238D01*
G01X18513264Y2377783D01*
G01X18525268Y2391115D01*
G01X18534238Y2406651D01*
G01X18539782Y2423713D01*
G01X18541657Y2441555D01*
G01X18541657Y2521555D01*
G01X18539782Y2539396D01*
G01X18534238Y2556458D01*
G01X18525268Y2571995D01*
G01X18513264Y2585327D01*
G01X18498750Y2595872D01*
G01X18482361Y2603168D01*
G01X18464813Y2606898D01*
G01X18446873Y2606898D01*
G01X18429325Y2603168D01*
G01X18412936Y2595872D01*
G01X18398422Y2585327D01*
G01X18386418Y2571995D01*
G01X18377448Y2556458D01*
G01X18371905Y2539396D01*
G01X18370029Y2521555D01*
G01X18370029Y2521555D01*
G01X17677651Y2521555D01*
G01X17675775Y2539396D01*
G01X17670232Y2556458D01*
G01X17661262Y2571995D01*
G01X17649258Y2585327D01*
G01X17634744Y2595872D01*
G01X17618355Y2603168D01*
G01X17600807Y2606898D01*
G01X17582867Y2606898D01*
G01X17565319Y2603168D01*
G01X17548930Y2595872D01*
G01X17534416Y2585327D01*
G01X17522412Y2571995D01*
G01X17513442Y2556458D01*
G01X17507898Y2539396D01*
G01X17506023Y2521555D01*
G01X17506023Y2521555D01*
G01X17086834Y2521555D01*
G01X17086834Y2951540D01*
G01X17506023Y2951540D01*
G01X17506023Y2841540D01*
G01X17507782Y2824255D01*
G01X17512986Y2807678D01*
G01X17521423Y2792489D01*
G01X17532747Y2779311D01*
G01X17546493Y2768684D01*
G01X17562097Y2761044D01*
G01X17578921Y2756704D01*
G01X17596274Y2755841D01*
G01X17613445Y2758491D01*
G01X17629731Y2764546D01*
G01X17644463Y2773757D01*
G01X17657038Y2785747D01*
G01X17666940Y2800024D01*
G01X17673763Y2816002D01*
G01X17682707Y2802456D01*
G01X17694594Y2791403D01*
G01X17708754Y2783466D01*
G01X17724387Y2779094D01*
G01X17740610Y2778534D01*
G01X17756506Y2781817D01*
G01X17771180Y2788759D01*
G01X17783802Y2798966D01*
G01X17793659Y2811863D01*
G01X17800195Y2826721D01*
G01X17803041Y2842702D01*
G01X17803041Y2842702D01*
G01X17802036Y2858903D01*
G01X17797237Y2874410D01*
G01X17788915Y2888347D01*
G01X17777539Y2899927D01*
G01X17763753Y2908496D01*
G01X17748334Y2913570D01*
G01X17732153Y2914864D01*
G01X17716124Y2912303D01*
G01X17701152Y2906033D01*
G01X17688081Y2896407D01*
G01X17677651Y2883970D01*
G01X17677651Y2951540D01*
G01X17675775Y2969381D01*
G01X17670232Y2986443D01*
G01X17661262Y3001980D01*
G01X17649258Y3015312D01*
G01X17634744Y3025857D01*
G01X17618355Y3033154D01*
G01X17600807Y3036883D01*
G01X17582867Y3036883D01*
G01X17565319Y3033154D01*
G01X17548930Y3025857D01*
G01X17534416Y3015312D01*
G01X17522412Y3001980D01*
G01X17513442Y2986443D01*
G01X17507898Y2969381D01*
G01X17506023Y2951540D01*
G01X17086834Y2951540D01*
G01X17086834Y3358778D01*
G01X17096943Y3348017D01*
G01X17109182Y3339760D01*
G01X17122945Y3334415D01*
G01X17137549Y3332248D01*
G01X17152271Y3333366D01*
G01X17166380Y3337714D01*
G01X17179178Y3345075D01*
G01X17190030Y3355086D01*
G01X17313150Y3355086D01*
G01X17325521Y3345988D01*
G01X17339654Y3339979D01*
G01X17354789Y3337382D01*
G01X17370116Y3338336D01*
G01X17384813Y3342790D01*
G01X17398091Y3350506D01*
G01X17409238Y3361068D01*
G01X17417657Y3373911D01*
G01X17422896Y3388347D01*
G01X17424674Y3403600D01*
G01X17422896Y3418853D01*
G01X17417657Y3433289D01*
G01X17409238Y3446132D01*
G01X17398091Y3456694D01*
G01X17384813Y3464410D01*
G01X17370116Y3468864D01*
G01X17354789Y3469818D01*
G01X17339654Y3467221D01*
G01X17325521Y3461212D01*
G01X17313150Y3452114D01*
G01X17178974Y3452114D01*
G01X17166182Y3459412D01*
G01X17152093Y3463707D01*
G01X17137405Y3464786D01*
G01X17122840Y3462597D01*
G01X17109118Y3457246D01*
G01X17096915Y3448999D01*
G01X17086834Y3438262D01*
G01X17086834Y3449830D01*
G01X17095932Y3462201D01*
G01X17101941Y3476334D01*
G01X17104538Y3491469D01*
G01X17103584Y3506796D01*
G01X17099130Y3521493D01*
G01X17091414Y3534771D01*
G01X17080852Y3545918D01*
G01X17068009Y3554337D01*
G01X17053573Y3559576D01*
G01X17038320Y3561354D01*
G01X17023067Y3559576D01*
G01X17008631Y3554337D01*
G01X16995788Y3545918D01*
G01X16985226Y3534771D01*
G01X16977510Y3521493D01*
G01X16973056Y3506796D01*
G01X16972102Y3491469D01*
G01X16974699Y3476334D01*
G01X16980708Y3462201D01*
G01X16989806Y3449830D01*
G01X16989806Y2301240D01*
G01X16991459Y2288684D01*
G01X16996306Y2276983D01*
G01X17004015Y2266935D01*
G01X17029415Y2241535D01*
G01X17039463Y2233826D01*
G01X17051164Y2228979D01*
G01X17063720Y2227326D01*
G01X21381720Y2227326D01*
G01X21394276Y2228979D01*
G01X21405977Y2233826D01*
G01X21416025Y2241535D01*
G01X21807185Y2632695D01*
G01X21814894Y2642743D01*
G01X21819741Y2654444D01*
G01X21821394Y2667000D01*
G01X21821394Y4411726D01*
G01X22464270Y4411726D01*
G01X22476107Y4402935D01*
G01X22489595Y4396978D01*
G01X22504065Y4394147D01*
G01X22518803Y4394585D01*
G01X22533080Y4398267D01*
G01X22546190Y4405014D01*
G01X22557486Y4414491D01*
G01X22557486Y4132834D01*
G01X21945954Y4132834D01*
G01X21933582Y4141932D01*
G01X21919450Y4147941D01*
G01X21904314Y4150538D01*
G01X21888987Y4149584D01*
G01X21874291Y4145130D01*
G01X21861013Y4137414D01*
G01X21849866Y4126852D01*
G01X21841447Y4114009D01*
G01X21836208Y4099573D01*
G01X21834430Y4084320D01*
G01X21836208Y4069067D01*
G01X21841447Y4054631D01*
G01X21849866Y4041788D01*
G01X21861013Y4031226D01*
G01X21874291Y4023510D01*
G01X21888987Y4019056D01*
G01X21904314Y4018102D01*
G01X21919450Y4020699D01*
G01X21933582Y4026708D01*
G01X21945954Y4035806D01*
G01X22580600Y4035806D01*
G01X22593156Y4037459D01*
G01X22604857Y4042306D01*
G01X22614905Y4050015D01*
G01X22640305Y4075415D01*
G01X22648014Y4085463D01*
G01X22652861Y4097164D01*
G01X22654514Y4109720D01*
G01X22654514Y4785360D01*
G01X22652861Y4797916D01*
G01X22648014Y4809617D01*
G01X22640305Y4819665D01*
G01X22622505Y4837464D01*
G01X22612457Y4845174D01*
G01X22600757Y4850021D01*
G01X22588200Y4851674D01*
G01X21060243Y4851674D01*
G01X21061945Y4867754D01*
G01X21059704Y4883769D01*
G01X21053654Y4898764D01*
G01X21044154Y4911850D01*
G01X21044154Y5095240D01*
G01X21042680Y5107109D01*
G01X21038346Y5118257D01*
G01X21031417Y5128006D01*
G01X22799265Y5128006D01*
G01X22806406Y5120865D01*
G01X22806406Y3941570D01*
G01X22797308Y3929199D01*
G01X22791299Y3915066D01*
G01X22788702Y3899931D01*
G01X22789656Y3884604D01*
G01X22794110Y3869907D01*
G01X22801826Y3856629D01*
G01X22812388Y3845482D01*
G01X22825231Y3837063D01*
G01X22839667Y3831824D01*
G01X22854920Y3830046D01*
G01X22870173Y3831824D01*
G01X22884609Y3837063D01*
G01X22897452Y3845482D01*
G01X22908014Y3856629D01*
G01X22915730Y3869907D01*
G01X22920184Y3884604D01*
G01X22921138Y3899931D01*
G01X22918541Y3915066D01*
G01X22912532Y3929199D01*
G01X22903434Y3941570D01*
G01X22903434Y5140960D01*
G01X22901781Y5153516D01*
G01X22896934Y5165217D01*
G01X22889225Y5175265D01*
G01X22853665Y5210825D01*
G01X22843617Y5218534D01*
G01X22831916Y5223381D01*
G01X22819360Y5225034D01*
G01X22401911Y5225034D01*
G01X22411231Y5229684D01*
G01X22419344Y5236215D01*
G01X22439464Y5256335D01*
G01X22447174Y5266382D01*
G01X22452020Y5278083D01*
G01X22453673Y5290639D01*
G01X22453673Y6265926D01*
G01X22657310Y6265926D01*
G01X22669681Y6256828D01*
G01X22683814Y6250819D01*
G01X22698949Y6248222D01*
G01X22714276Y6249176D01*
G01X22728973Y6253630D01*
G01X22742251Y6261346D01*
G01X22753398Y6271908D01*
G01X22761817Y6284751D01*
G01X22767056Y6299187D01*
G01X22768834Y6314440D01*
G01X22767056Y6329693D01*
G01X22761817Y6344129D01*
G01X22753398Y6356972D01*
G01X22742251Y6367534D01*
G01X22728973Y6375250D01*
G01X22714276Y6379704D01*
G01X22698949Y6380658D01*
G01X22683814Y6378061D01*
G01X22669681Y6372052D01*
G01X22657310Y6362954D01*
G01X22423120Y6362954D01*
G01X22410564Y6361301D01*
G01X22398863Y6356454D01*
G01X22388815Y6348745D01*
G01X22370855Y6330784D01*
G01X22363145Y6320736D01*
G01X22358298Y6309036D01*
G01X22356645Y6296479D01*
G01X22356645Y5319034D01*
G01X21162813Y5319034D01*
G01X21163486Y5331917D01*
G01X21161653Y5344686D01*
G01X21157381Y5356859D01*
G01X21150834Y5367974D01*
G01X21150834Y6320239D01*
G01X21234269Y6320239D01*
G01X21236970Y6305388D01*
G01X21242959Y6291532D01*
G01X21251926Y6279390D01*
G01X21251926Y5953760D01*
G01X21253579Y5941204D01*
G01X21258426Y5929503D01*
G01X21266135Y5919455D01*
G01X21289503Y5896088D01*
G01X21299551Y5888378D01*
G01X21311251Y5883531D01*
G01X21323808Y5881878D01*
G01X22155912Y5881878D01*
G01X22155912Y5881878D01*
G01X22168469Y5883531D01*
G01X22180169Y5888378D01*
G01X22190217Y5896088D01*
G01X22213116Y5918987D01*
G01X22220826Y5929035D01*
G01X22225673Y5940735D01*
G01X22227326Y5953292D01*
G01X22227326Y5974093D01*
G01X22236046Y5985519D01*
G01X22242099Y5998555D01*
G01X22245201Y6012589D01*
G01X22245206Y6026962D01*
G01X22242115Y6040999D01*
G01X22236071Y6054039D01*
G01X22227360Y6065471D01*
G01X22216390Y6074758D01*
G01X22203677Y6081463D01*
G01X22189817Y6085271D01*
G01X22175463Y6086004D01*
G01X22161288Y6083627D01*
G01X22147958Y6078251D01*
G01X22136100Y6070129D01*
G01X22123136Y6078830D01*
G01X22108498Y6084258D01*
G01X22092996Y6086114D01*
G01X22077490Y6084294D01*
G01X22062839Y6078899D01*
G01X22049856Y6070229D01*
G01X22039259Y6058763D01*
G01X22031637Y6045137D01*
G01X22027412Y6030107D01*
G01X22026818Y6014506D01*
G01X21450554Y6014506D01*
G01X21450554Y6187440D01*
G01X21505926Y6187440D01*
G01X21507579Y6174884D01*
G01X21512426Y6163183D01*
G01X21520135Y6153135D01*
G01X21535375Y6137895D01*
G01X21545423Y6130186D01*
G01X21557124Y6125339D01*
G01X21569680Y6123686D01*
G01X21773390Y6123686D01*
G01X21786461Y6114195D01*
G01X21801439Y6108145D01*
G01X21817435Y6105896D01*
G01X21833500Y6107582D01*
G01X21848681Y6113101D01*
G01X21862078Y6122128D01*
G01X21872894Y6134125D01*
G01X21880489Y6148382D01*
G01X21883536Y6145335D01*
G01X21893584Y6137625D01*
G01X21905284Y6132778D01*
G01X21917841Y6131125D01*
G01X22217199Y6131125D01*
G01X22229756Y6132778D01*
G01X22241456Y6137625D01*
G01X22251504Y6145335D01*
G01X22264385Y6158215D01*
G01X22272094Y6168263D01*
G01X22276941Y6179964D01*
G01X22278594Y6192520D01*
G01X22278594Y6471503D01*
G01X22287084Y6482828D01*
G01X22292976Y6495698D01*
G01X22296003Y6509525D01*
G01X22296027Y6523680D01*
G01X22293046Y6537517D01*
G01X22287197Y6550406D01*
G01X22407880Y6550406D01*
G01X22420436Y6552059D01*
G01X22432137Y6556906D01*
G01X22442185Y6564615D01*
G01X22470305Y6592736D01*
G01X22478015Y6602784D01*
G01X22482862Y6614484D01*
G01X22484515Y6627041D01*
G01X22484515Y6768919D01*
G01X22482862Y6781476D01*
G01X22478015Y6793176D01*
G01X22470305Y6803224D01*
G01X22452345Y6821185D01*
G01X22442297Y6828894D01*
G01X22430596Y6833741D01*
G01X22418040Y6835394D01*
G01X22283674Y6835394D01*
G01X22283674Y6878830D01*
G01X22292471Y6890679D01*
G01X22298430Y6904180D01*
G01X22301256Y6918664D01*
G01X22300808Y6933415D01*
G01X22297109Y6947701D01*
G01X22290342Y6960816D01*
G01X22280843Y6972109D01*
G01X22269081Y6981022D01*
G01X22255639Y6987113D01*
G01X22241183Y6990080D01*
G01X22256595Y6993366D01*
G01X22270797Y7000195D01*
G01X22282986Y7010183D01*
G01X22292474Y7022764D01*
G01X22298726Y7037229D01*
G01X22301389Y7052761D01*
G01X22300312Y7068483D01*
G01X22295555Y7083506D01*
G01X22287388Y7096983D01*
G01X22276272Y7108153D01*
G01X22262834Y7116384D01*
G01X22247833Y7121212D01*
G01X22232117Y7122364D01*
G01X22216573Y7119776D01*
G01X22202078Y7113593D01*
G01X22189451Y7104164D01*
G01X21864309Y7104164D01*
G01X21851682Y7113593D01*
G01X21837187Y7119776D01*
G01X21821643Y7122364D01*
G01X21805927Y7121212D01*
G01X21790926Y7116384D01*
G01X21777488Y7108153D01*
G01X21766372Y7096983D01*
G01X21758205Y7083506D01*
G01X21753448Y7068483D01*
G01X21752371Y7052761D01*
G01X21755034Y7037229D01*
G01X21761286Y7022764D01*
G01X21770774Y7010183D01*
G01X21782963Y7000195D01*
G01X21797165Y6993366D01*
G01X21812577Y6990080D01*
G01X21797689Y6986971D01*
G01X21783901Y6980551D01*
G01X21771938Y6971159D01*
G01X21762430Y6959289D01*
G01X21755876Y6945564D01*
G01X21752622Y6930707D01*
G01X21752838Y6915500D01*
G01X21756514Y6900741D01*
G01X21763455Y6887208D01*
G01X21773297Y6875613D01*
G01X21785522Y6866565D01*
G01X21799487Y6860540D01*
G01X21785054Y6854244D01*
G01X21772513Y6844722D01*
G01X21762570Y6832512D01*
G01X21755787Y6818302D01*
G01X21752545Y6802893D01*
G01X21753027Y6787154D01*
G01X21567160Y6787154D01*
G01X21554603Y6785501D01*
G01X21542903Y6780654D01*
G01X21532855Y6772944D01*
G01X21520135Y6760225D01*
G01X21512426Y6750177D01*
G01X21507579Y6738476D01*
G01X21505926Y6725920D01*
G01X21505926Y6187440D01*
G01X21505926Y6187440D01*
G01X21450554Y6187440D01*
G01X21450554Y6279390D01*
G01X21459521Y6291532D01*
G01X21465510Y6305388D01*
G01X21468211Y6320239D01*
G01X21467483Y6335316D01*
G01X21463364Y6349838D01*
G01X21456068Y6363052D01*
G01X21445973Y6374274D01*
G01X21433601Y6382922D01*
G01X21419594Y6388548D01*
G01X21404678Y6390862D01*
G01X21389625Y6389742D01*
G01X21375215Y6385246D01*
G01X21362195Y6377609D01*
G01X21351240Y6367225D01*
G01X21340285Y6377609D01*
G01X21327265Y6385246D01*
G01X21312855Y6389742D01*
G01X21297802Y6390862D01*
G01X21282886Y6388548D01*
G01X21268879Y6382922D01*
G01X21256507Y6374274D01*
G01X21246412Y6363052D01*
G01X21239116Y6349838D01*
G01X21234997Y6335316D01*
G01X21234269Y6320239D01*
G01X21150834Y6320239D01*
G01X21150834Y7523480D01*
G01X22168846Y7523480D01*
G01X22170624Y7508227D01*
G01X22175863Y7493791D01*
G01X22184282Y7480948D01*
G01X22195429Y7470386D01*
G01X22208707Y7462670D01*
G01X22223404Y7458216D01*
G01X22238731Y7457262D01*
G01X22253866Y7459859D01*
G01X22267999Y7465868D01*
G01X22280370Y7474966D01*
G01X22570665Y7474966D01*
G01X22572726Y7472905D01*
G01X22572726Y6786370D01*
G01X22572726Y6786370D01*
G01X22563340Y6773489D01*
G01X22557298Y6758740D01*
G01X22554951Y6742975D01*
G01X22556432Y6727106D01*
G01X22561658Y6712048D01*
G01X22570325Y6698672D01*
G01X22581933Y6687751D01*
G01X22595812Y6679915D01*
G01X22611160Y6675617D01*
G01X22627090Y6675104D01*
G01X22642682Y6678408D01*
G01X22634374Y6666653D01*
G01X22628797Y6653382D01*
G01X22626216Y6639221D01*
G01X22626751Y6624836D01*
G01X22630378Y6610905D01*
G01X22636925Y6598086D01*
G01X22646085Y6586981D01*
G01X22657425Y6578114D01*
G01X22670411Y6571904D01*
G01X22684432Y6568642D01*
G01X22698826Y6568482D01*
G01X22712915Y6571432D01*
G01X22726036Y6577353D01*
G01X22737570Y6585966D01*
G01X22809263Y6585966D01*
G01X22809263Y5920994D01*
G01X22737570Y5920994D01*
G01X22725199Y5930092D01*
G01X22711066Y5936101D01*
G01X22695931Y5938698D01*
G01X22680604Y5937744D01*
G01X22665907Y5933290D01*
G01X22652629Y5925574D01*
G01X22641482Y5915012D01*
G01X22633063Y5902169D01*
G01X22627824Y5887733D01*
G01X22626046Y5872480D01*
G01X22627824Y5857227D01*
G01X22633063Y5842791D01*
G01X22641482Y5829948D01*
G01X22652629Y5819386D01*
G01X22665907Y5811670D01*
G01X22680604Y5807216D01*
G01X22695931Y5806262D01*
G01X22711066Y5808859D01*
G01X22725199Y5814868D01*
G01X22737570Y5823966D01*
G01X22839680Y5823966D01*
G01X22852236Y5825619D01*
G01X22863937Y5830466D01*
G01X22873985Y5838175D01*
G01X22892081Y5856272D01*
G01X22899791Y5866320D01*
G01X22904638Y5878020D01*
G01X22906291Y5890577D01*
G01X22906291Y5987811D01*
G01X22991902Y5987811D01*
G01X22992856Y5972484D01*
G01X22997310Y5957787D01*
G01X23005026Y5944509D01*
G01X23015588Y5933362D01*
G01X23028431Y5924943D01*
G01X23042867Y5919704D01*
G01X23058120Y5917926D01*
G01X23073373Y5919704D01*
G01X23087809Y5924943D01*
G01X23100652Y5933362D01*
G01X23111214Y5944509D01*
G01X23118930Y5957787D01*
G01X23123384Y5972484D01*
G01X23124338Y5987811D01*
G01X23121741Y6002946D01*
G01X23115732Y6017079D01*
G01X23106634Y6029450D01*
G01X23106634Y6053860D01*
G01X23107157Y6060963D01*
G01X23107157Y6482590D01*
G01X23116255Y6494961D01*
G01X23122264Y6509094D01*
G01X23124861Y6524229D01*
G01X23123906Y6539556D01*
G01X23119452Y6554253D01*
G01X23111737Y6567531D01*
G01X23101175Y6578678D01*
G01X23088332Y6587097D01*
G01X23073896Y6592336D01*
G01X23058643Y6594114D01*
G01X23043389Y6592336D01*
G01X23028954Y6587097D01*
G01X23016111Y6578678D01*
G01X23005548Y6567531D01*
G01X22997833Y6554253D01*
G01X22993379Y6539556D01*
G01X22992425Y6524229D01*
G01X22995022Y6509094D01*
G01X23001030Y6494961D01*
G01X23010129Y6482590D01*
G01X23010129Y6067543D01*
G01X23009606Y6060440D01*
G01X23009606Y6060440D01*
G01X23009606Y6029450D01*
G01X23000508Y6017079D01*
G01X22994499Y6002946D01*
G01X22991902Y5987811D01*
G01X22906291Y5987811D01*
G01X22906291Y6171748D01*
G01X22920667Y6165051D01*
G01X22936222Y6161959D01*
G01X22952066Y6162649D01*
G01X22967294Y6167081D01*
G01X22981034Y6175003D01*
G01X22992499Y6185960D01*
G01X23001036Y6199326D01*
G01X23006154Y6214337D01*
G01X23007562Y6230133D01*
G01X23005179Y6245813D01*
G01X22999141Y6260478D01*
G01X22989794Y6273290D01*
G01X22989794Y7032503D01*
G01X23001289Y7042867D01*
G01X23010069Y7055613D01*
G01X23015655Y7070047D01*
G01X23017743Y7085383D01*
G01X23016219Y7100786D01*
G01X23011166Y7115415D01*
G01X23002860Y7128475D01*
G01X22991753Y7139254D01*
G01X22978449Y7147164D01*
G01X22963675Y7151776D01*
G01X22948234Y7152837D01*
G01X22932967Y7150289D01*
G01X22918707Y7144272D01*
G01X22906230Y7135114D01*
G01X22867874Y7135114D01*
G01X22867874Y7297308D01*
G01X22885552Y7297308D01*
G01X22885587Y7281997D01*
G01X22889131Y7267102D01*
G01X22895998Y7253417D01*
G01X22905819Y7241672D01*
G01X22918073Y7232492D01*
G01X22932105Y7226367D01*
G01X22947168Y7223624D01*
G01X22962459Y7224408D01*
G01X22977162Y7228678D01*
G01X22990494Y7236206D01*
G01X23124385Y7236206D01*
G01X23136606Y7223985D01*
G01X23136606Y6131050D01*
G01X23127508Y6118679D01*
G01X23121499Y6104546D01*
G01X23118902Y6089411D01*
G01X23119856Y6074084D01*
G01X23124310Y6059387D01*
G01X23132026Y6046109D01*
G01X23142588Y6034962D01*
G01X23155431Y6026543D01*
G01X23169867Y6021304D01*
G01X23185120Y6019526D01*
G01X23185120Y6019526D01*
G01X23200373Y6021304D01*
G01X23214809Y6026543D01*
G01X23227652Y6034962D01*
G01X23238214Y6046109D01*
G01X23245930Y6059387D01*
G01X23250384Y6074084D01*
G01X23251338Y6089411D01*
G01X23248741Y6104546D01*
G01X23242732Y6118679D01*
G01X23233634Y6131050D01*
G01X23233634Y7244080D01*
G01X23231981Y7256636D01*
G01X23227134Y7268337D01*
G01X23219425Y7278385D01*
G01X23178785Y7319025D01*
G01X23168737Y7326734D01*
G01X23157036Y7331581D01*
G01X23144480Y7333234D01*
G01X23001550Y7333234D01*
G01X22990254Y7343569D01*
G01X22976888Y7351037D01*
G01X22962166Y7355241D01*
G01X22946871Y7355957D01*
G01X22931821Y7353145D01*
G01X22917816Y7346958D01*
G01X22905604Y7337723D01*
G01X22895835Y7325934D01*
G01X22889030Y7312218D01*
G01X22885552Y7297308D01*
G01X22867874Y7297308D01*
G01X22867874Y7478270D01*
G01X22876972Y7490641D01*
G01X22882981Y7504774D01*
G01X22885578Y7519909D01*
G01X22884624Y7535236D01*
G01X22880170Y7549933D01*
G01X22872454Y7563211D01*
G01X22861892Y7574358D01*
G01X22849049Y7582777D01*
G01X22834613Y7588016D01*
G01X22819360Y7589794D01*
G01X22804107Y7588016D01*
G01X22789671Y7582777D01*
G01X22776828Y7574358D01*
G01X22766266Y7563211D01*
G01X22758550Y7549933D01*
G01X22754096Y7535236D01*
G01X22753142Y7519909D01*
G01X22755739Y7504774D01*
G01X22761748Y7490641D01*
G01X22770846Y7478270D01*
G01X22770846Y7101840D01*
G01X22772499Y7089284D01*
G01X22777346Y7077583D01*
G01X22785055Y7067535D01*
G01X22800295Y7052295D01*
G01X22810343Y7044586D01*
G01X22822044Y7039739D01*
G01X22834600Y7038086D01*
G01X22892766Y7038086D01*
G01X22892766Y6649989D01*
G01X22892081Y6650688D01*
G01X22873985Y6668785D01*
G01X22863937Y6676494D01*
G01X22852236Y6681341D01*
G01X22839680Y6682994D01*
G01X22740874Y6682994D01*
G01X22740874Y7584950D01*
G01X22749972Y7597321D01*
G01X22755981Y7611454D01*
G01X22758578Y7626589D01*
G01X22757624Y7641916D01*
G01X22753170Y7656613D01*
G01X22745454Y7669891D01*
G01X22734892Y7681038D01*
G01X22722049Y7689457D01*
G01X22707613Y7694696D01*
G01X22692360Y7696474D01*
G01X22677107Y7694696D01*
G01X22662671Y7689457D01*
G01X22649828Y7681038D01*
G01X22639266Y7669891D01*
G01X22631550Y7656613D01*
G01X22627096Y7641916D01*
G01X22626142Y7626589D01*
G01X22628739Y7611454D01*
G01X22634748Y7597321D01*
G01X22643846Y7584950D01*
G01X22643846Y7539003D01*
G01X22625065Y7557785D01*
G01X22615017Y7565494D01*
G01X22603316Y7570341D01*
G01X22590760Y7571994D01*
G01X22280370Y7571994D01*
G01X22267999Y7581092D01*
G01X22253866Y7587101D01*
G01X22238731Y7589698D01*
G01X22223404Y7588744D01*
G01X22208707Y7584290D01*
G01X22195429Y7576574D01*
G01X22184282Y7566012D01*
G01X22175863Y7553169D01*
G01X22170624Y7538733D01*
G01X22168846Y7523480D01*
G01X21150834Y7523480D01*
G01X21150834Y7686040D01*
G01X21721806Y7686040D01*
G01X21723584Y7670787D01*
G01X21728823Y7656351D01*
G01X21737242Y7643508D01*
G01X21748389Y7632946D01*
G01X21761667Y7625230D01*
G01X21776364Y7620776D01*
G01X21791691Y7619822D01*
G01X21806826Y7622419D01*
G01X21820959Y7628428D01*
G01X21833330Y7637526D01*
G01X22017230Y7637526D01*
G01X22029601Y7628428D01*
G01X22043734Y7622419D01*
G01X22058869Y7619822D01*
G01X22074196Y7620776D01*
G01X22088893Y7625230D01*
G01X22102171Y7632946D01*
G01X22113318Y7643508D01*
G01X22121737Y7656351D01*
G01X22126976Y7670787D01*
G01X22128754Y7686040D01*
G01X22126976Y7701293D01*
G01X22121737Y7715729D01*
G01X22113318Y7728572D01*
G01X22102171Y7739134D01*
G01X22088893Y7746850D01*
G01X22074196Y7751304D01*
G01X22058869Y7752258D01*
G01X22043734Y7749661D01*
G01X22029601Y7743652D01*
G01X22017230Y7734554D01*
G01X21833330Y7734554D01*
G01X21820959Y7743652D01*
G01X21806826Y7749661D01*
G01X21791691Y7752258D01*
G01X21776364Y7751304D01*
G01X21761667Y7746850D01*
G01X21748389Y7739134D01*
G01X21737242Y7728572D01*
G01X21728823Y7715729D01*
G01X21723584Y7701293D01*
G01X21721806Y7686040D01*
G01X21721806Y7686040D01*
G01X21150834Y7686040D01*
G01X21150834Y7818977D01*
G01X21412175Y7818977D01*
G01X21415260Y7803957D01*
G01X21421712Y7790046D01*
G01X21431187Y7777990D01*
G01X21443178Y7768432D01*
G01X21457043Y7761884D01*
G01X21472042Y7758695D01*
G01X21487372Y7759037D01*
G01X21502214Y7762890D01*
G01X21515774Y7770049D01*
G01X21527327Y7780132D01*
G01X21536256Y7792598D01*
G01X21542082Y7806782D01*
G01X21544495Y7821925D01*
G01X22057870Y7821925D01*
G01X22057870Y7821925D01*
G01X22070241Y7812827D01*
G01X22084374Y7806818D01*
G01X22099509Y7804221D01*
G01X22114836Y7805175D01*
G01X22129533Y7809629D01*
G01X22142811Y7817344D01*
G01X22153958Y7827907D01*
G01X22162377Y7840750D01*
G01X22167616Y7855186D01*
G01X22169394Y7870439D01*
G01X22167616Y7885692D01*
G01X22162377Y7900128D01*
G01X22153958Y7912971D01*
G01X22142811Y7923533D01*
G01X22129533Y7931249D01*
G01X22114836Y7935703D01*
G01X22099509Y7936657D01*
G01X22084374Y7934060D01*
G01X22070241Y7928051D01*
G01X22057870Y7918953D01*
G01X21523960Y7918953D01*
G01X21511404Y7917300D01*
G01X21499703Y7912453D01*
G01X21489655Y7904743D01*
G01X21475904Y7890992D01*
G01X21460745Y7888683D01*
G01X21446521Y7882955D01*
G01X21433993Y7874113D01*
G01X21423831Y7862630D01*
G01X21416578Y7849119D01*
G01X21412622Y7834305D01*
G01X21412175Y7818977D01*
G01X21150834Y7818977D01*
G01X21150834Y8249920D01*
G01X21149808Y8259846D01*
G01X21340645Y8259846D01*
G01X21340645Y8112960D01*
G01X21342298Y8100404D01*
G01X21347145Y8088703D01*
G01X21354855Y8078656D01*
G01X21372815Y8060695D01*
G01X21382863Y8052985D01*
G01X21394564Y8048139D01*
G01X21407120Y8046486D01*
G01X22516846Y8046486D01*
G01X22516846Y8010645D01*
G01X22507748Y7998274D01*
G01X22501739Y7984141D01*
G01X22499142Y7969006D01*
G01X22500096Y7953679D01*
G01X22504550Y7938982D01*
G01X22512266Y7925704D01*
G01X22522828Y7914557D01*
G01X22535671Y7906138D01*
G01X22550107Y7900899D01*
G01X22565360Y7899121D01*
G01X22580613Y7900899D01*
G01X22595049Y7906138D01*
G01X22607892Y7914557D01*
G01X22618454Y7925704D01*
G01X22626170Y7938982D01*
G01X22630624Y7953679D01*
G01X22631578Y7969006D01*
G01X22628981Y7984141D01*
G01X22622972Y7998274D01*
G01X22613874Y8010645D01*
G01X22613874Y8077200D01*
G01X22612221Y8089756D01*
G01X22607374Y8101457D01*
G01X22599665Y8111505D01*
G01X22581865Y8129304D01*
G01X22571817Y8137014D01*
G01X22560117Y8141861D01*
G01X22547560Y8143514D01*
G01X21543813Y8143514D01*
G01X21544366Y8158389D01*
G01X21541587Y8173014D01*
G01X21535616Y8186650D01*
G01X21526754Y8198610D01*
G01X21526754Y8900160D01*
G01X21525101Y8912716D01*
G01X21520254Y8924417D01*
G01X21512545Y8934465D01*
G01X21492225Y8954785D01*
G01X21482177Y8962494D01*
G01X21470476Y8967341D01*
G01X21457920Y8968994D01*
G01X19560740Y8968994D01*
G01X19560794Y8971280D01*
G01X19560794Y9039606D01*
G01X21717225Y9039606D01*
G01X21724366Y9032465D01*
G01X21724366Y8554210D01*
G01X21715690Y8542569D01*
G01X21709756Y8529320D01*
G01X21706847Y8515097D01*
G01X21707103Y8500581D01*
G01X21710511Y8486469D01*
G01X21716909Y8473437D01*
G01X21725989Y8462109D01*
G01X21737317Y8453029D01*
G01X21750349Y8446631D01*
G01X21764461Y8443223D01*
G01X21778977Y8442967D01*
G01X21793200Y8445876D01*
G01X21806449Y8451810D01*
G01X21818090Y8460486D01*
G01X22077680Y8460486D01*
G01X22090236Y8462139D01*
G01X22101937Y8466986D01*
G01X22111985Y8474695D01*
G01X22142465Y8505175D01*
G01X22150174Y8515223D01*
G01X22155021Y8526924D01*
G01X22156674Y8539480D01*
G01X22156674Y8575550D01*
G01X22165772Y8587921D01*
G01X22171781Y8602054D01*
G01X22174378Y8617189D01*
G01X22173424Y8632516D01*
G01X22168970Y8647213D01*
G01X22161254Y8660491D01*
G01X22150692Y8671638D01*
G01X22137849Y8680057D01*
G01X22123413Y8685296D01*
G01X22108160Y8687074D01*
G01X22092907Y8685296D01*
G01X22078471Y8680057D01*
G01X22065628Y8671638D01*
G01X22055066Y8660491D01*
G01X22047350Y8647213D01*
G01X22042896Y8632516D01*
G01X22041942Y8617189D01*
G01X22044539Y8602054D01*
G01X22050548Y8587921D01*
G01X22059646Y8575550D01*
G01X22059646Y8559575D01*
G01X22057585Y8557514D01*
G01X21821394Y8557514D01*
G01X21821394Y9052560D01*
G01X21819741Y9065116D01*
G01X21814894Y9076817D01*
G01X21807185Y9086865D01*
G01X21771625Y9122425D01*
G01X21761577Y9130134D01*
G01X21749876Y9134981D01*
G01X21737320Y9136634D01*
G01X19557490Y9136634D01*
G01X19548381Y9143746D01*
G01X23195280Y9143746D01*
G01X23213070Y9141994D01*
G01X23230175Y9136805D01*
G01X23245940Y9128378D01*
G01X23259758Y9117038D01*
G01X23271098Y9103220D01*
G01X23279525Y9087455D01*
G01X23284714Y9070350D01*
G01X23286466Y9052560D01*
G01X23286466Y2306320D01*
G01X23284714Y2288530D01*
G01X23279525Y2271425D01*
G01X23271098Y2255660D01*
G01X23259758Y2241842D01*
G01X23245940Y2230502D01*
G01X23230175Y2222075D01*
G01X23213070Y2216886D01*
G01X23195280Y2215134D01*
G01X15478760Y2215134D01*
G01X15460970Y2216886D01*
G01X15443865Y2222075D01*
G01X15428100Y2230502D01*
G01X15414282Y2241842D01*
G01X15402942Y2255660D01*
G01X15394515Y2271425D01*
G01X15389326Y2288530D01*
G01X15387574Y2306320D01*
G01X15387574Y4330588D01*
G01X15737992Y4330588D01*
G01X15738027Y4315277D01*
G01X15741571Y4300382D01*
G01X15748438Y4286697D01*
G01X15758259Y4274952D01*
G01X15770513Y4265772D01*
G01X15784545Y4259647D01*
G01X15799608Y4256904D01*
G01X15814899Y4257688D01*
G01X15829602Y4261958D01*
G01X15842934Y4269486D01*
G01X16891000Y4269486D01*
G01X16903556Y4271139D01*
G01X16915257Y4275986D01*
G01X16925305Y4283695D01*
G01X16935465Y4293855D01*
G01X16943174Y4303903D01*
G01X16948021Y4315604D01*
G01X16949674Y4328160D01*
G01X16949674Y4506470D01*
G01X16958772Y4518841D01*
G01X16964781Y4532974D01*
G01X16967378Y4548109D01*
G01X16966424Y4563436D01*
G01X16961970Y4578133D01*
G01X16954254Y4591411D01*
G01X16943692Y4602558D01*
G01X16930849Y4610977D01*
G01X16916413Y4616216D01*
G01X16901160Y4617994D01*
G01X16885907Y4616216D01*
G01X16871471Y4610977D01*
G01X16858628Y4602558D01*
G01X16848066Y4591411D01*
G01X16840350Y4578133D01*
G01X16835896Y4563436D01*
G01X16834942Y4548109D01*
G01X16837539Y4532974D01*
G01X16843548Y4518841D01*
G01X16852646Y4506470D01*
G01X16852646Y4366514D01*
G01X15853990Y4366514D01*
G01X15853990Y4366514D01*
G01X15842694Y4376849D01*
G01X15829328Y4384317D01*
G01X15814606Y4388521D01*
G01X15799311Y4389237D01*
G01X15784261Y4386425D01*
G01X15770256Y4380238D01*
G01X15758044Y4371003D01*
G01X15748275Y4359214D01*
G01X15741470Y4345498D01*
G01X15737992Y4330588D01*
G01X15387574Y4330588D01*
G01X15387574Y4959169D01*
G01X16130319Y4959169D01*
G01X16132972Y4944185D01*
G01X16138970Y4930200D01*
G01X16147999Y4917950D01*
G01X16147999Y4829607D01*
G01X16149652Y4817050D01*
G01X16154499Y4805350D01*
G01X16162209Y4795302D01*
G01X16186135Y4771375D01*
G01X16196183Y4763666D01*
G01X16207884Y4758819D01*
G01X16220440Y4757166D01*
G01X16855411Y4757166D01*
G01X16845905Y4745826D01*
G01X16839150Y4732661D01*
G01X16835482Y4718326D01*
G01X16835085Y4703534D01*
G01X16837977Y4689022D01*
G01X16844016Y4675513D01*
G01X16852899Y4663680D01*
G01X16864186Y4654110D01*
G01X16877313Y4647282D01*
G01X16891628Y4643535D01*
G01X16906417Y4643055D01*
G01X16920944Y4645866D01*
G01X16934487Y4651829D01*
G01X16946370Y4660646D01*
G01X17330166Y4660646D01*
G01X17330166Y4450109D01*
G01X17318870Y4459586D01*
G01X17305760Y4466333D01*
G01X17291483Y4470015D01*
G01X17276745Y4470453D01*
G01X17262275Y4467622D01*
G01X17248787Y4461665D01*
G01X17236950Y4452874D01*
G01X17109440Y4452874D01*
G01X17096884Y4451221D01*
G01X17085183Y4446374D01*
G01X17075135Y4438665D01*
G01X17054815Y4418345D01*
G01X17047106Y4408297D01*
G01X17042259Y4396596D01*
G01X17040606Y4384040D01*
G01X17040606Y4132834D01*
G01X16946370Y4132834D01*
G01X16933999Y4141932D01*
G01X16919866Y4147941D01*
G01X16904731Y4150538D01*
G01X16889404Y4149584D01*
G01X16874707Y4145130D01*
G01X16861429Y4137414D01*
G01X16850282Y4126852D01*
G01X16841863Y4114009D01*
G01X16836624Y4099573D01*
G01X16834846Y4084320D01*
G01X16836624Y4069067D01*
G01X16841863Y4054631D01*
G01X16850282Y4041788D01*
G01X16861429Y4031226D01*
G01X16874707Y4023510D01*
G01X16889404Y4019056D01*
G01X16904731Y4018102D01*
G01X16919866Y4020699D01*
G01X16933999Y4026708D01*
G01X16946370Y4035806D01*
G01X17068800Y4035806D01*
G01X17081356Y4037459D01*
G01X17093057Y4042306D01*
G01X17103105Y4050015D01*
G01X17123425Y4070335D01*
G01X17131134Y4080383D01*
G01X17135981Y4092084D01*
G01X17137634Y4104640D01*
G01X17137634Y4355846D01*
G01X17236950Y4355846D01*
G01X17248787Y4347055D01*
G01X17262275Y4341098D01*
G01X17276745Y4338267D01*
G01X17291483Y4338705D01*
G01X17305760Y4342387D01*
G01X17318870Y4349134D01*
G01X17330166Y4358611D01*
G01X17330166Y3596640D01*
G01X17331819Y3584084D01*
G01X17336666Y3572383D01*
G01X17344375Y3562335D01*
G01X17369645Y3537066D01*
G01X17379692Y3529356D01*
G01X17391393Y3524510D01*
G01X17403949Y3522857D01*
G01X17810990Y3522857D01*
G01X17823955Y3513424D01*
G01X17838805Y3507379D01*
G01X17854671Y3505074D01*
G01X17870627Y3506645D01*
G01X17885740Y3511999D01*
G01X17899126Y3520824D01*
G01X17899126Y3383554D01*
G01X17741920Y3383554D01*
G01X17729363Y3381901D01*
G01X17717663Y3377054D01*
G01X17707615Y3369344D01*
G01X17689556Y3351285D01*
G01X17681846Y3341237D01*
G01X17676999Y3329537D01*
G01X17675346Y3316980D01*
G01X17675346Y3286250D01*
G01X17666877Y3274959D01*
G01X17660990Y3262131D01*
G01X17657950Y3248348D01*
G01X17654407Y3263577D01*
G01X17647397Y3277553D01*
G01X17637309Y3289499D01*
G01X17624704Y3298751D01*
G01X17610284Y3304795D01*
G01X17594849Y3307295D01*
G01X17579258Y3306111D01*
G01X17564378Y3301309D01*
G01X17551036Y3293157D01*
G01X17539973Y3282108D01*
G01X17531804Y3268775D01*
G01X17526985Y3253901D01*
G01X17525782Y3238311D01*
G01X17528263Y3222873D01*
G01X17534289Y3208446D01*
G01X17543526Y3195830D01*
G01X17543526Y3124200D01*
G01X17545179Y3111644D01*
G01X17550026Y3099943D01*
G01X17557735Y3089895D01*
G01X17572975Y3074655D01*
G01X17583023Y3066946D01*
G01X17594724Y3062099D01*
G01X17607280Y3060446D01*
G01X18069138Y3060446D01*
G01X18084421Y3054672D01*
G01X18100651Y3052809D01*
G01X18116844Y3054970D01*
G01X18132017Y3061025D01*
G01X18145250Y3070606D01*
G01X18150840Y3070606D01*
G01X18155485Y3070829D01*
G01X18155485Y2712720D01*
G01X18157138Y2700164D01*
G01X18161985Y2688463D01*
G01X18169695Y2678415D01*
G01X18195095Y2653015D01*
G01X18205142Y2645306D01*
G01X18216843Y2640459D01*
G01X18229399Y2638806D01*
G01X20441920Y2638806D01*
G01X20454476Y2640459D01*
G01X20466177Y2645306D01*
G01X20476225Y2653015D01*
G01X20496545Y2673335D01*
G01X20501296Y2678861D01*
G01X20505166Y2685035D01*
G01X20505166Y2656751D01*
G01X20496068Y2644380D01*
G01X20490059Y2630248D01*
G01X20487462Y2615112D01*
G01X20488416Y2599785D01*
G01X20492870Y2585088D01*
G01X20500586Y2571810D01*
G01X20511148Y2560663D01*
G01X20523991Y2552244D01*
G01X20538427Y2547005D01*
G01X20553680Y2545227D01*
G01X20568933Y2547005D01*
G01X20583369Y2552244D01*
G01X20596212Y2560663D01*
G01X20606774Y2571810D01*
G01X20614490Y2585088D01*
G01X20618944Y2599785D01*
G01X20619898Y2615112D01*
G01X20617301Y2630248D01*
G01X20611292Y2644380D01*
G01X20602194Y2656751D01*
G01X20602194Y2829560D01*
G01X20600541Y2842116D01*
G01X20595694Y2853817D01*
G01X20587985Y2863865D01*
G01X20562585Y2889265D01*
G01X20552537Y2896974D01*
G01X20540836Y2901821D01*
G01X20528280Y2903474D01*
G01X18699255Y2903474D01*
G01X18661834Y2940895D01*
G01X18661834Y3815590D01*
G01X18670933Y3827961D01*
G01X18676941Y3842094D01*
G01X18679538Y3857229D01*
G01X18678584Y3872556D01*
G01X18674130Y3887253D01*
G01X18666415Y3900531D01*
G01X18655852Y3911678D01*
G01X18643009Y3920097D01*
G01X18628574Y3925336D01*
G01X18613320Y3927114D01*
G01X18598067Y3925336D01*
G01X18583632Y3920097D01*
G01X18570788Y3911678D01*
G01X18560226Y3900531D01*
G01X18552511Y3887253D01*
G01X18548057Y3872556D01*
G01X18547103Y3857229D01*
G01X18549699Y3842094D01*
G01X18555708Y3827961D01*
G01X18564806Y3815590D01*
G01X18564806Y2920800D01*
G01X18566459Y2908243D01*
G01X18571306Y2896543D01*
G01X18579016Y2886495D01*
G01X18644855Y2820655D01*
G01X18654903Y2812946D01*
G01X18666604Y2808099D01*
G01X18679160Y2806446D01*
G01X20411694Y2806446D01*
G01X20404525Y2796178D01*
G01X20399415Y2784745D01*
G01X20396544Y2772556D01*
G01X20396017Y2760044D01*
G01X20397851Y2747656D01*
G01X20401982Y2735834D01*
G01X18252513Y2735834D01*
G01X18252513Y2814552D01*
G01X18262007Y2800968D01*
G01X18274492Y2790070D01*
G01X18289234Y2782499D01*
G01X18305365Y2778700D01*
G01X18321937Y2778898D01*
G01X18337973Y2783081D01*
G01X18352530Y2791002D01*
G01X18364751Y2802195D01*
G01X18373917Y2816002D01*
G01X18380740Y2800024D01*
G01X18390642Y2785747D01*
G01X18403217Y2773757D01*
G01X18417949Y2764546D01*
G01X18434235Y2758491D01*
G01X18451406Y2755841D01*
G01X18468759Y2756704D01*
G01X18485583Y2761044D01*
G01X18501187Y2768684D01*
G01X18514933Y2779311D01*
G01X18526257Y2792489D01*
G01X18534694Y2807678D01*
G01X18539898Y2824255D01*
G01X18541657Y2841540D01*
G01X18541657Y2951540D01*
G01X18539782Y2969381D01*
G01X18534238Y2986443D01*
G01X18525268Y3001980D01*
G01X18513264Y3015312D01*
G01X18498750Y3025857D01*
G01X18482361Y3033154D01*
G01X18464813Y3036883D01*
G01X18446873Y3036883D01*
G01X18429325Y3033154D01*
G01X18412936Y3025857D01*
G01X18398422Y3015312D01*
G01X18386418Y3001980D01*
G01X18377448Y2986443D01*
G01X18371905Y2969381D01*
G01X18370029Y2951540D01*
G01X18370029Y2883970D01*
G01X18359980Y2896047D01*
G01X18347437Y2905508D01*
G01X18333065Y2911855D01*
G01X18317623Y2914749D01*
G01X18301927Y2914039D01*
G01X18286810Y2909762D01*
G01X18273069Y2902145D01*
G01X18261431Y2891589D01*
G01X18252513Y2878654D01*
G01X18252513Y3593826D01*
G01X18250860Y3606383D01*
G01X18246014Y3618083D01*
G01X18238304Y3628131D01*
G01X18194850Y3671585D01*
G01X18184803Y3679294D01*
G01X18173102Y3684141D01*
G01X18160546Y3685794D01*
G01X18095234Y3685794D01*
G01X18095234Y4691077D01*
G01X18111455Y4674855D01*
G01X18121503Y4667146D01*
G01X18133204Y4662299D01*
G01X18145760Y4660646D01*
G01X18686526Y4660646D01*
G01X18686526Y3048000D01*
G01X18688179Y3035444D01*
G01X18693026Y3023743D01*
G01X18700735Y3013695D01*
G01X18744096Y2970335D01*
G01X18754144Y2962625D01*
G01X18765844Y2957778D01*
G01X18778401Y2956125D01*
G01X20317279Y2956125D01*
G01X20329836Y2957778D01*
G01X20341536Y2962625D01*
G01X20351584Y2970335D01*
G01X20374625Y2993375D01*
G01X20382334Y3003423D01*
G01X20387181Y3015124D01*
G01X20388834Y3027680D01*
G01X20388834Y3109470D01*
G01X20397932Y3121841D01*
G01X20403941Y3135974D01*
G01X20406538Y3151109D01*
G01X20405584Y3166436D01*
G01X20401130Y3181133D01*
G01X20393414Y3194411D01*
G01X20382852Y3205558D01*
G01X20370009Y3213977D01*
G01X20355573Y3219216D01*
G01X20340320Y3220994D01*
G01X20325067Y3219216D01*
G01X20310631Y3213977D01*
G01X20297788Y3205558D01*
G01X20287226Y3194411D01*
G01X20279510Y3181133D01*
G01X20275056Y3166436D01*
G01X20274102Y3151109D01*
G01X20276699Y3135974D01*
G01X20282708Y3121841D01*
G01X20291806Y3109470D01*
G01X20291806Y3053153D01*
G01X18798496Y3053153D01*
G01X18783554Y3068095D01*
G01X18783554Y4292600D01*
G01X19072606Y4292600D01*
G01X19074259Y4280044D01*
G01X19079106Y4268343D01*
G01X19086815Y4258295D01*
G01X19117295Y4227815D01*
G01X19127343Y4220106D01*
G01X19139044Y4215259D01*
G01X19151600Y4213606D01*
G01X19436590Y4213606D01*
G01X19448961Y4204508D01*
G01X19463094Y4198499D01*
G01X19478229Y4195902D01*
G01X19493556Y4196856D01*
G01X19508253Y4201310D01*
G01X19521531Y4209026D01*
G01X19532678Y4219588D01*
G01X19541097Y4232431D01*
G01X19546336Y4246867D01*
G01X19548114Y4262120D01*
G01X19546336Y4277373D01*
G01X19541097Y4291809D01*
G01X19532678Y4304652D01*
G01X19521531Y4315214D01*
G01X19508253Y4322930D01*
G01X19493556Y4327384D01*
G01X19478229Y4328338D01*
G01X19463094Y4325741D01*
G01X19448961Y4319732D01*
G01X19436590Y4310634D01*
G01X19171695Y4310634D01*
G01X19169634Y4312695D01*
G01X19169634Y5283425D01*
G01X19174215Y5288006D01*
G01X19296868Y5288006D01*
G01X19308719Y5278257D01*
G01X19322494Y5271493D01*
G01X19337454Y5268076D01*
G01X19352799Y5268190D01*
G01X19367708Y5271827D01*
G01X19381381Y5278794D01*
G01X19393086Y5288717D01*
G01X19402198Y5301065D01*
G01X19408227Y5315177D01*
G01X19410851Y5330297D01*
G01X19409929Y5345615D01*
G01X19405511Y5360311D01*
G01X19397834Y5373598D01*
G01X19387308Y5384764D01*
G01X19374497Y5393212D01*
G01X19360087Y5398490D01*
G01X19344851Y5400314D01*
G01X19329602Y5398587D01*
G01X19315160Y5393401D01*
G01X19302295Y5385034D01*
G01X19154120Y5385034D01*
G01X19141564Y5383381D01*
G01X19129863Y5378535D01*
G01X19119816Y5370825D01*
G01X19086815Y5337825D01*
G01X19079106Y5327777D01*
G01X19074259Y5316076D01*
G01X19072606Y5303520D01*
G01X19072606Y4292600D01*
G01X19072606Y4292600D01*
G01X18783554Y4292600D01*
G01X18783554Y4686280D01*
G01X18781901Y4698837D01*
G01X18777054Y4710537D01*
G01X18769345Y4720585D01*
G01X18746465Y4743465D01*
G01X18736417Y4751174D01*
G01X18724717Y4756021D01*
G01X18712160Y4757674D01*
G01X18561422Y4757674D01*
G01X18572567Y4768238D01*
G01X18580982Y4781082D01*
G01X18586219Y4795517D01*
G01X18587994Y4810770D01*
G01X18586214Y4826022D01*
G01X18580973Y4840456D01*
G01X18572554Y4853298D01*
G01X18561406Y4863858D01*
G01X18548128Y4871572D01*
G01X18533432Y4876024D01*
G01X18518106Y4876978D01*
G01X18502972Y4874380D01*
G01X18488840Y4868372D01*
G01X18476470Y4859274D01*
G01X18312698Y4859274D01*
G01X18317382Y4873542D01*
G01X18318736Y4888499D01*
G01X18316690Y4903376D01*
G01X18311349Y4917412D01*
G01X18302986Y4929886D01*
G01X18806160Y4929886D01*
G01X18818716Y4931539D01*
G01X18830417Y4936386D01*
G01X18840465Y4944095D01*
G01X18876025Y4979655D01*
G01X18883734Y4989703D01*
G01X18888581Y5001404D01*
G01X18890234Y5013960D01*
G01X18890234Y5816600D01*
G01X18888581Y5829156D01*
G01X18883734Y5840857D01*
G01X18876025Y5850905D01*
G01X18848065Y5878864D01*
G01X18838017Y5886574D01*
G01X18826317Y5891421D01*
G01X18813760Y5893074D01*
G01X17737074Y5893074D01*
G01X17737074Y7529381D01*
G01X17805389Y7529381D01*
G01X17805803Y7514030D01*
G01X17809736Y7499186D01*
G01X17816979Y7485644D01*
G01X17827142Y7474132D01*
G01X17839681Y7465266D01*
G01X17853922Y7459521D01*
G01X17869104Y7457207D01*
G01X17964135Y7362175D01*
G01X17974183Y7354466D01*
G01X17985884Y7349619D01*
G01X17998440Y7347966D01*
G01X18972002Y7347966D01*
G01X18963732Y7333898D01*
G01X18959148Y7318236D01*
G01X18958527Y7301928D01*
G01X18961908Y7285963D01*
G01X18969086Y7271307D01*
G01X18979625Y7258848D01*
G01X18992889Y7249340D01*
G01X19008073Y7243359D01*
G01X18995805Y7239969D01*
G01X18984411Y7234297D01*
G01X18974310Y7226554D01*
G01X18049240Y7226554D01*
G01X18036684Y7224901D01*
G01X18024983Y7220054D01*
G01X18014935Y7212345D01*
G01X17990945Y7188354D01*
G01X17983235Y7178307D01*
G01X17978389Y7166606D01*
G01X17976736Y7154050D01*
G01X17976736Y6019290D01*
G01X17967637Y6006919D01*
G01X17961629Y5992786D01*
G01X17959032Y5977651D01*
G01X17959986Y5962324D01*
G01X17964440Y5947627D01*
G01X17972155Y5934349D01*
G01X17982718Y5923202D01*
G01X17995561Y5914783D01*
G01X18009996Y5909544D01*
G01X18025250Y5907766D01*
G01X18040503Y5909544D01*
G01X18054939Y5914783D01*
G01X18067782Y5923202D01*
G01X18078344Y5934349D01*
G01X18086059Y5947627D01*
G01X18090513Y5962324D01*
G01X18091468Y5977651D01*
G01X18088871Y5992786D01*
G01X18082862Y6006919D01*
G01X18073764Y6019290D01*
G01X18073764Y7129526D01*
G01X18226757Y7129526D01*
G01X18223215Y7125985D01*
G01X18215506Y7115937D01*
G01X18210659Y7104236D01*
G01X18209006Y7091680D01*
G01X18209006Y6019290D01*
G01X18199908Y6006919D01*
G01X18193899Y5992786D01*
G01X18191302Y5977651D01*
G01X18192256Y5962324D01*
G01X18196710Y5947627D01*
G01X18204426Y5934349D01*
G01X18214988Y5923202D01*
G01X18227831Y5914783D01*
G01X18242267Y5909544D01*
G01X18257520Y5907766D01*
G01X18272773Y5909544D01*
G01X18287209Y5914783D01*
G01X18300052Y5923202D01*
G01X18310614Y5934349D01*
G01X18318330Y5947627D01*
G01X18322784Y5962324D01*
G01X18323738Y5977651D01*
G01X18321141Y5992786D01*
G01X18315132Y6006919D01*
G01X18306034Y6019290D01*
G01X18306034Y7066047D01*
G01X18473158Y7066047D01*
G01X18467055Y7059945D01*
G01X18459346Y7049897D01*
G01X18454499Y7038196D01*
G01X18452846Y7025640D01*
G01X18452846Y6207250D01*
G01X18443748Y6194879D01*
G01X18437739Y6180746D01*
G01X18435142Y6165611D01*
G01X18436096Y6150284D01*
G01X18440550Y6135587D01*
G01X18448266Y6122309D01*
G01X18458828Y6111162D01*
G01X18471671Y6102743D01*
G01X18486107Y6097504D01*
G01X18501360Y6095726D01*
G01X18516613Y6097504D01*
G01X18531049Y6102743D01*
G01X18543892Y6111162D01*
G01X18554454Y6122309D01*
G01X18562170Y6135587D01*
G01X18566624Y6150284D01*
G01X18567578Y6165611D01*
G01X18564981Y6180746D01*
G01X18558972Y6194879D01*
G01X18549874Y6207250D01*
G01X18549874Y7002526D01*
G01X18979390Y7002526D01*
G01X18988404Y6995476D01*
G01X18998496Y6990080D01*
G01X18984778Y6982146D01*
G01X18973334Y6971183D01*
G01X18964818Y6957819D01*
G01X18959716Y6942815D01*
G01X18958319Y6927030D01*
G01X18960707Y6911364D01*
G01X18966745Y6896711D01*
G01X18976086Y6883910D01*
G01X18976086Y6034815D01*
G01X18963865Y6022594D01*
G01X18536410Y6022594D01*
G01X18524039Y6031692D01*
G01X18509906Y6037701D01*
G01X18494771Y6040298D01*
G01X18479444Y6039344D01*
G01X18464747Y6034890D01*
G01X18451469Y6027174D01*
G01X18440322Y6016612D01*
G01X18431903Y6003769D01*
G01X18426664Y5989333D01*
G01X18424886Y5974080D01*
G01X18426664Y5958827D01*
G01X18431903Y5944391D01*
G01X18440322Y5931548D01*
G01X18451469Y5920986D01*
G01X18464747Y5913270D01*
G01X18479444Y5908816D01*
G01X18494771Y5907862D01*
G01X18509906Y5910459D01*
G01X18524039Y5916468D01*
G01X18536410Y5925566D01*
G01X18983960Y5925566D01*
G01X18996516Y5927219D01*
G01X19008217Y5932066D01*
G01X19018265Y5939775D01*
G01X19058905Y5980415D01*
G01X19066614Y5990463D01*
G01X19071461Y6002164D01*
G01X19073114Y6014720D01*
G01X19073114Y6883910D01*
G01X19082455Y6896711D01*
G01X19088493Y6911364D01*
G01X19090881Y6927030D01*
G01X19089484Y6942815D01*
G01X19084382Y6957819D01*
G01X19075866Y6971183D01*
G01X19064422Y6982146D01*
G01X19050704Y6990080D01*
G01X19064043Y6997732D01*
G01X19075261Y7008250D01*
G01X19083755Y7021069D01*
G01X19089067Y7035500D01*
G01X19090913Y7050766D01*
G01X19089194Y7066047D01*
G01X19095762Y7066047D01*
G01X19108318Y7067700D01*
G01X19120019Y7072547D01*
G01X19130066Y7080256D01*
G01X19145264Y7095454D01*
G01X19152974Y7105502D01*
G01X19157821Y7117202D01*
G01X19159474Y7129759D01*
G01X19159474Y7287281D01*
G01X19157821Y7299838D01*
G01X19152974Y7311538D01*
G01X19145265Y7321586D01*
G01X19124966Y7341885D01*
G01X19117542Y7347966D01*
G01X19674625Y7347966D01*
G01X19677038Y7332823D01*
G01X19682864Y7318639D01*
G01X19691793Y7306173D01*
G01X19703346Y7296090D01*
G01X19716906Y7288931D01*
G01X19731748Y7285078D01*
G01X19747078Y7284736D01*
G01X19762077Y7287925D01*
G01X19775942Y7294473D01*
G01X19787933Y7304031D01*
G01X19797408Y7316088D01*
G01X19803860Y7329998D01*
G01X19806945Y7345018D01*
G01X19806498Y7360346D01*
G01X19802542Y7375161D01*
G01X19795289Y7388671D01*
G01X19785127Y7400154D01*
G01X19772599Y7408996D01*
G01X19758375Y7414725D01*
G01X19743216Y7417033D01*
G01X19729465Y7430785D01*
G01X19719417Y7438494D01*
G01X19707716Y7443341D01*
G01X19695160Y7444994D01*
G01X18018535Y7444994D01*
G01X17937713Y7525816D01*
G01X17937713Y7525816D01*
G01X17935399Y7540998D01*
G01X17929654Y7555239D01*
G01X17920788Y7567778D01*
G01X17909276Y7577941D01*
G01X17895734Y7585184D01*
G01X17880890Y7589117D01*
G01X17865539Y7589531D01*
G01X17850504Y7586402D01*
G01X17836592Y7579900D01*
G01X17824549Y7570371D01*
G01X17815020Y7558328D01*
G01X17808518Y7544416D01*
G01X17805389Y7529381D01*
G01X17737074Y7529381D01*
G01X17737074Y8168865D01*
G01X17749346Y8181137D01*
G01X17749979Y8181137D01*
G01X17762350Y8172039D01*
G01X17776483Y8166030D01*
G01X17791618Y8163433D01*
G01X17806945Y8164387D01*
G01X17821642Y8168841D01*
G01X17834920Y8176556D01*
G01X17846067Y8187119D01*
G01X17854486Y8199962D01*
G01X17859725Y8214397D01*
G01X17861503Y8229651D01*
G01X17859725Y8244904D01*
G01X17854486Y8259340D01*
G01X17846067Y8272183D01*
G01X17834920Y8282745D01*
G01X17821642Y8290460D01*
G01X17806945Y8294914D01*
G01X17791618Y8295869D01*
G01X17776483Y8293272D01*
G01X17762350Y8287263D01*
G01X17749979Y8278165D01*
G01X17729251Y8278165D01*
G01X17716694Y8276512D01*
G01X17704994Y8271665D01*
G01X17694946Y8263955D01*
G01X17654255Y8223265D01*
G01X17646546Y8213217D01*
G01X17641699Y8201516D01*
G01X17640046Y8188960D01*
G01X17640046Y5857240D01*
G01X17641699Y5844684D01*
G01X17646546Y5832983D01*
G01X17654255Y5822935D01*
G01X17666936Y5810255D01*
G01X17676983Y5802545D01*
G01X17688684Y5797699D01*
G01X17701240Y5796046D01*
G01X18717561Y5796046D01*
G01X18714624Y5780820D01*
G01X18715304Y5765329D01*
G01X18719562Y5750419D01*
G01X18727166Y5736906D01*
G01X18727166Y5459574D01*
G01X18713986Y5466676D01*
G01X18699548Y5470641D01*
G01X18684589Y5471265D01*
G01X18669872Y5468518D01*
G01X18656145Y5462539D01*
G01X18644110Y5453634D01*
G01X18155230Y5453634D01*
G01X18143934Y5463969D01*
G01X18130568Y5471437D01*
G01X18115846Y5475641D01*
G01X18100551Y5476357D01*
G01X18085501Y5473545D01*
G01X18071496Y5467358D01*
G01X18059284Y5458123D01*
G01X18049515Y5446334D01*
G01X18042710Y5432618D01*
G01X18039232Y5417708D01*
G01X18039267Y5402397D01*
G01X18042811Y5387502D01*
G01X18049678Y5373817D01*
G01X18059499Y5362072D01*
G01X18071753Y5352892D01*
G01X18085785Y5346767D01*
G01X18100848Y5344024D01*
G01X18116139Y5344808D01*
G01X18130842Y5349078D01*
G01X18144174Y5356606D01*
G01X18644110Y5356606D01*
G01X18655924Y5347829D01*
G01X18669383Y5341874D01*
G01X18364200Y5341874D01*
G01X18351644Y5340221D01*
G01X18339943Y5335374D01*
G01X18329895Y5327665D01*
G01X18308394Y5306163D01*
G01X18300685Y5296116D01*
G01X18295838Y5284415D01*
G01X18294185Y5271859D01*
G01X18294185Y5256299D01*
G01X18285520Y5244678D01*
G01X18279588Y5231451D01*
G01X18276672Y5217251D01*
G01X18276910Y5202757D01*
G01X18280293Y5188661D01*
G01X18286657Y5175637D01*
G01X18142083Y5175637D01*
G01X18129526Y5173984D01*
G01X18117826Y5169137D01*
G01X18107778Y5161427D01*
G01X18090324Y5143973D01*
G01X18086216Y5150878D01*
G01X18081024Y5157011D01*
G01X18024114Y5213921D01*
G01X18024114Y5481915D01*
G01X18022461Y5494471D01*
G01X18017614Y5506172D01*
G01X18009904Y5516219D01*
G01X17979658Y5546466D01*
G01X17969610Y5554175D01*
G01X17957910Y5559022D01*
G01X17945353Y5560675D01*
G01X17899634Y5560675D01*
G01X17899634Y5658841D01*
G01X17907637Y5671920D01*
G01X17912422Y5686487D01*
G01X17913733Y5701764D01*
G01X17911501Y5716934D01*
G01X17905845Y5731185D01*
G01X17897067Y5743757D01*
G01X17885636Y5753976D01*
G01X17872163Y5761297D01*
G01X17857369Y5765328D01*
G01X17842045Y5765853D01*
G01X17827010Y5762845D01*
G01X17813068Y5756465D01*
G01X17800964Y5747053D01*
G01X17791345Y5735112D01*
G01X17784725Y5721281D01*
G01X17781459Y5706300D01*
G01X17781721Y5690970D01*
G01X17785497Y5676109D01*
G01X17792585Y5662512D01*
G01X17802606Y5650907D01*
G01X17802606Y5531071D01*
G01X17804259Y5518515D01*
G01X17809106Y5506814D01*
G01X17816815Y5496767D01*
G01X17835726Y5477856D01*
G01X17845773Y5470147D01*
G01X17857474Y5465300D01*
G01X17870030Y5463647D01*
G01X17925258Y5463647D01*
G01X17927086Y5461819D01*
G01X17927086Y5260603D01*
G01X17926065Y5261625D01*
G01X17916017Y5269334D01*
G01X17904316Y5274181D01*
G01X17891760Y5275834D01*
G01X17258770Y5275834D01*
G01X17246399Y5284932D01*
G01X17232267Y5290941D01*
G01X17217131Y5293538D01*
G01X17201804Y5292584D01*
G01X17187107Y5288130D01*
G01X17173829Y5280414D01*
G01X17162682Y5269852D01*
G01X17154263Y5257009D01*
G01X17149024Y5242573D01*
G01X17147246Y5227320D01*
G01X17149024Y5212067D01*
G01X17154263Y5197631D01*
G01X17162682Y5184788D01*
G01X17173829Y5174226D01*
G01X17187107Y5166510D01*
G01X17201804Y5162056D01*
G01X17217131Y5161102D01*
G01X17232267Y5163699D01*
G01X17246399Y5169708D01*
G01X17258770Y5178806D01*
G01X17871665Y5178806D01*
G01X17962606Y5087865D01*
G01X17962606Y3655363D01*
G01X17953894Y3664075D01*
G01X17943846Y3671785D01*
G01X17932146Y3676632D01*
G01X17919589Y3678285D01*
G01X17462794Y3678285D01*
G01X17462794Y4978400D01*
G01X17461141Y4990956D01*
G01X17456294Y5002657D01*
G01X17448584Y5012705D01*
G01X17428264Y5033025D01*
G01X17418217Y5040734D01*
G01X17406516Y5045581D01*
G01X17393960Y5047234D01*
G01X17261330Y5047234D01*
G01X17248959Y5056332D01*
G01X17234826Y5062341D01*
G01X17219691Y5064938D01*
G01X17204364Y5063984D01*
G01X17189667Y5059530D01*
G01X17176389Y5051814D01*
G01X17165242Y5041252D01*
G01X17156823Y5028409D01*
G01X17151584Y5013973D01*
G01X17149806Y4998720D01*
G01X17151584Y4983467D01*
G01X17156823Y4969031D01*
G01X17165242Y4956188D01*
G01X17176389Y4945626D01*
G01X17189667Y4937910D01*
G01X17204364Y4933456D01*
G01X17219691Y4932502D01*
G01X17234826Y4935099D01*
G01X17248959Y4941108D01*
G01X17261330Y4950206D01*
G01X17365766Y4950206D01*
G01X17365766Y4757105D01*
G01X17358360Y4757674D01*
G01X17170429Y4757674D01*
G01X17179935Y4769014D01*
G01X17186690Y4782179D01*
G01X17190358Y4796514D01*
G01X17190755Y4811306D01*
G01X17187863Y4825818D01*
G01X17181824Y4839327D01*
G01X17172941Y4851160D01*
G01X17161654Y4860730D01*
G01X17148527Y4867558D01*
G01X17134212Y4871305D01*
G01X17119423Y4871785D01*
G01X17104896Y4868974D01*
G01X17091353Y4863011D01*
G01X17079470Y4854194D01*
G01X16245027Y4854194D01*
G01X16245027Y4917950D01*
G01X16254041Y4930174D01*
G01X16260038Y4944129D01*
G01X16262702Y4959082D01*
G01X16261893Y4974249D01*
G01X16257655Y4988835D01*
G01X16250210Y5002073D01*
G01X16239947Y5013270D01*
G01X16239947Y5016246D01*
G01X16830040Y5016246D01*
G01X16842596Y5017899D01*
G01X16854297Y5022746D01*
G01X16864345Y5030455D01*
G01X16892304Y5058415D01*
G01X16900014Y5068463D01*
G01X16904861Y5080163D01*
G01X16906514Y5092720D01*
G01X16906514Y5243997D01*
G01X16920468Y5242294D01*
G01X16934467Y5243570D01*
G01X16947883Y5247769D01*
G01X16960113Y5254701D01*
G01X16970606Y5264056D01*
G01X16978892Y5275412D01*
G01X16984597Y5288259D01*
G01X16987467Y5302021D01*
G01X16987371Y5316078D01*
G01X16984314Y5329799D01*
G01X16978434Y5342568D01*
G01X16969994Y5353810D01*
G01X16969994Y6669786D01*
G01X17480790Y6669786D01*
G01X17493018Y6660769D01*
G01X17506978Y6654773D01*
G01X17521936Y6652111D01*
G01X17537108Y6652923D01*
G01X17551696Y6657167D01*
G01X17564936Y6664620D01*
G01X17576131Y6674890D01*
G01X17584696Y6687440D01*
G01X17590179Y6701609D01*
G01X17592294Y6716654D01*
G01X17590928Y6731786D01*
G01X17586155Y6746210D01*
G01X17578224Y6759169D01*
G01X17567551Y6769982D01*
G01X17580625Y6783055D01*
G01X17588334Y6793103D01*
G01X17593181Y6804804D01*
G01X17594834Y6817360D01*
G01X17594834Y8016750D01*
G01X17603932Y8029121D01*
G01X17609941Y8043254D01*
G01X17612538Y8058389D01*
G01X17611584Y8073716D01*
G01X17607130Y8088413D01*
G01X17599414Y8101691D01*
G01X17588852Y8112838D01*
G01X17576009Y8121257D01*
G01X17561573Y8126496D01*
G01X17546320Y8128274D01*
G01X17531067Y8126496D01*
G01X17516631Y8121257D01*
G01X17503788Y8112838D01*
G01X17493226Y8101691D01*
G01X17485510Y8088413D01*
G01X17481056Y8073716D01*
G01X17480102Y8058389D01*
G01X17482699Y8043254D01*
G01X17488708Y8029121D01*
G01X17497806Y8016750D01*
G01X17497806Y6837455D01*
G01X17485585Y6825234D01*
G01X16885920Y6825234D01*
G01X16873364Y6823581D01*
G01X16861663Y6818734D01*
G01X16851615Y6811025D01*
G01X16823695Y6783104D01*
G01X16815985Y6773057D01*
G01X16811139Y6761356D01*
G01X16809486Y6748800D01*
G01X16809486Y5113274D01*
G01X16210280Y5113274D01*
G01X16210280Y5113274D01*
G01X16197724Y5111621D01*
G01X16186023Y5106774D01*
G01X16175975Y5099065D01*
G01X16157129Y5080218D01*
G01X16149419Y5070170D01*
G01X16144572Y5058470D01*
G01X16142919Y5045913D01*
G01X16142919Y5002214D01*
G01X16135427Y4988969D01*
G01X16131152Y4974364D01*
G01X16130319Y4959169D01*
G01X15387574Y4959169D01*
G01X15387574Y7169389D01*
G01X17119371Y7169389D01*
G01X17121968Y7154254D01*
G01X17127977Y7140121D01*
G01X17137075Y7127750D01*
G01X17137075Y6943850D01*
G01X17127977Y6931479D01*
G01X17121968Y6917346D01*
G01X17119371Y6902211D01*
G01X17120326Y6886884D01*
G01X17124780Y6872187D01*
G01X17132495Y6858909D01*
G01X17143057Y6847762D01*
G01X17155900Y6839343D01*
G01X17170336Y6834104D01*
G01X17185589Y6832326D01*
G01X17185589Y6832326D01*
G01X17200843Y6834104D01*
G01X17215278Y6839343D01*
G01X17228121Y6847762D01*
G01X17238684Y6858909D01*
G01X17246399Y6872187D01*
G01X17250853Y6886884D01*
G01X17251807Y6902211D01*
G01X17249210Y6917346D01*
G01X17243201Y6931479D01*
G01X17234103Y6943850D01*
G01X17234103Y7127750D01*
G01X17243201Y7140121D01*
G01X17249210Y7154254D01*
G01X17251807Y7169389D01*
G01X17250853Y7184716D01*
G01X17246399Y7199413D01*
G01X17238684Y7212691D01*
G01X17228121Y7223838D01*
G01X17215278Y7232257D01*
G01X17200843Y7237496D01*
G01X17185589Y7239274D01*
G01X17170336Y7237496D01*
G01X17155900Y7232257D01*
G01X17143057Y7223838D01*
G01X17132495Y7212691D01*
G01X17124780Y7199413D01*
G01X17120326Y7184716D01*
G01X17119371Y7169389D01*
G01X15387574Y7169389D01*
G01X15387574Y8086115D01*
G01X16212985Y8086115D01*
G01X16214896Y8064268D01*
G01X16220573Y8043085D01*
G01X16229841Y8023208D01*
G01X16242420Y8005244D01*
G01X16257927Y7989736D01*
G01X16275892Y7977157D01*
G01X16295768Y7967889D01*
G01X16316952Y7962213D01*
G01X16338799Y7960302D01*
G01X16338799Y7960302D01*
G01X16558798Y7960302D01*
G01X16580646Y7962213D01*
G01X16601829Y7967889D01*
G01X16621705Y7977157D01*
G01X16639670Y7989736D01*
G01X16655177Y8005244D01*
G01X16667756Y8023208D01*
G01X16677025Y8043085D01*
G01X16682701Y8064268D01*
G01X16684612Y8086115D01*
G01X16682701Y8107963D01*
G01X16677025Y8129146D01*
G01X16667756Y8149022D01*
G01X16655177Y8166987D01*
G01X16639670Y8182494D01*
G01X16621705Y8195073D01*
G01X16601829Y8204342D01*
G01X16580646Y8210018D01*
G01X16558798Y8211929D01*
G01X16338799Y8211929D01*
G01X16316952Y8210018D01*
G01X16295768Y8204342D01*
G01X16275892Y8195073D01*
G01X16257927Y8182494D01*
G01X16242420Y8166987D01*
G01X16229841Y8149022D01*
G01X16220573Y8129146D01*
G01X16214896Y8107963D01*
G01X16212985Y8086115D01*
G01X15387574Y8086115D01*
G01X15387574Y8676124D01*
G01X16002986Y8676124D01*
G01X16002986Y8456125D01*
G01X16004897Y8434277D01*
G01X16010573Y8413094D01*
G01X16019841Y8393218D01*
G01X16032420Y8375253D01*
G01X16047928Y8359746D01*
G01X16065892Y8347167D01*
G01X16085768Y8337899D01*
G01X16106952Y8332222D01*
G01X16128799Y8330311D01*
G01X16150647Y8332222D01*
G01X16171830Y8337899D01*
G01X16191706Y8347167D01*
G01X16209671Y8359746D01*
G01X16225178Y8375253D01*
G01X16237757Y8393218D01*
G01X16247026Y8413094D01*
G01X16252702Y8434277D01*
G01X16254613Y8456125D01*
G01X16254613Y8676124D01*
G01X16612984Y8676124D01*
G01X16612984Y8456125D01*
G01X16614896Y8434277D01*
G01X16620572Y8413094D01*
G01X16629840Y8393218D01*
G01X16642419Y8375253D01*
G01X16657927Y8359746D01*
G01X16675891Y8347167D01*
G01X16695767Y8337899D01*
G01X16716951Y8332222D01*
G01X16738798Y8330311D01*
G01X16760645Y8332222D01*
G01X16781829Y8337899D01*
G01X16801705Y8347167D01*
G01X16819670Y8359746D01*
G01X16835177Y8375253D01*
G01X16847756Y8393218D01*
G01X16857024Y8413094D01*
G01X16862701Y8434277D01*
G01X16864612Y8456125D01*
G01X16864612Y8676124D01*
G01X16862701Y8697972D01*
G01X16857024Y8719155D01*
G01X16847756Y8739031D01*
G01X16835177Y8756996D01*
G01X16819670Y8772503D01*
G01X16801705Y8785082D01*
G01X16781829Y8794351D01*
G01X16760645Y8800027D01*
G01X16738798Y8801938D01*
G01X16716951Y8800027D01*
G01X16695767Y8794351D01*
G01X16675891Y8785082D01*
G01X16657927Y8772503D01*
G01X16642419Y8756996D01*
G01X16629840Y8739031D01*
G01X16620572Y8719155D01*
G01X16614896Y8697972D01*
G01X16612984Y8676124D01*
G01X16612984Y8676124D01*
G01X16254613Y8676124D01*
G01X16252702Y8697972D01*
G01X16247026Y8719155D01*
G01X16237757Y8739031D01*
G01X16225178Y8756996D01*
G01X16209671Y8772503D01*
G01X16191706Y8785082D01*
G01X16171830Y8794351D01*
G01X16150647Y8800027D01*
G01X16128799Y8801938D01*
G01X16106952Y8800027D01*
G01X16085768Y8794351D01*
G01X16065892Y8785082D01*
G01X16047928Y8772503D01*
G01X16032420Y8756996D01*
G01X16019841Y8739031D01*
G01X16010573Y8719155D01*
G01X16004897Y8697972D01*
G01X16002986Y8676124D01*
G01X16002986Y8676124D01*
G01X15387574Y8676124D01*
G01X15387574Y9052560D01*
G01X15389326Y9070350D01*
G01X15394515Y9087455D01*
G01X15402942Y9103220D01*
G01X15414282Y9117038D01*
G01X15428100Y9128378D01*
G01X15443865Y9136805D01*
G01X15460970Y9141994D01*
G01X15478760Y9143746D01*
G37*
G36*
G01X17751522Y3180771D02*
G01X17764865Y3188923D01*
G01X17775928Y3199972D01*
G01X17784096Y3213305D01*
G01X17788915Y3228179D01*
G01X17790118Y3243769D01*
G01X17787638Y3259207D01*
G01X17781611Y3273634D01*
G01X17772374Y3286250D01*
G01X17772374Y3286526D01*
G01X17902430Y3286526D01*
G01X17914071Y3277850D01*
G01X17927320Y3271916D01*
G01X17941543Y3269007D01*
G01X17956059Y3269262D01*
G01X17970171Y3272671D01*
G01X17983203Y3279068D01*
G01X17994531Y3288149D01*
G01X18003611Y3299476D01*
G01X18010009Y3312509D01*
G01X18013417Y3326621D01*
G01X18013673Y3341136D01*
G01X18010764Y3355360D01*
G01X18004830Y3368609D01*
G01X17996154Y3380250D01*
G01X17996154Y3591731D01*
G01X18020470Y3567415D01*
G01X18030517Y3559706D01*
G01X18042218Y3554859D01*
G01X18054774Y3553206D01*
G01X18119886Y3553206D01*
G01X18119886Y3182395D01*
G01X18106281Y3185140D01*
G01X18092404Y3184993D01*
G01X18078861Y3181961D01*
G01X18066245Y3176177D01*
G01X18055110Y3167893D01*
G01X18045943Y3157474D01*
G01X17640554Y3157474D01*
G01X17640554Y3195830D01*
G01X17649023Y3207121D01*
G01X17654911Y3219949D01*
G01X17657950Y3233732D01*
G01X17661493Y3218503D01*
G01X17668504Y3204527D01*
G01X17678591Y3192581D01*
G01X17691196Y3183329D01*
G01X17705616Y3177285D01*
G01X17721051Y3174785D01*
G01X17736642Y3175969D01*
G01X17751522Y3180771D01*
G37*
G36*
G01X18750280Y5244846D02*
G01X18762836Y5246499D01*
G01X18774537Y5251346D01*
G01X18784585Y5259055D01*
G01X18793206Y5267677D01*
G01X18793206Y5034055D01*
G01X18786065Y5026914D01*
G01X18297650Y5026914D01*
G01X18285966Y5035615D01*
G01X18272665Y5041555D01*
G01X18258387Y5044447D01*
G01X18243822Y5044152D01*
G01X18229674Y5040684D01*
G01X18216624Y5034210D01*
G01X18205302Y5025043D01*
G01X18196255Y5013625D01*
G01X18189919Y5000507D01*
G01X18186601Y4986323D01*
G01X18186460Y4971756D01*
G01X18189502Y4957509D01*
G01X18195582Y4944271D01*
G01X18204406Y4932680D01*
G01X18195729Y4921332D01*
G01X18189684Y4908389D01*
G01X18186550Y4894451D01*
G01X18186475Y4880166D01*
G01X18189461Y4866196D01*
G01X18195369Y4853189D01*
G01X18203926Y4841750D01*
G01X18203926Y4820920D01*
G01X18205579Y4808364D01*
G01X18210426Y4796663D01*
G01X18218135Y4786615D01*
G01X18228295Y4776455D01*
G01X18238343Y4768746D01*
G01X18250044Y4763899D01*
G01X18262600Y4762246D01*
G01X18476470Y4762246D01*
G01X18481938Y4757674D01*
G01X18170277Y4757674D01*
G01X18170277Y5078609D01*
G01X18472283Y5078609D01*
G01X18484839Y5080262D01*
G01X18496540Y5085108D01*
G01X18506587Y5092818D01*
G01X18527943Y5114174D01*
G01X18535653Y5124221D01*
G01X18540499Y5135922D01*
G01X18542152Y5148478D01*
G01X18542152Y5171950D01*
G01X18551384Y5184556D01*
G01X18557410Y5198973D01*
G01X18559895Y5214399D01*
G01X18558702Y5229978D01*
G01X18553897Y5244846D01*
G01X18750280Y5244846D01*
G37*
G36*
G01X21837713Y6860540D02*
G01X21851623Y6866533D01*
G01X21863810Y6875526D01*
G01X22108670Y6875526D01*
G01X22119842Y6867128D01*
G01X22132527Y6861258D01*
G01X22146160Y6858177D01*
G01X22160136Y6858022D01*
G01X22173834Y6860799D01*
G01X22186646Y6866386D01*
G01X22186646Y6812280D01*
G01X22188299Y6799724D01*
G01X22193146Y6788023D01*
G01X22200855Y6777975D01*
G01X22204502Y6774329D01*
G01X22194733Y6781305D01*
G01X22183551Y6785669D01*
G01X22171640Y6787154D01*
G01X22127043Y6787154D01*
G01X22128753Y6801696D01*
G01X22127229Y6816259D01*
G01X22122547Y6830133D01*
G01X22114934Y6842641D01*
G01X22104762Y6853173D01*
G01X22092526Y6861217D01*
G01X22078823Y6866378D01*
G01X22064322Y6868407D01*
G01X22049729Y6867204D01*
G01X22035755Y6862828D01*
G01X22023083Y6855492D01*
G01X22012330Y6845554D01*
G01X21863810Y6845554D01*
G01X21851623Y6854547D01*
G01X21837713Y6860540D01*
G37*
G36*
G01X20396434Y8074340D02*
G01X20410415Y8080075D01*
G01X20422734Y8088826D01*
G01X20432753Y8100140D01*
G01X20439949Y8113428D01*
G01X20443951Y8128000D01*
G01X20444550Y8143100D01*
G01X20441715Y8157943D01*
G01X20435592Y8171759D01*
G01X20426501Y8183830D01*
G01X20414914Y8193529D01*
G01X20401431Y8200354D01*
G01X20386753Y8203948D01*
G01X20371642Y8204127D01*
G01X20356884Y8200880D01*
G01X20343244Y8194375D01*
G01X20331430Y8184952D01*
G01X20319585Y8194395D01*
G01X20305906Y8200904D01*
G01X20291107Y8204138D01*
G01X20275960Y8203930D01*
G01X20261255Y8200289D01*
G01X20247761Y8193407D01*
G01X20236180Y8183641D01*
G01X20224396Y8193541D01*
G01X20210648Y8200458D01*
G01X20195675Y8204019D01*
G01X20180285Y8204033D01*
G01X20165306Y8200499D01*
G01X20151545Y8193607D01*
G01X20139743Y8183729D01*
G01X20130536Y8171396D01*
G01X20124420Y8157273D01*
G01X20118556Y8170956D01*
G01X20109788Y8182987D01*
G01X20098558Y8192758D01*
G01X20085430Y8199778D01*
G01X20071067Y8203693D01*
G01X20056193Y8204305D01*
G01X20041557Y8201584D01*
G01X20027897Y8195667D01*
G01X20015901Y8186852D01*
G01X20006174Y8175582D01*
G01X19999206Y8162427D01*
G01X19995347Y8148049D01*
G01X19994794Y8133173D01*
G01X19997572Y8118548D01*
G01X20003543Y8104911D01*
G01X20012406Y8092950D01*
G01X20012406Y7837930D01*
G01X20003501Y7825895D01*
G01X19997522Y7812168D01*
G01X19994775Y7797451D01*
G01X19995399Y7782492D01*
G01X19999364Y7768054D01*
G01X20006466Y7754874D01*
G01X19779234Y7754874D01*
G01X19779234Y8285480D01*
G01X19777581Y8298036D01*
G01X19772734Y8309737D01*
G01X19765025Y8319785D01*
G01X19747064Y8337745D01*
G01X19737016Y8345455D01*
G01X19725316Y8350302D01*
G01X19712759Y8351955D01*
G01X19489674Y8351955D01*
G01X19489674Y8479745D01*
G01X19495915Y8472502D01*
G01X19503133Y8466232D01*
G01X19498244Y8451804D01*
G01X19496777Y8436642D01*
G01X19498810Y8421544D01*
G01X19504233Y8407309D01*
G01X19512762Y8394686D01*
G01X19523947Y8384344D01*
G01X19537196Y8376826D01*
G01X19551812Y8372530D01*
G01X19567022Y8371683D01*
G01X19582024Y8374329D01*
G01X19596026Y8380329D01*
G01X19608290Y8389366D01*
G01X19793966Y8389366D01*
G01X19793966Y8298160D01*
G01X19795619Y8285604D01*
G01X19800466Y8273903D01*
G01X19808175Y8263855D01*
G01X19833575Y8238455D01*
G01X19843623Y8230746D01*
G01X19855324Y8225899D01*
G01X19867880Y8224246D01*
G01X21053806Y8224246D01*
G01X21053806Y5379030D01*
G01X21043063Y5367162D01*
G01X21035478Y5353065D01*
G01X21031491Y5337561D01*
G01X21031336Y5321554D01*
G01X20924593Y5321554D01*
G01X20924593Y7328081D01*
G01X20922940Y7340637D01*
G01X20918094Y7352338D01*
G01X20910384Y7362385D01*
G01X20887705Y7385065D01*
G01X20877657Y7392774D01*
G01X20865956Y7397621D01*
G01X20853400Y7399274D01*
G01X20639530Y7399274D01*
G01X20627159Y7408372D01*
G01X20613026Y7414381D01*
G01X20597891Y7416978D01*
G01X20582564Y7416024D01*
G01X20567867Y7411570D01*
G01X20554589Y7403854D01*
G01X20543442Y7393292D01*
G01X20535023Y7380449D01*
G01X20529784Y7366013D01*
G01X20528006Y7350760D01*
G01X20529784Y7335507D01*
G01X20535023Y7321071D01*
G01X20543442Y7308228D01*
G01X20554589Y7297666D01*
G01X20567867Y7289950D01*
G01X20582564Y7285496D01*
G01X20597891Y7284542D01*
G01X20613026Y7287139D01*
G01X20627159Y7293148D01*
G01X20639530Y7302246D01*
G01X20827565Y7302246D01*
G01X20827565Y5291001D01*
G01X20829218Y5278444D01*
G01X20834065Y5266744D01*
G01X20841775Y5256696D01*
G01X20859735Y5238735D01*
G01X20867784Y5232245D01*
G01X20877024Y5227608D01*
G01X20887038Y5225034D01*
G01X20767294Y5225034D01*
G01X20767294Y5263390D01*
G01X20776392Y5275761D01*
G01X20782401Y5289894D01*
G01X20784998Y5305029D01*
G01X20784044Y5320356D01*
G01X20779590Y5335053D01*
G01X20771874Y5348331D01*
G01X20761312Y5359478D01*
G01X20748469Y5367897D01*
G01X20734033Y5373136D01*
G01X20718780Y5374914D01*
G01X20703527Y5373136D01*
G01X20689091Y5367897D01*
G01X20676248Y5359478D01*
G01X20665686Y5348331D01*
G01X20657970Y5335053D01*
G01X20653516Y5320356D01*
G01X20652562Y5305029D01*
G01X20655159Y5289894D01*
G01X20661168Y5275761D01*
G01X20670266Y5263390D01*
G01X20670266Y5194300D01*
G01X20670863Y5186714D01*
G01X20672639Y5179314D01*
G01X20512530Y5179314D01*
G01X20500159Y5188412D01*
G01X20486026Y5194421D01*
G01X20470891Y5197018D01*
G01X20455564Y5196064D01*
G01X20440867Y5191610D01*
G01X20427589Y5183894D01*
G01X20416442Y5173332D01*
G01X20408023Y5160489D01*
G01X20402784Y5146053D01*
G01X20401006Y5130800D01*
G01X20402784Y5115547D01*
G01X20408023Y5101111D01*
G01X20416442Y5088268D01*
G01X20427589Y5077706D01*
G01X20440867Y5069990D01*
G01X20455564Y5065536D01*
G01X20470891Y5064582D01*
G01X20486026Y5067179D01*
G01X20500159Y5073188D01*
G01X20512530Y5082286D01*
G01X20939985Y5082286D01*
G01X20947126Y5075145D01*
G01X20947126Y4958363D01*
G01X20925824Y4979665D01*
G01X20915777Y4987375D01*
G01X20904076Y4992221D01*
G01X20891520Y4993874D01*
G01X20403800Y4993874D01*
G01X20396434Y4993312D01*
G01X20396434Y8074340D01*
G37*
G54D10*
G01X15478760Y9143746D02*
G01X19476179Y9143746D01*
G03X19446463Y9096222I36101J-55626D01*
G03X19463766Y9042910I65817J-8102D01*
G01X19463766Y9004594D01*
G01X17754640Y9004594D01*
G03X17720335Y8990384I0J-48514D01*
G01X17699975Y8970025D01*
G03X17685766Y8935720I34305J-34305D01*
G01X17685766Y8453120D01*
G03X17699975Y8418815I48514J0D01*
G01X17723016Y8395775D01*
G03X17757321Y8381565I34305J34305D01*
G01X18666206Y8381565D01*
G01X18666206Y7643316D01*
G03X18584288Y7563510I-17526J-63956D01*
G03X18693890Y7530846I64392J15850D01*
G01X18694400Y7530846D01*
G03X18728705Y7545055I0J48514D01*
G01X18749025Y7565375D01*
G03X18763234Y7599680I-34305J34305D01*
G01X18763234Y8407400D01*
G03X18749025Y8441705I-48514J0D01*
G01X18726345Y8464384D01*
G03X18692041Y8478593I-34305J-34305D01*
G01X17782794Y8478593D01*
G01X17782794Y8690498D01*
G03X17860714Y8716263I22606J62342D01*
G03X17853914Y8798050I-55314J36577D01*
G01X17853914Y8871966D01*
G01X21429726Y8871966D01*
G01X21429726Y8314808D01*
G03X21423464Y8322505I-40567J-26608D01*
G01X21403305Y8342664D01*
G03X21369000Y8356874I-34305J-34305D01*
G01X19972274Y8356874D01*
G01X19972274Y8493760D01*
G03X19958065Y8528065I-48514J0D01*
G01X19932525Y8553604D01*
G03X19898220Y8567814I-34305J-34305D01*
G01X19588110Y8567814D01*
G03X19578938Y8574967I-45210J-48514D01*
G01X20157950Y8574967D01*
G03X20269474Y8623481I45210J48514D01*
G03X20157950Y8671995I-66314J0D01*
G01X19459121Y8671995D01*
G03X19424816Y8657785I0J-48514D01*
G01X19406855Y8639825D01*
G03X19392646Y8605520I34305J-34305D01*
G01X19392646Y8321040D01*
G03X19406855Y8286735I48514J0D01*
G01X19424455Y8269136D01*
G03X19458759Y8254927I34305J34305D01*
G01X19682206Y8254927D01*
G01X19682206Y7721600D01*
G03X19696415Y7687295I48514J0D01*
G01X19711655Y7672055D01*
G03X19745960Y7657846I34305J34305D01*
G01X20066225Y7657846D01*
G01X20073366Y7650705D01*
G01X20073366Y5296154D01*
G01X19745960Y5296154D01*
G03X19711655Y5281945I0J-48514D01*
G01X19695620Y5265909D01*
G03X19681411Y5231605I34305J-34305D01*
G01X19681411Y4481355D01*
G03X19695620Y4447051I48514J0D01*
G01X19699957Y4442714D01*
G01X19285755Y4442714D01*
G01X19285755Y4807613D01*
G03X19374148Y4817802I38565J53947D01*
G03X19372834Y4906770I-49828J43758D01*
G01X19372834Y5070350D01*
G03X19376478Y5156513I-48514J45210D01*
G03X19291910Y5173415I-52158J-40953D01*
G03X19195755Y5187614I-54669J-37535D01*
G03X19188727Y5090670I41487J-51734D01*
G01X19188727Y4420319D01*
G03X19202937Y4386014I48514J0D01*
G01X19229055Y4359895D01*
G03X19263360Y4345686I34305J34305D01*
G01X20436840Y4345686D01*
G03X20471145Y4359895I0J48514D01*
G01X20496545Y4385295D01*
G03X20510754Y4419600I-34305J34305D01*
G01X20510754Y4836850D01*
G03X20532893Y4896846I-43434J50110D01*
G01X20865866Y4896846D01*
G01X20865866Y4828520D01*
G03X20880075Y4794216I48514J0D01*
G01X20905436Y4768855D01*
G03X20939740Y4754646I34305J34305D01*
G01X22557486Y4754646D01*
G01X22557486Y4505989D01*
G03X22464270Y4508754I-48006J-45749D01*
G01X21793200Y4508754D01*
G03X21758895Y4494545I0J-48514D01*
G01X21738575Y4474225D01*
G03X21724366Y4439920I34305J-34305D01*
G01X21724366Y2687095D01*
G01X21361625Y2324354D01*
G01X17086834Y2324354D01*
G01X17086834Y3358778D01*
G03X17190030Y3355086I53086J39742D01*
G01X17313150Y3355086D01*
G03X17424674Y3403600I45210J48514D01*
G03X17313150Y3452114I-66314J0D01*
G01X17178974Y3452114D01*
G03X17086834Y3438262I-39054J-53594D01*
G01X17086834Y3449830D01*
G03X17038320Y3561354I-48514J45210D01*
G03X16989806Y3449830I0J-66314D01*
G01X16989806Y2301240D01*
G03X17004015Y2266935I48514J0D01*
G01X17029415Y2241535D01*
G03X17063720Y2227326I34305J34305D01*
G01X21381720Y2227326D01*
G03X21416025Y2241535I0J48514D01*
G01X21807185Y2632695D01*
G03X21821394Y2667000I-34305J34305D01*
G01X21821394Y4411726D01*
G01X22464270Y4411726D01*
G03X22557486Y4414491I45210J48514D01*
G01X22557486Y4132834D01*
G01X21945954Y4132834D01*
G03X21834430Y4084320I-45210J-48514D01*
G03X21945954Y4035806I66314J0D01*
G01X22580600Y4035806D01*
G03X22614905Y4050015I0J48514D01*
G01X22640305Y4075415D01*
G03X22654514Y4109720I-34305J34305D01*
G01X22654514Y4785360D01*
G03X22640305Y4819665I-48514J0D01*
G01X22622505Y4837464D01*
G03X22588200Y4851674I-34305J-34305D01*
G01X21060243Y4851674D01*
G03X21044154Y4911850I-64603J14966D01*
G01X21044154Y5095240D01*
G03X21031417Y5128006I-48514J0D01*
G01X22799265Y5128006D01*
G01X22806406Y5120865D01*
G01X22806406Y3941570D01*
G03X22854920Y3830046I48514J-45210D01*
G03X22903434Y3941570I0J66314D01*
G01X22903434Y5140960D01*
G03X22889225Y5175265I-48514J0D01*
G01X22853665Y5210825D01*
G03X22819360Y5225034I-34305J-34305D01*
G01X22401911Y5225034D01*
G03X22419344Y5236215I-16872J45486D01*
G01X22439464Y5256335D01*
G03X22453673Y5290639I-34305J34305D01*
G01X22453673Y6265926D01*
G01X22657310Y6265926D01*
G03X22768834Y6314440I45210J48514D01*
G03X22657310Y6362954I-66314J0D01*
G01X22423120Y6362954D01*
G03X22388815Y6348745I0J-48514D01*
G01X22370855Y6330784D01*
G03X22356645Y6296479I34305J-34305D01*
G01X22356645Y5319034D01*
G01X21162813Y5319034D01*
G03X21150834Y5367974I-65573J9886D01*
G01X21150834Y8249920D01*
G03X21149808Y8259846I-48514J0D01*
G01X21340645Y8259846D01*
G01X21340645Y8112960D01*
G03X21354855Y8078656I48514J0D01*
G01X21372815Y8060695D01*
G03X21407120Y8046486I34305J34305D01*
G01X22516846Y8046486D01*
G01X22516846Y8010645D01*
G03X22565360Y7899121I48514J-45210D01*
G03X22613874Y8010645I0J66314D01*
G01X22613874Y8077200D01*
G03X22599665Y8111505I-48514J0D01*
G01X22581865Y8129304D01*
G03X22547560Y8143514I-34305J-34305D01*
G01X21543813Y8143514D01*
G03X21526754Y8198610I-65573J9886D01*
G01X21526754Y8900160D01*
G03X21512545Y8934465I-48514J0D01*
G01X21492225Y8954785D01*
G03X21457920Y8968994I-34305J-34305D01*
G01X19560740Y8968994D01*
G01X19560794Y8971280D01*
G01X19560794Y9039606D01*
G01X21717225Y9039606D01*
G01X21724366Y9032465D01*
G01X21724366Y8554210D01*
G03X21725989Y8462109I48514J-45210D01*
G03X21818090Y8460486I46891J46891D01*
G01X22077680Y8460486D01*
G03X22111985Y8474695I0J48514D01*
G01X22142465Y8505175D01*
G03X22156674Y8539480I-34305J34305D01*
G01X22156674Y8575550D01*
G03X22108160Y8687074I-48514J45210D01*
G03X22059646Y8575550I0J-66314D01*
G01X22059646Y8559575D01*
G01X22057585Y8557514D01*
G01X21821394Y8557514D01*
G01X21821394Y9052560D01*
G03X21807185Y9086865I-48514J0D01*
G01X21771625Y9122425D01*
G03X21737320Y9136634I-34305J-34305D01*
G01X19557490Y9136634D01*
G03X19548381Y9143746I-45210J-48514D01*
G01X23195280Y9143746D01*
G02X23286466Y9052560I0J-91186D01*
G01X23286466Y2306320D01*
G02X23195280Y2215134I-91186J0D01*
G01X15478760Y2215134D01*
G02X15387574Y2306320I0J91186D01*
G01X15387574Y9052560D01*
G02X15478760Y9143746I91186J0D01*
G01X15853990Y4366514D02*
G03X15737992Y4330588I-50110J-43434D01*
G03X15842934Y4269486I65888J-7508D01*
G01X16891000Y4269486D01*
G03X16925305Y4283695I0J48514D01*
G01X16935465Y4293855D01*
G03X16949674Y4328160I-34305J34305D01*
G01X16949674Y4506470D01*
G03X16901160Y4617994I-48514J45210D01*
G03X16852646Y4506470I0J-66314D01*
G01X16852646Y4366514D01*
G01X15853990Y4366514D01*
G01X16002986Y8676124D02*
G01X16002986Y8456125D01*
G03X16254613Y8456125I125814J0D01*
G01X16254613Y8676124D01*
G03X16002986Y8676124I-125814J0D01*
G01X16210280Y5113274D02*
G03X16175975Y5099065I0J-48514D01*
G01X16157129Y5080218D01*
G03X16142919Y5045913I34305J-34305D01*
G01X16142919Y5002214D01*
G03X16147999Y4917950I53594J-39054D01*
G01X16147999Y4829607D01*
G03X16162209Y4795302I48514J0D01*
G01X16186135Y4771375D01*
G03X16220440Y4757166I34305J34305D01*
G01X16855411Y4757166D01*
G03X16852899Y4663680I45749J-48006D01*
G03X16946370Y4660646I48261J45480D01*
G01X17330166Y4660646D01*
G01X17330166Y4450109D01*
G03X17236950Y4452874I-48006J-45749D01*
G01X17109440Y4452874D01*
G03X17075135Y4438665I0J-48514D01*
G01X17054815Y4418345D01*
G03X17040606Y4384040I34305J-34305D01*
G01X17040606Y4132834D01*
G01X16946370Y4132834D01*
G03X16834846Y4084320I-45210J-48514D01*
G03X16946370Y4035806I66314J0D01*
G01X17068800Y4035806D01*
G03X17103105Y4050015I0J48514D01*
G01X17123425Y4070335D01*
G03X17137634Y4104640I-34305J34305D01*
G01X17137634Y4355846D01*
G01X17236950Y4355846D01*
G03X17330166Y4358611I45210J48514D01*
G01X17330166Y3596640D01*
G03X17344375Y3562335I48514J0D01*
G01X17369645Y3537066D01*
G03X17403949Y3522857I34305J34305D01*
G01X17810990Y3522857D01*
G03X17899126Y3520824I45210J48514D01*
G01X17899126Y3383554D01*
G01X17741920Y3383554D01*
G03X17707615Y3369344I0J-48514D01*
G01X17689556Y3351285D01*
G03X17675346Y3316980I34305J-34305D01*
G01X17675346Y3286250D01*
G03X17657950Y3248348I48514J-45210D01*
G03X17564378Y3301309I-65910J-7308D01*
G03X17543526Y3195830I27662J-60269D01*
G01X17543526Y3124200D01*
G03X17557735Y3089895I48514J0D01*
G01X17572975Y3074655D01*
G03X17607280Y3060446I34305J34305D01*
G01X18069138Y3060446D01*
G03X18145250Y3070606I30902J58674D01*
G01X18150840Y3070606D01*
G03X18155485Y3070829I0J48514D01*
G01X18155485Y2712720D01*
G03X18169695Y2678415I48514J0D01*
G01X18195095Y2653015D01*
G03X18229399Y2638806I34305J34305D01*
G01X20441920Y2638806D01*
G03X20476225Y2653015I0J48514D01*
G01X20496545Y2673335D01*
G03X20505166Y2685035I-34305J34305D01*
G01X20505166Y2656751D01*
G03X20553680Y2545227I48514J-45210D01*
G03X20602194Y2656751I0J66314D01*
G01X20602194Y2829560D01*
G03X20587985Y2863865I-48514J0D01*
G01X20562585Y2889265D01*
G03X20528280Y2903474I-34305J-34305D01*
G01X18699255Y2903474D01*
G01X18661834Y2940895D01*
G01X18661834Y3815590D01*
G03X18613320Y3927114I-48514J45210D01*
G03X18564806Y3815590I0J-66314D01*
G01X18564806Y2920800D01*
G03X18579016Y2886495I48514J0D01*
G01X18644855Y2820655D01*
G03X18679160Y2806446I34305J34305D01*
G01X20411694Y2806446D01*
G03X20396544Y2772556I50546J-42926D01*
G03X20401982Y2735834I65696J-9036D01*
G01X18252513Y2735834D01*
G01X18252513Y2814552D01*
G03X18373917Y2816002I60328J32051D01*
G03X18541657Y2841540I81926J25538D01*
G01X18541657Y2951540D01*
G03X18370029Y2951540I-85814J0D01*
G01X18370029Y2883970D01*
G03X18252513Y2878654I-57188J-37366D01*
G01X18252513Y3593826D01*
G03X18238304Y3628131I-48514J0D01*
G01X18194850Y3671585D01*
G03X18160546Y3685794I-34305J-34305D01*
G01X18095234Y3685794D01*
G01X18095234Y4691077D01*
G01X18111455Y4674855D01*
G03X18145760Y4660646I34305J34305D01*
G01X18686526Y4660646D01*
G01X18686526Y3048000D01*
G03X18700735Y3013695I48514J0D01*
G01X18744096Y2970335D01*
G03X18778401Y2956125I34305J34305D01*
G01X20317279Y2956125D01*
G03X20351584Y2970335I0J48514D01*
G01X20374625Y2993375D01*
G03X20388834Y3027680I-34305J34305D01*
G01X20388834Y3109470D01*
G03X20340320Y3220994I-48514J45210D01*
G03X20291806Y3109470I0J-66314D01*
G01X20291806Y3053153D01*
G01X18798496Y3053153D01*
G01X18783554Y3068095D01*
G01X18783554Y4686280D01*
G03X18769345Y4720585I-48514J0D01*
G01X18746465Y4743465D01*
G03X18712160Y4757674I-34305J-34305D01*
G01X18561422Y4757674D01*
G03X18572554Y4853298I-39742J53086D01*
G03X18476470Y4859274I-50874J-42538D01*
G01X18312698Y4859274D01*
G03X18302986Y4929886I-60258J27686D01*
G01X18806160Y4929886D01*
G03X18840465Y4944095I0J48514D01*
G01X18876025Y4979655D01*
G03X18890234Y5013960I-34305J34305D01*
G01X18890234Y5816600D01*
G03X18876025Y5850905I-48514J0D01*
G01X18848065Y5878864D01*
G03X18813760Y5893074I-34305J-34305D01*
G01X17737074Y5893074D01*
G01X17737074Y8168865D01*
G01X17749346Y8181137D01*
G01X17749979Y8181137D01*
G03X17861503Y8229651I45210J48514D01*
G03X17749979Y8278165I-66314J0D01*
G01X17729251Y8278165D01*
G03X17694946Y8263955I0J-48514D01*
G01X17654255Y8223265D01*
G03X17640046Y8188960I34305J-34305D01*
G01X17640046Y5857240D01*
G03X17654255Y5822935I48514J0D01*
G01X17666936Y5810255D01*
G03X17701240Y5796046I34305J34305D01*
G01X18717561Y5796046D01*
G03X18727166Y5736906I63199J-20086D01*
G01X18727166Y5459574D01*
G03X18644110Y5453634I-37846J-54454D01*
G01X18155230Y5453634D01*
G03X18039232Y5417708I-50110J-43434D01*
G03X18144174Y5356606I65888J-7508D01*
G01X18644110Y5356606D01*
G03X18669383Y5341874I45210J48514D01*
G01X18364200Y5341874D01*
G03X18329895Y5327665I0J-48514D01*
G01X18308394Y5306163D01*
G03X18294185Y5271859I34305J-34305D01*
G01X18294185Y5256299D01*
G03X18286657Y5175637I48514J-45210D01*
G01X18142083Y5175637D01*
G03X18107778Y5161427I0J-48514D01*
G01X18090324Y5143973D01*
G03X18081024Y5157011I-43604J-21267D01*
G01X18024114Y5213921D01*
G01X18024114Y5481915D01*
G03X18009904Y5516219I-48514J0D01*
G01X17979658Y5546466D01*
G03X17945353Y5560675I-34305J-34305D01*
G01X17899634Y5560675D01*
G01X17899634Y5658841D01*
G03X17842045Y5765853I-52184J40919D01*
G03X17802606Y5650907I5404J-66093D01*
G01X17802606Y5531071D01*
G03X17816815Y5496767I48514J0D01*
G01X17835726Y5477856D01*
G03X17870030Y5463647I34305J34305D01*
G01X17925258Y5463647D01*
G01X17927086Y5461819D01*
G01X17927086Y5260603D01*
G01X17926065Y5261625D01*
G03X17891760Y5275834I-34305J-34305D01*
G01X17258770Y5275834D01*
G03X17147246Y5227320I-45210J-48514D01*
G03X17258770Y5178806I66314J0D01*
G01X17871665Y5178806D01*
G01X17962606Y5087865D01*
G01X17962606Y3655363D01*
G01X17953894Y3664075D01*
G03X17919589Y3678285I-34305J-34305D01*
G01X17462794Y3678285D01*
G01X17462794Y4978400D01*
G03X17448584Y5012705I-48514J0D01*
G01X17428264Y5033025D01*
G03X17393960Y5047234I-34305J-34305D01*
G01X17261330Y5047234D01*
G03X17149806Y4998720I-45210J-48514D01*
G03X17261330Y4950206I66314J0D01*
G01X17365766Y4950206D01*
G01X17365766Y4757105D01*
G03X17358360Y4757674I-7406J-47945D01*
G01X17170429Y4757674D01*
G03X17172941Y4851160I-45749J48006D01*
G03X17079470Y4854194I-48261J-45480D01*
G01X16245027Y4854194D01*
G01X16245027Y4917950D01*
G03X16239947Y5013270I-48514J45210D01*
G01X16239947Y5016246D01*
G01X16830040Y5016246D01*
G03X16864345Y5030455I0J48514D01*
G01X16892304Y5058415D01*
G03X16906514Y5092720I-34305J34305D01*
G01X16906514Y5243997D01*
G03X16978892Y5275412I14966J64603D01*
G03X16969994Y5353810I-57412J33188D01*
G01X16969994Y6669786D01*
G01X17480790Y6669786D01*
G03X17576131Y6674890I45210J48514D01*
G03X17567551Y6769982I-50131J43410D01*
G01X17580625Y6783055D01*
G03X17594834Y6817360I-34305J34305D01*
G01X17594834Y8016750D01*
G03X17546320Y8128274I-48514J45210D01*
G03X17497806Y8016750I0J-66314D01*
G01X17497806Y6837455D01*
G01X17485585Y6825234D01*
G01X16885920Y6825234D01*
G03X16851615Y6811025I0J-48514D01*
G01X16823695Y6783104D01*
G03X16809486Y6748800I34305J-34305D01*
G01X16809486Y5113274D01*
G01X16210280Y5113274D01*
G01X16338799Y7960302D02*
G01X16558798Y7960302D01*
G03X16558798Y8211929I0J125814D01*
G01X16338799Y8211929D01*
G03X16338799Y7960302I0J-125814D01*
G01X16612984Y8676124D02*
G01X16612984Y8456125D01*
G03X16864612Y8456125I125814J0D01*
G01X16864612Y8676124D01*
G03X16612984Y8676124I-125814J0D01*
G01X17185589Y6832326D02*
G03X17234103Y6943850I0J66314D01*
G01X17234103Y7127750D01*
G03X17185589Y7239274I-48514J45210D01*
G03X17137075Y7127750I0J-66314D01*
G01X17137075Y6943850D01*
G03X17185589Y6832326I48514J-45210D01*
G01X17803041Y2842702D02*
G03X17677651Y2883970I-68202J3901D01*
G01X17677651Y2951540D01*
G03X17506023Y2951540I-85814J0D01*
G01X17506023Y2841540D01*
G03X17673763Y2816002I85814J0D01*
G03X17803041Y2842702I61076J30601D01*
G01X17506023Y2521555D02*
G01X17506023Y2441555D01*
G03X17677651Y2441555I85814J0D01*
G01X17677651Y2521555D01*
G03X17506023Y2521555I-85814J0D01*
G01X17937713Y7525816D02*
G03X17824549Y7570371I-66273J-2336D01*
G03X17869104Y7457207I46891J-46891D01*
G01X17964135Y7362175D01*
G03X17998440Y7347966I34305J34305D01*
G01X18972002Y7347966D01*
G03X19008073Y7243359I52598J-40386D01*
G03X18974310Y7226554I11447J-65319D01*
G01X18049240Y7226554D01*
G03X18014935Y7212345I0J-48514D01*
G01X17990945Y7188354D01*
G03X17976736Y7154050I34305J-34305D01*
G01X17976736Y6019290D01*
G03X18025250Y5907766I48514J-45210D01*
G03X18073764Y6019290I0J66314D01*
G01X18073764Y7129526D01*
G01X18226757Y7129526D01*
G01X18223215Y7125985D01*
G03X18209006Y7091680I34305J-34305D01*
G01X18209006Y6019290D01*
G03X18257520Y5907766I48514J-45210D01*
G03X18306034Y6019290I0J66314D01*
G01X18306034Y7066047D01*
G01X18473158Y7066047D01*
G01X18467055Y7059945D01*
G03X18452846Y7025640I34305J-34305D01*
G01X18452846Y6207250D01*
G03X18501360Y6095726I48514J-45210D01*
G03X18549874Y6207250I0J66314D01*
G01X18549874Y7002526D01*
G01X18979390Y7002526D01*
G03X18998496Y6990080I45210J48514D01*
G03X18976086Y6883910I26104J-60960D01*
G01X18976086Y6034815D01*
G01X18963865Y6022594D01*
G01X18536410Y6022594D01*
G03X18424886Y5974080I-45210J-48514D01*
G03X18536410Y5925566I66314J0D01*
G01X18983960Y5925566D01*
G03X19018265Y5939775I0J48514D01*
G01X19058905Y5980415D01*
G03X19073114Y6014720I-34305J34305D01*
G01X19073114Y6883910D01*
G03X19050704Y6990080I-48514J45210D01*
G03X19083755Y7021069I-26104J60960D01*
G03X19089194Y7066047I-59155J29971D01*
G01X19095762Y7066047D01*
G03X19130066Y7080256I0J48514D01*
G01X19145264Y7095454D01*
G03X19159474Y7129759I-34304J34305D01*
G01X19159474Y7287281D01*
G03X19145265Y7321586I-48514J0D01*
G01X19124966Y7341885D01*
G03X19117542Y7347966I-34305J-34305D01*
G01X19674625Y7347966D01*
G03X19787933Y7304031I66255J2794D01*
G03X19743216Y7417033I-47053J46729D01*
G01X19729465Y7430785D01*
G03X19695160Y7444994I-34305J-34305D01*
G01X18018535Y7444994D01*
G01X17937713Y7525816D01*
G01X18370029Y2521555D02*
G01X18370029Y2441555D01*
G03X18541657Y2441555I85814J0D01*
G01X18541657Y2521555D01*
G03X18370029Y2521555I-85814J0D01*
G01X19072606Y4292600D02*
G03X19086815Y4258295I48514J0D01*
G01X19117295Y4227815D01*
G03X19151600Y4213606I34305J34305D01*
G01X19436590Y4213606D01*
G03X19548114Y4262120I45210J48514D01*
G03X19436590Y4310634I-66314J0D01*
G01X19171695Y4310634D01*
G01X19169634Y4312695D01*
G01X19169634Y5283425D01*
G01X19174215Y5288006D01*
G01X19296868Y5288006D01*
G03X19410851Y5330297I47772J45994D01*
G03X19302295Y5385034I-66211J3703D01*
G01X19154120Y5385034D01*
G03X19119816Y5370825I0J-48514D01*
G01X19086815Y5337825D01*
G03X19072606Y5303520I34305J-34305D01*
G01X19072606Y4292600D01*
G01X22155912Y5881878D02*
G03X22190217Y5896088I0J48514D01*
G01X22213116Y5918987D01*
G03X22227326Y5953292I-34305J34305D01*
G01X22227326Y5974093D01*
G03X22227360Y6065471I-48046J45707D01*
G03X22136100Y6070129I-48080J-45671D01*
G03X22062839Y6078899I-43180J-50329D01*
G03X22026818Y6014506I30081J-59099D01*
G01X21450554Y6014506D01*
G01X21450554Y6279390D01*
G03X21445973Y6374274I-48514J45210D01*
G03X21351240Y6367225I-43933J-49674D01*
G03X21256507Y6374274I-50800J-42625D01*
G03X21251926Y6279390I43933J-49674D01*
G01X21251926Y5953760D01*
G03X21266135Y5919455I48514J0D01*
G01X21289503Y5896088D01*
G03X21323808Y5881878I34305J34305D01*
G01X22155912Y5881878D01*
G01X22057870Y7821925D02*
G03X22169394Y7870439I45210J48514D01*
G03X22057870Y7918953I-66314J0D01*
G01X21523960Y7918953D01*
G03X21489655Y7904743I0J-48514D01*
G01X21475904Y7890992D01*
G03X21431187Y7777990I2336J-66273D01*
G03X21544495Y7821925I47053J46729D01*
G01X22057870Y7821925D01*
G01X21505926Y6187440D02*
G03X21520135Y6153135I48514J0D01*
G01X21535375Y6137895D01*
G03X21569680Y6123686I34305J34305D01*
G01X21773390Y6123686D01*
G03X21833500Y6107582I45210J48514D01*
G03X21880489Y6148382I-14900J64618D01*
G01X21883536Y6145335D01*
G03X21917841Y6131125I34305J34305D01*
G01X22217199Y6131125D01*
G03X22251504Y6145335I0J48514D01*
G01X22264385Y6158215D01*
G03X22278594Y6192520I-34305J34305D01*
G01X22278594Y6471503D01*
G03X22287197Y6550406I-48514J45210D01*
G01X22407880Y6550406D01*
G03X22442185Y6564615I0J48514D01*
G01X22470305Y6592736D01*
G03X22484515Y6627041I-34305J34305D01*
G01X22484515Y6768919D01*
G03X22470305Y6803224I-48514J0D01*
G01X22452345Y6821185D01*
G03X22418040Y6835394I-34305J-34305D01*
G01X22283674Y6835394D01*
G01X22283674Y6878830D01*
G03X22297109Y6947701I-48514J45210D01*
G03X22241183Y6990080I-61949J-23661D01*
G03X22295555Y7083506I-6023J66040D01*
G03X22189451Y7104164I-60395J-27386D01*
G01X21864309Y7104164D01*
G03X21758205Y7083506I-45709J-48044D01*
G03X21812577Y6990080I60395J-27386D01*
G03X21752622Y6930707I6023J-66040D01*
G03X21799487Y6860540I65978J-6667D01*
G03X21753027Y6787154I19113J-63500D01*
G01X21567160Y6787154D01*
G03X21532855Y6772944I0J-48514D01*
G01X21520135Y6760225D01*
G03X21505926Y6725920I34305J-34305D01*
G01X21505926Y6187440D01*
G01X21721806Y7686040D02*
G03X21833330Y7637526I66314J0D01*
G01X22017230Y7637526D01*
G03X22128754Y7686040I45210J48514D01*
G03X22017230Y7734554I-66314J0D01*
G01X21833330Y7734554D01*
G03X21721806Y7686040I-45210J-48514D01*
G01X22572726Y6786370D02*
G03X22642682Y6678408I48514J-45210D01*
G03X22646085Y6586981I49678J-43928D01*
G03X22737570Y6585966I46275J47499D01*
G01X22809263Y6585966D01*
G01X22809263Y5920994D01*
G01X22737570Y5920994D01*
G03X22626046Y5872480I-45210J-48514D01*
G03X22737570Y5823966I66314J0D01*
G01X22839680Y5823966D01*
G03X22873985Y5838175I0J48514D01*
G01X22892081Y5856272D01*
G03X22906291Y5890577I-34305J34305D01*
G01X22906291Y6171748D01*
G03X22992499Y6185960I34989J56332D01*
G03X22989794Y6273290I-51219J42120D01*
G01X22989794Y7032503D01*
G03X23002860Y7128475I-38354J54097D01*
G03X22906230Y7135114I-51420J-41875D01*
G01X22867874Y7135114D01*
G01X22867874Y7478270D01*
G03X22819360Y7589794I-48514J45210D01*
G03X22770846Y7478270I0J-66314D01*
G01X22770846Y7101840D01*
G03X22785055Y7067535I48514J0D01*
G01X22800295Y7052295D01*
G03X22834600Y7038086I34305J34305D01*
G01X22892766Y7038086D01*
G01X22892766Y6649989D01*
G01X22892081Y6650688D01*
G01X22873985Y6668785D01*
G03X22839680Y6682994I-34305J-34305D01*
G01X22740874Y6682994D01*
G01X22740874Y7584950D01*
G03X22692360Y7696474I-48514J45210D01*
G03X22643846Y7584950I0J-66314D01*
G01X22643846Y7539003D01*
G01X22625065Y7557785D01*
G03X22590760Y7571994I-34305J-34305D01*
G01X22280370Y7571994D01*
G03X22168846Y7523480I-45210J-48514D01*
G03X22280370Y7474966I66314J0D01*
G01X22570665Y7474966D01*
G01X22572726Y7472905D01*
G01X22572726Y6786370D01*
G01X23185120Y6019526D02*
G03X23233634Y6131050I0J66314D01*
G01X23233634Y7244080D01*
G03X23219425Y7278385I-48514J0D01*
G01X23178785Y7319025D01*
G03X23144480Y7333234I-34305J-34305D01*
G01X23001550Y7333234D01*
G03X22885552Y7297308I-50110J-43434D01*
G03X22990494Y7236206I65888J-7508D01*
G01X23124385Y7236206D01*
G01X23136606Y7223985D01*
G01X23136606Y6131050D01*
G03X23185120Y6019526I48514J-45210D01*
G01X23009606Y6060440D02*
G01X23009606Y6029450D01*
G03X23058120Y5917926I48514J-45210D01*
G03X23106634Y6029450I0J66314D01*
G01X23106634Y6053860D01*
G03X23107157Y6060963I-47991J7103D01*
G01X23107157Y6482590D01*
G03X23058643Y6594114I-48514J45210D01*
G03X23010129Y6482590I0J-66314D01*
G01X23010129Y6067543D01*
G03X23009606Y6060440I47991J-7103D01*
G01X17751522Y3180771D02*
G03X17772374Y3286250I-27662J60269D01*
G01X17772374Y3286526D01*
G01X17902430Y3286526D01*
G03X17994531Y3288149I45210J48514D01*
G03X17996154Y3380250I-46891J46891D01*
G01X17996154Y3591731D01*
G01X18020470Y3567415D01*
G03X18054774Y3553206I34305J34305D01*
G01X18119886Y3553206D01*
G01X18119886Y3182395D01*
G03X18045943Y3157474I-19846J-63275D01*
G01X17640554Y3157474D01*
G01X17640554Y3195830D01*
G03X17657950Y3233732I-48514J45210D01*
G03X17751522Y3180771I65910J7308D01*
G01X18750280Y5244846D02*
G03X18784585Y5259055I0J48514D01*
G01X18793206Y5267677D01*
G01X18793206Y5034055D01*
G01X18786065Y5026914D01*
G01X18297650Y5026914D01*
G03X18205302Y5025043I-45210J-48514D01*
G03X18204406Y4932680I47138J-46643D01*
G03X18203926Y4841750I48034J-45720D01*
G01X18203926Y4820920D01*
G03X18218135Y4786615I48514J0D01*
G01X18228295Y4776455D01*
G03X18262600Y4762246I34305J34305D01*
G01X18476470Y4762246D01*
G03X18481938Y4757674I45210J48514D01*
G01X18170277Y4757674D01*
G01X18170277Y5078609D01*
G01X18472283Y5078609D01*
G03X18506587Y5092818I0J48514D01*
G01X18527943Y5114174D01*
G03X18542152Y5148478I-34305J34305D01*
G01X18542152Y5171950D01*
G03X18553897Y5244846I-48514J45210D01*
G01X18750280Y5244846D01*
G01X21837713Y6860540D02*
G03X21863810Y6875526I-19113J63500D01*
G01X22108670Y6875526D01*
G03X22186646Y6866386I45210J48514D01*
G01X22186646Y6812280D01*
G03X22200855Y6777975I48514J0D01*
G01X22204502Y6774329D01*
G03X22171640Y6787154I-32861J-35689D01*
G01X22127043Y6787154D01*
G03X22092526Y6861217I-64603J14966D01*
G03X22012330Y6845554I-30086J-59097D01*
G01X21863810Y6845554D01*
G03X21837713Y6860540I-45210J-48514D01*
G01X20396434Y8074340D02*
G03X20435592Y8171759I-18014J63820D01*
G03X20331430Y8184952I-57172J-33599D01*
G03X20236180Y8183641I-46990J-46792D01*
G03X20124420Y8157273I-48260J-45481D01*
G03X20027897Y8195667I-63500J-19113D01*
G03X20012406Y8092950I33023J-57507D01*
G01X20012406Y7837930D01*
G03X20006466Y7754874I48514J-45210D01*
G01X19779234Y7754874D01*
G01X19779234Y8285480D01*
G03X19765025Y8319785I-48514J0D01*
G01X19747064Y8337745D01*
G03X19712759Y8351955I-34305J-34305D01*
G01X19489674Y8351955D01*
G01X19489674Y8479745D01*
G03X19503133Y8466232I53226J39555D01*
G03X19523947Y8384344I59947J-28352D01*
G03X19608290Y8389366I39133J53536D01*
G01X19793966Y8389366D01*
G01X19793966Y8298160D01*
G03X19808175Y8263855I48514J0D01*
G01X19833575Y8238455D01*
G03X19867880Y8224246I34305J34305D01*
G01X21053806Y8224246D01*
G01X21053806Y5379030D01*
G03X21031336Y5321554I43434J-50110D01*
G01X20924593Y5321554D01*
G01X20924593Y7328081D01*
G03X20910384Y7362385I-48514J0D01*
G01X20887705Y7385065D01*
G03X20853400Y7399274I-34305J-34305D01*
G01X20639530Y7399274D01*
G03X20528006Y7350760I-45210J-48514D01*
G03X20639530Y7302246I66314J0D01*
G01X20827565Y7302246D01*
G01X20827565Y5291001D01*
G03X20841775Y5256696I48514J0D01*
G01X20859735Y5238735D01*
G03X20887038Y5225034I34305J34305D01*
G01X20767294Y5225034D01*
G01X20767294Y5263390D01*
G03X20718780Y5374914I-48514J45210D01*
G03X20670266Y5263390I0J-66314D01*
G01X20670266Y5194300D01*
G03X20672639Y5179314I48514J0D01*
G01X20512530Y5179314D01*
G03X20401006Y5130800I-45210J-48514D01*
G03X20512530Y5082286I66314J0D01*
G01X20939985Y5082286D01*
G01X20947126Y5075145D01*
G01X20947126Y4958363D01*
G01X20925824Y4979665D01*
G03X20891520Y4993874I-34305J-34305D01*
G01X20403800Y4993874D01*
G03X20396434Y4993312I0J-48514D01*
G01X20396434Y8074340D01*
G54D11*
G01X17542091Y2481555D02*
G01X17516183Y2481555D01*
G01X17641583Y2481555D02*
G01X17667491Y2481555D01*
G01X17591837Y2571300D02*
G01X17591837Y2597208D01*
G01X17591837Y2391809D02*
G01X17591837Y2365901D01*
G01X18406097Y2481555D02*
G01X18380189Y2481555D01*
G01X18505589Y2481555D02*
G01X18531497Y2481555D01*
G01X18455843Y2571300D02*
G01X18455843Y2597208D01*
G01X18455843Y2391809D02*
G01X18455843Y2365901D01*
G01X17542091Y2896540D02*
G01X17516183Y2896540D01*
G01X17641583Y2896540D02*
G01X17667491Y2896540D01*
G01X17591837Y3001286D02*
G01X17591837Y3027194D01*
G01X17591837Y2791794D02*
G01X17591837Y2765886D01*
G01X18406097Y2896540D02*
G01X18380189Y2896540D01*
G01X18505589Y2896540D02*
G01X18531497Y2896540D01*
G01X18455843Y3001286D02*
G01X18455843Y3027194D01*
G01X18455843Y2791794D02*
G01X18455843Y2765886D01*
G01X16648544Y8086115D02*
G01X16674452Y8086115D01*
G01X16249053Y8086115D02*
G01X16223145Y8086115D01*
G01X16448799Y7996370D02*
G01X16448799Y7970462D01*
G01X16448799Y8175861D02*
G01X16448799Y8201769D01*
G04 Copper End*

G04 Pad Start*
G54D12*
G01X18455843Y2481555D03*
G01X17591837Y2481555D03*
G54D13*
G01X18455843Y2896540D03*
G01X17591837Y2896540D03*
G54D14*
G01X16128799Y8566125D03*
G01X16738798Y8566125D03*
G54D15*
G01X16448799Y8086115D03*
G04 Pad End*

G04 Via Start*
G54D17*
G01X16403842Y4063193D03*
G01X18161000Y4399631D03*
G01X16479520Y4554419D03*
G01X16804640Y4085153D03*
G01X16026003Y5582920D03*
G01X17246600Y6019800D03*
G01X18105120Y5410200D03*
G01X17847450Y5699760D03*
G01X20462240Y2763520D03*
G01X17825720Y8001000D03*
G01X17622571Y8747760D03*
G01X18237251Y8752840D03*
G01X22108160Y8620760D03*
G01X21772880Y8509000D03*
G01X18025250Y5974080D03*
G01X19019520Y7178040D03*
G01X17805400Y8752840D03*
G01X21478240Y8153400D03*
G01X20773885Y8742680D03*
G01X22401035Y8864600D03*
G01X21346160Y5369560D03*
G01X17317720Y4805731D03*
G01X18252440Y5068722D03*
G01X17216120Y4998720D03*
G01X17947640Y3335040D03*
G01X17526000Y6718300D03*
G01X16921480Y5308600D03*
G01X17213560Y5227320D03*
G01X18100040Y3119120D03*
G01X17795189Y8229651D03*
G01X18252440Y4978400D03*
G01X22565360Y7965435D03*
G01X19542900Y8519300D03*
G01X19512280Y9088120D03*
G01X18648680Y7579360D03*
G01X18501360Y6162040D03*
G01X19024600Y7051040D03*
G01X17856200Y3571371D03*
G01X16901160Y4709160D03*
G01X17287240Y4264841D03*
G01X16901160Y4551680D03*
G01X15803880Y4323080D03*
G01X18613320Y3860800D03*
G01X16196513Y4963160D03*
G01X17124680Y4805680D03*
G01X16732413Y7035800D03*
G01X17546320Y8061960D03*
G01X22062440Y6802120D03*
G01X21818600Y6797040D03*
G01X21818600Y6924040D03*
G01X22153880Y6924040D03*
G01X21818600Y7056120D03*
G01X22235160Y7056120D03*
G01X22153880Y6802120D03*
G01X21818600Y6172200D03*
G01X22230080Y6680200D03*
G01X21818600Y6294120D03*
G01X22230080Y6597993D03*
G01X22230080Y6516713D03*
G01X21818600Y6421120D03*
G01X22092920Y6416040D03*
G01X21818600Y6543040D03*
G01X22092920Y6334760D03*
G01X21818600Y6644640D03*
G01X20378420Y8138160D03*
G01X19827240Y4869160D03*
G01X20284440Y8138160D03*
G01X20187920Y8138160D03*
G01X20086320Y4871680D03*
G01X20218400Y4871680D03*
G01X19563080Y8437880D03*
G01X21097240Y5328920D03*
G01X19237241Y5135880D03*
G01X20467320Y4886960D03*
G01X18252440Y4886960D03*
G01X18521680Y4810760D03*
G01X19024600Y7307580D03*
G01X18257520Y5974080D03*
G01X20995640Y4866640D03*
G01X20467320Y5130800D03*
G01X22509480Y4460240D03*
G01X19344640Y5334000D03*
G01X21402040Y6324600D03*
G01X22092920Y6019800D03*
G01X21300440Y6324600D03*
G01X22179280Y6019800D03*
G01X22951440Y7289800D03*
G01X23185120Y6085840D03*
G01X23058643Y6527800D03*
G01X23058120Y5984240D03*
G01X22270720Y6019800D03*
G01X22951440Y7086600D03*
G01X22941280Y6228080D03*
G01X20060920Y7792720D03*
G01X20060920Y8138160D03*
G01X22692360Y7630160D03*
G01X22692360Y6634480D03*
G01X18780760Y5775960D03*
G01X18342699Y5211089D03*
G01X20718780Y5308600D03*
G01X22854920Y3896360D03*
G01X19024600Y6929120D03*
G01X18491200Y5974080D03*
G01X18582640Y5638800D03*
G01X20088880Y5110480D03*
G01X19324320Y4861560D03*
G01X19324320Y5115560D03*
G01X22103080Y7870439D03*
G01X21478240Y7824719D03*
G01X21788120Y7686040D03*
G01X22062440Y7686040D03*
G01X21900744Y4084320D03*
G01X18493638Y5217160D03*
G01X20340320Y3154680D03*
G01X22235160Y7523480D03*
G01X22621240Y6741160D03*
G01X22235160Y6924040D03*
G01X22819360Y7523480D03*
G01X22016720Y5481320D03*
G01X20340320Y4455160D03*
G01X20203160Y8623481D03*
G01X16901160Y4084320D03*
G01X18380850Y5635965D03*
G01X18689320Y5405120D03*
G01X21666200Y3967480D03*
G01X21899880Y3967480D03*
G01X20553680Y2611541D03*
G01X17185589Y7172960D03*
G01X17185589Y6898640D03*
G01X22692360Y5872480D03*
G01X17282160Y4404360D03*
G01X17139920Y3398520D03*
G01X17358360Y3403600D03*
G01X16105327Y2346960D03*
G01X16723784Y3906520D03*
G01X21605240Y2306320D03*
G01X20380960Y2357120D03*
G01X17038320Y3495040D03*
G01X22727920Y4627880D03*
G01X22468840Y4627880D03*
G01X22702520Y6314440D03*
G01X20594320Y7350760D03*
G01X19740880Y7350760D03*
G01X17871440Y7523480D03*
G01X17282160Y4546600D03*
G01X21026120Y2865120D03*
G01X17723860Y3241040D03*
G01X17592040Y3241040D03*
G01X17866360Y3256280D03*
G01X18811240Y4391660D03*
G01X17917160Y3860800D03*
G01X17532315Y4264841D03*
G01X18039080Y3256280D03*
G01X18069560Y3484880D03*
G01X18313400Y3484880D03*
G01X22926040Y2316480D03*
G01X21955760Y3891280D03*
G01X22516021Y3891280D03*
G01X19481800Y4262120D03*
G01X20823333Y4343813D03*
G01X20005040Y6461760D03*
G01X20447000Y6461760D03*
G01X17175480Y2540000D03*
G04 Via End*

G04 Track Start*
G54D11*
G01X17805400Y8752840D02*
G01X17805400Y8905240D01*
G01X17820640Y8920480D01*
G01X18692041Y8430079D02*
G01X18714720Y8407400D01*
G01X19512280Y9088120D02*
G01X19512280Y8971280D01*
G01X19497080Y8956080D01*
G01X17754640Y8956080D01*
G01X17734280Y8935720D01*
G01X17734280Y8453120D01*
G01X17757321Y8430079D01*
G01X18692041Y8430079D01*
G01X18841720Y5816600D02*
G01X18813760Y5844560D01*
G01X17701240Y5844560D01*
G01X17688560Y5857240D01*
G01X15808960Y4318000D02*
G01X15803880Y4323080D01*
G01X16901160Y4551680D02*
G01X16901160Y4328160D01*
G01X16891000Y4318000D01*
G01X15808960Y4318000D01*
G01X22235160Y7056120D02*
G01X22234690Y7055650D01*
G01X21569680Y6172200D02*
G01X21818600Y6172200D01*
G01X21554440Y6187440D02*
G01X21569680Y6172200D01*
G01X22230080Y6680200D02*
G01X22171640Y6738640D01*
G01X21818600Y6294120D02*
G01X21595080Y6294120D01*
G01X21590040Y6299160D01*
G01X21590040Y6690400D01*
G01X21602680Y6703040D01*
G01X21899880Y6390640D02*
G01X21899880Y6197600D01*
G01X21917841Y6179639D01*
G01X22217199Y6179639D01*
G01X22230080Y6192520D01*
G01X22230080Y6516713D01*
G01X17526000Y6718300D02*
G01X16941740Y6718300D01*
G01X16921480Y6698040D01*
G01X16921480Y5308600D01*
G01X21869400Y6421120D02*
G01X21899880Y6390640D01*
G01X21818600Y6421120D02*
G01X21869400Y6421120D01*
G01X22171640Y6738640D02*
G01X21567160Y6738640D01*
G01X21554440Y6725920D01*
G01X21554440Y6187440D01*
G01X16885920Y6776720D02*
G01X16858000Y6748800D01*
G01X16858000Y5092720D01*
G01X16830040Y5064760D01*
G01X16210280Y5064760D01*
G01X16191433Y5045913D01*
G01X16191433Y4968240D01*
G01X16196513Y4963160D01*
G01X17505680Y6776720D02*
G01X16885920Y6776720D01*
G01X19949160Y8308360D02*
G01X19923760Y8333760D01*
G01X21407120Y8095000D02*
G01X21389159Y8112960D01*
G01X22547560Y8095000D02*
G01X21407120Y8095000D01*
G01X19923760Y8333760D02*
G01X19923760Y8493760D01*
G01X18025250Y5974080D02*
G01X18025250Y7154050D01*
G01X18049240Y7178040D01*
G01X19019520Y7178040D01*
G01X18257520Y7091680D02*
G01X18257520Y5974080D01*
G01X18280401Y7114561D02*
G01X18257520Y7091680D01*
G01X19024600Y7307580D02*
G01X19090661Y7307580D01*
G01X19110960Y7287281D01*
G01X19110960Y7129759D01*
G01X19095762Y7114561D01*
G01X18280401Y7114561D01*
G01X20960080Y5130800D02*
G01X20467320Y5130800D01*
G01X20187920Y8138160D02*
G01X20187920Y4979710D01*
G01X21402040Y6324600D02*
G01X21402040Y5984240D01*
G01X21420288Y5965992D01*
G01X22062440Y6802120D02*
G01X22057360Y6797040D01*
G01X21818600Y6797040D01*
G01X22153880Y6924040D02*
G01X21818600Y6924040D01*
G01X22234690Y7055650D02*
G01X21819070Y7055650D01*
G01X21818600Y7056120D01*
G01X23058643Y6527800D02*
G01X23058643Y6060963D01*
G01X23058120Y6060440D01*
G01X23058120Y5984240D01*
G01X21602680Y6703040D02*
G01X22125033Y6703040D01*
G01X22171680Y6656393D01*
G01X17820640Y8920480D02*
G01X21457920Y8920480D01*
G01X21478240Y8900160D01*
G01X21478240Y8153400D01*
G01X19867880Y8272760D02*
G01X19842480Y8298160D01*
G01X19842480Y8427720D01*
G01X19832320Y8437880D01*
G01X19563080Y8437880D01*
G01X21102320Y8249920D02*
G01X21079480Y8272760D01*
G01X19867880Y8272760D01*
G01X21389159Y8112960D02*
G01X21389159Y8288201D01*
G01X21369000Y8308360D01*
G01X19949160Y8308360D01*
G01X18501360Y6162040D02*
G01X18501360Y7025640D01*
G01X18526760Y7051040D01*
G01X19024600Y7051040D01*
G01X20718780Y5308600D02*
G01X20718780Y5194300D01*
G01X20736560Y5176520D01*
G01X22819360Y5176520D01*
G01X21737320Y9088120D02*
G01X19512280Y9088120D01*
G01X17546320Y8061960D02*
G01X17546320Y6817360D01*
G01X17505680Y6776720D01*
G01X21097240Y5328920D02*
G01X21102320Y5334000D01*
G01X21102320Y8249920D01*
G01X19324320Y5115560D02*
G01X19324320Y4861560D01*
G01X20347920Y4833600D02*
G01X20347920Y8102580D01*
G01X20378420Y8133080D01*
G01X20378420Y8138160D01*
G01X19847560Y4813280D02*
G01X20327600Y4813280D01*
G01X20347920Y4833600D01*
G01X19786600Y5110480D02*
G01X20088880Y5110480D01*
G01X19765525Y5089405D02*
G01X19786600Y5110480D01*
G01X19765525Y4796275D02*
G01X19765525Y5089405D01*
G01X19784120Y4777680D02*
G01X19765525Y4796275D01*
G01X20368200Y4777680D02*
G01X19784120Y4777680D01*
G01X20383520Y4793000D02*
G01X20368200Y4777680D01*
G01X20914380Y4922500D02*
G01X20891520Y4945360D01*
G01X20914380Y4828520D02*
G01X20914380Y4922500D01*
G01X20939740Y4803160D02*
G01X20914380Y4828520D01*
G01X22606000Y4785360D02*
G01X22588200Y4803160D01*
G01X20939740Y4803160D01*
G01X22606000Y4109720D02*
G01X22606000Y4785360D01*
G01X20891520Y4945360D02*
G01X20403800Y4945360D01*
G01X20383520Y4925080D01*
G01X20383520Y4793000D01*
G01X18841720Y5013960D02*
G01X18841720Y5816600D01*
G01X18521680Y4810760D02*
G01X18262600Y4810760D01*
G01X18252440Y4820920D01*
G01X18252440Y4886960D01*
G01X18806160Y4978400D02*
G01X18841720Y5013960D01*
G01X18252440Y4978400D02*
G01X18806160Y4978400D01*
G01X18775680Y5318760D02*
G01X18750280Y5293360D01*
G01X18775680Y5770880D02*
G01X18775680Y5318760D01*
G01X18780760Y5775960D02*
G01X18775680Y5770880D01*
G01X18750280Y5293360D02*
G01X18364200Y5293360D01*
G01X18342699Y5271859D01*
G01X18342699Y5211089D01*
G01X22235160Y7523480D02*
G01X22590760Y7523480D01*
G01X22621240Y7493000D01*
G01X22621240Y6741160D01*
G01X22171680Y6656393D02*
G01X22171680Y6656010D01*
G01X22205890Y6621800D01*
G01X19024600Y6929120D02*
G01X19024600Y6014720D01*
G01X18983960Y5974080D01*
G01X18491200Y5974080D01*
G01X22235160Y6924040D02*
G01X22235160Y6812280D01*
G01X22260560Y6786880D01*
G01X22418040Y6786880D01*
G01X22436001Y6768919D01*
G01X22436001Y6627041D01*
G01X22407880Y6598920D01*
G01X22205890Y6621800D02*
G01X22206273Y6621800D01*
G01X22230080Y6597993D01*
G01X22407880Y6598920D02*
G01X22231007Y6598920D01*
G01X22230080Y6597993D01*
G01X22951440Y7289800D02*
G01X22956520Y7284720D01*
G01X23144480Y7284720D01*
G01X22819360Y7523480D02*
G01X22819360Y7101840D01*
G01X22834600Y7086600D01*
G01X22951440Y7086600D01*
G01X22077680Y6543040D02*
G01X21818600Y6543040D01*
G01X22153880Y6365240D02*
G01X22153880Y6614160D01*
G01X22123400Y6644640D01*
G01X21818600Y6644640D01*
G01X22092920Y6334760D02*
G01X22123400Y6334760D01*
G01X22153880Y6365240D01*
G01X22090400Y6416040D02*
G01X22090400Y6530320D01*
G01X22077680Y6543040D01*
G01X22692360Y7630160D02*
G01X22692360Y6634480D01*
G01X21420288Y5965992D02*
G01X22074672Y5965992D01*
G01X22092920Y5984240D01*
G01X22092920Y6019800D01*
G01X22178812Y6019332D02*
G01X22179280Y6019800D01*
G01X21300440Y5953760D02*
G01X21323808Y5930392D01*
G01X21300440Y6324600D02*
G01X21300440Y5953760D01*
G01X21323808Y5930392D02*
G01X22155912Y5930392D01*
G01X22178812Y5953292D01*
G01X22178812Y6019332D01*
G01X20436840Y4394200D02*
G01X20462240Y4419600D01*
G01X20462240Y4881880D01*
G01X20467320Y4886960D01*
G01X19459121Y8623481D02*
G01X20203160Y8623481D01*
G01X19441160Y8605520D02*
G01X19459121Y8623481D01*
G01X19441160Y8321040D02*
G01X19441160Y8605520D01*
G01X19458759Y8303441D02*
G01X19441160Y8321040D01*
G01X19712759Y8303441D02*
G01X19458759Y8303441D01*
G01X19730720Y8285480D02*
G01X19712759Y8303441D01*
G01X19729925Y5231605D02*
G01X19745960Y5247640D01*
G01X20106640Y5247640D01*
G01X20121880Y5262880D01*
G01X19827240Y4869160D02*
G01X19827240Y4833600D01*
G01X19847560Y4813280D01*
G01X17688560Y5857240D02*
G01X17688560Y8188960D01*
G01X17729251Y8229651D01*
G01X17795189Y8229651D01*
G01X22062440Y7686040D02*
G01X21788120Y7686040D01*
G01X22103080Y7870439D02*
G01X21523960Y7870439D01*
G01X21478240Y7824719D01*
G01X22565360Y7965435D02*
G01X22565360Y8077200D01*
G01X22547560Y8095000D01*
G01X20060920Y7792720D02*
G01X20060920Y8138160D01*
G01X18105120Y5410200D02*
G01X18110200Y5405120D01*
G01X18689320Y5405120D01*
G01X17185589Y7172960D02*
G01X17185589Y6898640D01*
G01X23144480Y7284720D02*
G01X23185120Y7244080D01*
G01X23185120Y6085840D01*
G01X22951440Y7086600D02*
G01X22941280Y7076440D01*
G01X22941280Y6228080D01*
G01X18679160Y2854960D02*
G01X20528280Y2854960D01*
G01X20553680Y2829560D01*
G01X20553680Y2611541D01*
G01X17856200Y3571371D02*
G01X17403949Y3571371D01*
G01X17378680Y3596640D01*
G01X17378680Y4688840D01*
G01X17414280Y4978400D02*
G01X17414280Y3652480D01*
G01X17436989Y3629771D01*
G01X17919589Y3629771D01*
G01X18145760Y3601720D02*
G01X18168400Y3579080D01*
G01X18011120Y5107960D02*
G01X18011120Y3645374D01*
G01X18054774Y3601720D01*
G01X18145760Y3601720D01*
G01X17089120Y4104640D02*
G01X17068800Y4084320D01*
G01X16901160Y4084320D01*
G01X17089120Y4384040D02*
G01X17089120Y4104640D01*
G01X22857777Y6616383D02*
G01X22839680Y6634480D01*
G01X22692360Y6634480D01*
G01X22692360Y5872480D02*
G01X22839680Y5872480D01*
G01X22857777Y5890577D01*
G01X22857777Y6616383D01*
G01X22702520Y6314440D02*
G01X22423120Y6314440D01*
G01X22405159Y6296479D01*
G01X21073050Y5270520D02*
G01X21070530Y5273040D01*
G01X20894040Y5273040D01*
G01X20876079Y5291001D01*
G01X20876079Y7328081D01*
G01X20853400Y7350760D01*
G01X20594320Y7350760D01*
G01X22405159Y6296479D02*
G01X22405159Y5290639D01*
G01X22385040Y5270520D01*
G01X21073050Y5270520D01*
G01X18168400Y3579080D02*
G01X18168400Y3136680D01*
G01X18150840Y3119120D01*
G01X18100040Y3119120D01*
G01X17063720Y2275840D02*
G01X17038320Y2301240D01*
G01X17038320Y3495040D01*
G01X18100040Y3119120D02*
G01X18089880Y3108960D01*
G01X17139920Y3398520D02*
G01X17145000Y3403600D01*
G01X17358360Y3403600D01*
G01X17919589Y3629771D02*
G01X17947640Y3601720D01*
G01X17947640Y3335040D01*
G01X17741920Y3335040D01*
G01X17723860Y3316980D01*
G01X17723860Y3241040D01*
G01X18089880Y3108960D02*
G01X17607280Y3108960D01*
G01X17592040Y3124200D01*
G01X17592040Y3241040D01*
G01X18714720Y8407400D02*
G01X18714720Y7599680D01*
G01X18694400Y7579360D01*
G01X18648680Y7579360D01*
G01X18493638Y5148478D02*
G01X18493638Y5217160D01*
G01X18472283Y5127123D02*
G01X18493638Y5148478D01*
G01X18142083Y5127123D02*
G01X18472283Y5127123D01*
G01X18121763Y5106803D02*
G01X18142083Y5127123D01*
G01X18121763Y4733157D02*
G01X18121763Y5106803D01*
G01X18145760Y4709160D02*
G01X18121763Y4733157D01*
G01X22819360Y5176520D02*
G01X22854920Y5140960D01*
G01X22854920Y3896360D01*
G01X17216120Y4998720D02*
G01X17393960Y4998720D01*
G01X17414280Y4978400D01*
G01X17282160Y4404360D02*
G01X17109440Y4404360D01*
G01X17089120Y4384040D01*
G01X17213560Y5227320D02*
G01X17891760Y5227320D01*
G01X18011120Y5107960D01*
G01X16196513Y4963160D02*
G01X16196513Y4829607D01*
G01X16220440Y4805680D01*
G01X17124680Y4805680D01*
G01X20187920Y4979710D02*
G01X20169959Y4961750D01*
G01X20110310Y4961750D01*
G01X20086320Y4937760D01*
G01X20086320Y4871680D01*
G01X20218400Y4871680D02*
G01X20218400Y4927600D01*
G01X20236361Y4945561D01*
G01X20266841Y4945561D01*
G01X20284440Y4963160D01*
G01X20284440Y8138160D01*
G01X17378680Y4688840D02*
G01X17358360Y4709160D01*
G01X16901160Y4709160D01*
G01X19740880Y7350760D02*
G01X19695160Y7396480D01*
G01X18735040Y4686280D02*
G01X18712160Y4709160D01*
G01X18145760Y4709160D01*
G01X20317279Y3004639D02*
G01X18778401Y3004639D01*
G01X18735040Y3048000D01*
G01X18735040Y4686280D01*
G01X18613320Y3860800D02*
G01X18613320Y2920800D01*
G01X18679160Y2854960D01*
G01X20340320Y3154680D02*
G01X20340320Y3027680D01*
G01X20317279Y3004639D01*
G01X20340320Y4455160D02*
G01X19756120Y4455160D01*
G01X19729925Y4481355D01*
G01X19729925Y5231605D01*
G01X19481800Y4262120D02*
G01X19151600Y4262120D01*
G01X19121120Y4292600D01*
G01X19121120Y5303520D01*
G01X19154120Y5336520D01*
G01X19237241Y5135880D02*
G01X19237241Y4420319D01*
G01X19263360Y4394200D01*
G01X20436840Y4394200D01*
G01X19154120Y5336520D02*
G01X19342120Y5336520D01*
G01X19344640Y5334000D01*
G01X19695160Y7396480D02*
G01X17998440Y7396480D01*
G01X17871440Y7523480D01*
G01X21772880Y8509000D02*
G01X21772880Y9052560D01*
G01X21737320Y9088120D01*
G01X21772880Y8509000D02*
G01X22077680Y8509000D01*
G01X22108160Y8539480D01*
G01X22108160Y8620760D01*
G01X19745960Y7706360D02*
G01X19730720Y7721600D01*
G01X19730720Y8285480D01*
G01X20121880Y5262880D02*
G01X20121880Y7670800D01*
G01X20086320Y7706360D01*
G01X19745960Y7706360D01*
G01X21900744Y4084320D02*
G01X22580600Y4084320D01*
G01X22606000Y4109720D01*
G01X19923760Y8493760D02*
G01X19898220Y8519300D01*
G01X19542900Y8519300D01*
G01X18229399Y2687320D02*
G01X18203999Y2712720D01*
G01X18203999Y3593826D01*
G01X18160546Y3637280D01*
G01X18069560Y3637280D01*
G01X18046720Y3660120D01*
G01X18046720Y5122706D01*
G01X17975600Y5193826D01*
G01X17975600Y5481915D01*
G01X17945353Y5512161D01*
G01X17870030Y5512161D01*
G01X17851120Y5531071D01*
G01X17851120Y5696090D01*
G01X17847450Y5699760D01*
G01X20462240Y2763520D02*
G01X20462240Y2707640D01*
G01X20441920Y2687320D01*
G01X18229399Y2687320D01*
G01X22509480Y4460240D02*
G01X21793200Y4460240D01*
G01X21772880Y4439920D01*
G01X21772880Y2667000D01*
G01X21381720Y2275840D01*
G01X17063720Y2275840D01*
G01X20995640Y4866640D02*
G01X20995640Y5095240D01*
G01X20960080Y5130800D01*
G04 Track End*

M02*

