G04 Layer: DrillDrawingLayer*
G04 EasyEDA Pro v2.2.40.8, 2026-02-04 13:14:46*
G04 Gerber Generator version 0.3*
G04 Scale: 100 percent, Rotated: No, Reflected: No*
G04 Dimensions in millimeters*
G04 Leading zeros omitted, absolute positions, 4 integers and 5 decimals*
G04 Generated by one-click*
%FSLAX45Y45*%
%MOMM*%
%AMIconRect*4,1,4,0.2,-0.2,-0.2,-0.2,-0.2,0.2,0.2,0.2,0.2,-0.2,0*4,0,4,0.166667,-0.166667,0.166667,0.166667,-0.166667,0.166667,-0.166667,-0.166667,0.166667,-0.166667,0*%
%AMIconTriangle*4,1,3,-0.242567,0.171767,0.242567,0.171767,0,-0.2706,-0.242567,0.171767,0*4,0,3,-0.189767,0.1386,0,-0.1953,0.190167,0.1386,-0.189767,0.1386,0*%
%AMIconStar6*4,1,12,0.0862,0.1492,0.213233,0.123367,0.172367,0,0.213233,-0.1229,0.0862,-0.148733,0,-0.245767,-0.085767,-0.148733,-0.213267,-0.1229,-0.171933,0,-0.213267,0.1229,-0.085767,0.1492,0,0.245767,0.0862,0.1492,0*4,0,12,-0.000333,0.195333,-0.064333,0.122667,-0.169667,0.097667,-0.138333,-0.005333,-0.169667,-0.098,-0.064333,-0.122667,-0.000333,-0.195667,0.064333,-0.122667,0.169667,-0.098,0.138667,0.005,0.169667,0.098,0.064333,0.122333,-0.000333,0.195333,0*%
%AMIconStar4*4,1,8,-0.222667,0.222667,0,0.144667,0.222667,0.222667,0.144667,0,0.222667,-0.222667,0,-0.144667,-0.217433,-0.222667,-0.144667,0,-0.222667,0.222667,0*4,0,8,0.166667,-0.166667,0.108,0,0.166667,0.166667,0,0.108,-0.166667,0.166667,-0.108,0,-0.166667,-0.166667,0,-0.108,0.166667,-0.166667,0*%
%ADD10IconRect*%
%ADD11C,0.44X0.373333*%
%ADD12IconTriangle*%
%ADD13IconStar6*%
%ADD14IconStar4*%
G75*


G04 Drill Drawing Start*
G54D10*
G01X17591837Y2481555D03*
G01X18455843Y2481555D03*
G54D11*
G01X17591837Y2896540D03*
G01X18455843Y2896540D03*
G54D12*
G01X17734839Y2846603D03*
G01X18312841Y2846603D03*
G54D13*
G01X16128799Y8566125D03*
G01X16448804Y8086105D03*
G01X16738798Y8566132D03*
G54D14*
G01X15803880Y4323080D03*
G01X16026003Y5582920D03*
G01X16105327Y2346960D03*
G01X16196513Y4963160D03*
G01X16403842Y4063193D03*
G01X16479520Y4554419D03*
G01X16723784Y3906520D03*
G01X16732413Y7035800D03*
G01X16804640Y4085153D03*
G01X16901160Y4084320D03*
G01X16901160Y4551680D03*
G01X16901160Y4709160D03*
G01X16921480Y5308600D03*
G01X17038320Y3495040D03*
G01X17124680Y4805680D03*
G01X17139920Y3398520D03*
G01X17175480Y2540000D03*
G01X17185589Y6898640D03*
G01X17185589Y7172960D03*
G01X17213560Y5227320D03*
G01X17216120Y4998720D03*
G01X17246600Y6019800D03*
G01X17282160Y4404360D03*
G01X17282160Y4546600D03*
G01X17287240Y4264841D03*
G01X17317720Y4805731D03*
G01X17358360Y3403600D03*
G01X17526000Y6718300D03*
G01X17532315Y4264841D03*
G01X17546320Y8061960D03*
G01X17592040Y3241040D03*
G01X17622571Y8747760D03*
G01X17723860Y3241040D03*
G01X17795189Y8229651D03*
G01X17805400Y8752840D03*
G01X17825720Y8001000D03*
G01X17847450Y5699760D03*
G01X17856200Y3571371D03*
G01X17866360Y3256280D03*
G01X17871440Y7523480D03*
G01X17917160Y3860800D03*
G01X17947640Y3335040D03*
G01X18025250Y5974080D03*
G01X18039080Y3256280D03*
G01X18069560Y3484880D03*
G01X18100040Y3119120D03*
G01X18105120Y5410200D03*
G01X18161000Y4399631D03*
G01X18237251Y8752840D03*
G01X18252440Y4886960D03*
G01X18252440Y4978400D03*
G01X18252440Y5068722D03*
G01X18257520Y5974080D03*
G01X18313400Y3484880D03*
G01X18342699Y5211089D03*
G01X18380850Y5635965D03*
G01X18491200Y5974080D03*
G01X18493638Y5217160D03*
G01X18501360Y6162040D03*
G01X18521680Y4810760D03*
G01X18582640Y5638800D03*
G01X18613320Y3860800D03*
G01X18648680Y7579360D03*
G01X18689320Y5405120D03*
G01X18780760Y5775960D03*
G01X18811240Y4391660D03*
G01X19019520Y7178040D03*
G01X19024600Y6929120D03*
G01X19024600Y7051040D03*
G01X19024600Y7307580D03*
G01X19237241Y5135880D03*
G01X19324320Y4861560D03*
G01X19324320Y5115560D03*
G01X19344640Y5334000D03*
G01X19481800Y4262120D03*
G01X19512280Y9088120D03*
G01X19542900Y8519300D03*
G01X19563080Y8437880D03*
G01X19740880Y7350760D03*
G01X19827240Y4869160D03*
G01X20005040Y6461760D03*
G01X20060920Y7792720D03*
G01X20060920Y8138160D03*
G01X20086320Y4871680D03*
G01X20088880Y5110480D03*
G01X20187920Y8138160D03*
G01X20203160Y8623481D03*
G01X20218400Y4871680D03*
G01X20284440Y8138160D03*
G01X20340320Y3154680D03*
G01X20340320Y4455160D03*
G01X20378420Y8138160D03*
G01X20380960Y2357120D03*
G01X20447000Y6461760D03*
G01X20462240Y2763520D03*
G01X20467320Y4886960D03*
G01X20467320Y5130800D03*
G01X20553680Y2611541D03*
G01X20594320Y7350760D03*
G01X20718780Y5308600D03*
G01X20773885Y8742680D03*
G01X20823333Y4343813D03*
G01X20995640Y4866640D03*
G01X21026120Y2865120D03*
G01X21097240Y5328920D03*
G01X21300440Y6324600D03*
G01X21346160Y5369560D03*
G01X21402040Y6324600D03*
G01X21478240Y7824719D03*
G01X21478240Y8153400D03*
G01X21605240Y2306320D03*
G01X21666200Y3967480D03*
G01X21772880Y8509000D03*
G01X21788120Y7686040D03*
G01X21818600Y6172200D03*
G01X21818600Y6294120D03*
G01X21818600Y6421120D03*
G01X21818600Y6543040D03*
G01X21818600Y6644640D03*
G01X21818600Y6797040D03*
G01X21818600Y6924040D03*
G01X21818600Y7056120D03*
G01X21899880Y3967480D03*
G01X21900744Y4084320D03*
G01X21955760Y3891280D03*
G01X22016720Y5481320D03*
G01X22062440Y6802120D03*
G01X22062440Y7686040D03*
G01X22092920Y6019800D03*
G01X22092920Y6334760D03*
G01X22092920Y6416040D03*
G01X22103080Y7870439D03*
G01X22108160Y8620760D03*
G01X22153880Y6802120D03*
G01X22153880Y6924040D03*
G01X22179280Y6019800D03*
G01X22230080Y6516713D03*
G01X22230080Y6597993D03*
G01X22230080Y6680200D03*
G01X22235160Y6924040D03*
G01X22235160Y7056120D03*
G01X22235160Y7523480D03*
G01X22270720Y6019800D03*
G01X22401035Y8864600D03*
G01X22468840Y4627880D03*
G01X22509480Y4460240D03*
G01X22516021Y3891280D03*
G01X22565360Y7965435D03*
G01X22621240Y6741160D03*
G01X22692360Y5872480D03*
G01X22692360Y6634480D03*
G01X22692360Y7630160D03*
G01X22702520Y6314440D03*
G01X22727920Y4627880D03*
G01X22819360Y7523480D03*
G01X22854920Y3896360D03*
G01X22926040Y2316480D03*
G01X22941280Y6228080D03*
G01X22951440Y7086600D03*
G01X22951440Y7289800D03*
G01X23058120Y5984240D03*
G01X23058643Y6527800D03*
G01X23185120Y6085840D03*
G04 Drill Drawing End*

M02*

