G04 Layer: TopSolderMaskLayer*
G04 EasyEDA Pro v2.2.40.8, 2026-02-04 13:14:46*
G04 Gerber Generator version 0.3*
G04 Scale: 100 percent, Rotated: No, Reflected: No*
G04 Dimensions in millimeters*
G04 Leading zeros omitted, absolute positions, 4 integers and 5 decimals*
G04 Generated by one-click*
%FSLAX45Y45*%
%MOMM*%
%AMRoundRect*1,1,$1,$2,$3*1,1,$1,$4,$5*1,1,$1,0-$2,0-$3*1,1,$1,0-$4,0-$5*20,1,$1,$2,$3,$4,$5,0*20,1,$1,$4,$5,0-$2,0-$3,0*20,1,$1,0-$2,0-$3,0-$4,0-$5,0*20,1,$1,0-$4,0-$5,$2,$3,0*4,1,4,$2,$3,$4,$5,0-$2,0-$3,0-$4,0-$5,$2,$3,0*%
%ADD10RoundRect,0.09164X-0.45518X-0.40518X-0.45518X0.40518*%
%ADD11RoundRect,0.09164X-0.40518X0.45518X0.40518X0.45518*%
%ADD12RoundRect,0.08771X-0.40199X0.27695X0.40199X0.27695*%
%ADD13RoundRect,0.08136X-0.16032X0.91032X0.16032X0.91032*%
%ADD14RoundRect,0.0959X-1.00305X-0.75305X-1.00305X0.75305*%
%ADD15RoundRect,0.09164X-0.40518X0.40518X0.40518X0.40518*%
%ADD16RoundRect,0.09164X-0.50518X0.40518X0.50518X0.40518*%
%ADD17RoundRect,0.08771X-0.28977X0.27695X0.28977X0.27695*%
%ADD18RoundRect,0.0980X-0.43711X-0.40835X-0.43711X0.40835*%
%ADD19RoundRect,0.09138X-0.43711X-0.40835X-0.43711X0.40835*%
%ADD20RoundRect,0.09138X-0.40835X0.43711X0.40835X0.43711*%
%ADD21RoundRect,0.08771X-0.27695X-0.28977X-0.27695X0.28977*%
%ADD22O,1.84401X0.46601*%
%ADD23O,1.6118X0.7318*%
%ADD24O,0.7318X1.6118*%
%ADD25R,1.98X1.98*%
%ADD26R,2.67X3.02*%
%ADD27R,0.635X0.635*%
%ADD28R,1.3X1.05*%
%ADD29RoundRect,0.09402X-0.55399X-1.40399X-0.55399X1.40399*%
%ADD30RoundRect,0.09402X-1.25399X0.55399X1.25399X0.55399*%
%ADD31RoundRect,0.09791X-1.17205X1.80204X1.17205X1.80204*%
%ADD32RoundRect,0.09402X-1.40399X0.55399X1.40399X0.55399*%
%ADD33RoundRect,0.09459X-0.6037X-1.7537X-0.6037X1.7537*%
%ADD34RoundRect,0.09459X-1.7537X0.6037X1.7537X0.6037*%
%ADD35RoundRect,0.08875X-0.30643X0.58143X0.30643X0.58143*%
%ADD36RoundRect,0.08109X-0.16026X0.58526X0.16026X0.58526*%
%ADD37O,1.102X1.902*%
%ADD38O,1.102X2.202*%
%ADD39RoundRect,0.08136X-0.26032X-0.16032X-0.26032X0.16032*%
%ADD40RoundRect,0.09402X-0.55399X-1.25399X-0.55399X1.25399*%
%ADD41RoundRect,0.09791X-1.80204X-1.17205X-1.80204X1.17205*%
%ADD42RoundRect,0.09164X-0.50518X-0.40518X-0.50518X0.40518*%
%ADD43RoundRect,0.08787X-0.27307X0.54307X0.27307X0.54307*%
%ADD44RoundRect,0.08701X-0.58599X-0.25249X-0.58599X0.25249*%
%ADD45RoundRect,0.08701X-0.595X-0.25249X-0.595X0.25249*%
%ADD46O,1.967X0.732*%
%ADD47RoundRect,0.09475X-0.61863X0.68362X0.61863X0.68362*%
%ADD48RoundRect,0.08906X-0.54147X0.30647X0.54147X0.30647*%
%ADD49RoundRect,0.09336X-1.00432X-0.50432X-1.00432X0.50432*%
%ADD50O,1.902X4.10199*%
%ADD51O,4.10199X1.902*%
%ADD52RoundRect,0.09164X-0.40518X0.75518X0.40518X0.75518*%
%ADD53RoundRect,0.09551X-0.70324X0.70324X0.70324X0.70324*%
%ADD54RoundRect,0.09551X-0.70324X0.95324X0.70324X0.95324*%
%ADD55RoundRect,0.09454X-0.59878X0.86773X0.59878X0.86773*%
%ADD56RoundRect,0.09459X-0.6037X-0.7037X-0.6037X0.7037*%
%ADD57RoundRect,0.08136X-0.91032X-0.16032X-0.91032X0.16032*%
%ADD58RoundRect,0.0959X-0.75305X1.00305X0.75305X1.00305*%
%ADD59RoundRect,0.09495X-0.67833X-0.70833X-0.67833X0.70833*%
%ADD60RoundRect,0.08771X-0.27695X-0.40199X-0.27695X0.40199*%
%ADD61RoundRect,0.09258X-0.45471X-1.00471X-0.45471X1.00471*%
%ADD62RoundRect,0.09258X-1.00471X-0.45471X-1.00471X0.45471*%
%ADD63RoundRect,0.09934X-1.85133X-1.85133X-1.85133X1.85133*%
G75*


G04 Pad Start*
G54D10*
G01X18415000Y5078882D03*
G01X18415000Y4938878D03*
G54D11*
G01X17804282Y4155440D03*
G01X17664278Y4155440D03*
G54D12*
G01X17245228Y6527800D03*
G01X17136212Y6527800D03*
G01X17123308Y6019800D03*
G01X17014292Y6019800D03*
G01X21339708Y5267960D03*
G01X21230692Y5267960D03*
G54D13*
G01X19313208Y8809292D03*
G01X19363220Y8809292D03*
G01X19413207Y8809292D03*
G01X19463220Y8809292D03*
G01X19513207Y8809292D03*
G01X19563220Y8809292D03*
G01X19613207Y8809292D03*
G01X19663220Y8809292D03*
G01X19713207Y8809292D03*
G01X19763219Y8809292D03*
G01X19813207Y8809292D03*
G01X19863219Y8809292D03*
G54D14*
G01X20633195Y8564309D03*
G01X19143205Y8564309D03*
G54D13*
G01X19913206Y8809292D03*
G01X19963194Y8809292D03*
G01X20013206Y8809292D03*
G01X20063193Y8809292D03*
G01X20113206Y8809292D03*
G01X20163193Y8809292D03*
G01X20213206Y8809292D03*
G01X20263193Y8809292D03*
G01X20313206Y8809292D03*
G01X20363193Y8809292D03*
G01X20413205Y8809292D03*
G01X20463193Y8809292D03*
G54D15*
G01X18380850Y6094948D03*
G01X18380164Y6254867D03*
G01X18203050Y6094948D03*
G01X18202364Y6254867D03*
G01X18025250Y6094948D03*
G01X18024564Y6254867D03*
G01X17669650Y6094948D03*
G01X17668964Y6254867D03*
G01X17847450Y6094948D03*
G01X17846764Y6254867D03*
G54D16*
G01X22216679Y7870439D03*
G01X22446681Y7965435D03*
G01X22216679Y8060441D03*
G54D17*
G01X18254878Y5405120D03*
G01X18341442Y5405120D03*
G54D19*
G01X18380512Y6720152D03*
G01X18380512Y6569479D03*
G01X18202712Y6720152D03*
G01X18202712Y6569479D03*
G01X18024912Y6720152D03*
G01X18024912Y6569479D03*
G54D17*
G01X18341442Y5552440D03*
G01X18254878Y5552440D03*
G54D20*
G01X18761304Y5161280D03*
G01X18911976Y5161280D03*
G01X22307144Y4206240D03*
G01X22457816Y4206240D03*
G01X22051416Y4206240D03*
G01X21900744Y4206240D03*
G54D19*
G01X16322040Y4664304D03*
G01X16322040Y4814976D03*
G01X20843240Y5151984D03*
G01X20843240Y5302656D03*
G54D20*
G01X19716344Y9011920D03*
G01X19867016Y9011920D03*
G54D21*
G01X20340320Y5326482D03*
G01X20340320Y5239918D03*
G01X20467320Y5326482D03*
G01X20467320Y5239918D03*
G01X20594320Y5326482D03*
G01X20594320Y5239918D03*
G54D17*
G01X18493638Y5405120D03*
G01X18580202Y5405120D03*
G01X18580202Y5552440D03*
G01X18493638Y5552440D03*
G54D19*
G01X17669312Y6720152D03*
G01X17669312Y6569479D03*
G01X17847112Y6720152D03*
G01X17847112Y6569479D03*
G54D22*
G01X18067096Y4675734D03*
G01X18067096Y4740732D03*
G01X18067096Y4805731D03*
G01X18067096Y4870729D03*
G01X18067096Y4935753D03*
G01X18067096Y5000752D03*
G01X18067096Y5065751D03*
G01X18067096Y5130749D03*
G01X18067096Y5195748D03*
G01X18067096Y5260746D03*
G01X17492904Y4675734D03*
G01X17492904Y4740732D03*
G01X17492904Y4805731D03*
G01X17492904Y4870729D03*
G01X17492904Y4935753D03*
G01X17492904Y5000752D03*
G01X17492904Y5065751D03*
G01X17492904Y5130749D03*
G01X17492904Y5195748D03*
G01X17492904Y5260746D03*
G54D23*
G01X19176280Y7815580D03*
G01X19176280Y7688580D03*
G01X19176280Y7561580D03*
G01X19176280Y7434580D03*
G01X19176280Y7307580D03*
G01X19176280Y7180580D03*
G01X19176280Y7053580D03*
G01X19176280Y6926580D03*
G01X19176280Y6799580D03*
G01X19176280Y6672580D03*
G01X19176280Y6545580D03*
G01X19176280Y6418580D03*
G01X19176280Y6291580D03*
G01X19176280Y6164580D03*
G01X19176280Y6037580D03*
G01X19176280Y5910580D03*
G01X19176280Y5783580D03*
G01X19176280Y5656580D03*
G54D24*
G01X19321780Y5511080D03*
G01X19448780Y5511080D03*
G01X19575780Y5511080D03*
G01X19702780Y5511080D03*
G01X19829780Y5511080D03*
G01X19956780Y5511080D03*
G01X20083780Y5511080D03*
G01X20210780Y5511080D03*
G01X20337780Y5511080D03*
G01X20464780Y5511080D03*
G01X20591780Y5511080D03*
G01X20718780Y5511080D03*
G01X20845780Y5511080D03*
G01X20972780Y5511080D03*
G01X21099780Y5511080D03*
G01X21226780Y5511080D03*
G01X21353780Y5511080D03*
G01X21480780Y5511080D03*
G54D23*
G01X21626280Y5656580D03*
G01X21626280Y5783580D03*
G01X21626280Y5910580D03*
G01X21626280Y6037580D03*
G01X21626280Y6164580D03*
G01X21626280Y6291580D03*
G01X21626280Y6418580D03*
G01X21626280Y6545580D03*
G01X21626280Y6672580D03*
G01X21626280Y6799580D03*
G01X21626280Y6926580D03*
G01X21626280Y7053580D03*
G01X21626280Y7180580D03*
G01X21626280Y7307580D03*
G01X21626280Y7434580D03*
G01X21626280Y7561580D03*
G01X21626280Y7688580D03*
G01X21626280Y7815580D03*
G54D24*
G01X21480780Y7961080D03*
G01X21353780Y7961080D03*
G01X21226780Y7961080D03*
G01X21099780Y7961080D03*
G01X20972780Y7961080D03*
G01X20845780Y7961080D03*
G01X20718780Y7961080D03*
G01X20591780Y7961080D03*
G01X20464780Y7961080D03*
G01X20337780Y7961080D03*
G01X20210780Y7961080D03*
G01X20083780Y7961080D03*
G01X19956780Y7961080D03*
G01X19829780Y7961080D03*
G01X19702780Y7961080D03*
G01X19575780Y7961080D03*
G01X19448780Y7961080D03*
G01X19321780Y7961080D03*
G54D25*
G01X19537280Y7361080D03*
G54D26*
G01X21148280Y6002080D03*
G54D27*
G01X21639530Y7974330D03*
G01X21639530Y5497830D03*
G01X19163030Y7974330D03*
G01X19163030Y5497830D03*
G54D28*
G01X17014760Y6196460D03*
G01X17244760Y6196460D03*
G01X17244760Y6371460D03*
G01X17014760Y6371460D03*
G54D29*
G01X16428720Y7692847D03*
G01X16428720Y7272833D03*
G54D17*
G01X17355718Y7045960D03*
G01X17442282Y7045960D03*
G01X17604638Y7045960D03*
G01X17691202Y7045960D03*
G54D20*
G01X22447656Y7696200D03*
G01X22296984Y7696200D03*
G54D30*
G01X17523275Y7334123D03*
G01X17523275Y7564120D03*
G01X17523275Y7794117D03*
G54D31*
G01X16929283Y7564120D03*
G54D32*
G01X15685313Y2738120D03*
G01X16105327Y2738120D03*
G54D17*
G01X16512438Y3906520D03*
G01X16599002Y3906520D03*
G01X16238118Y3906520D03*
G01X16324682Y3906520D03*
G54D30*
G01X16832395Y3265043D03*
G01X16832395Y3495040D03*
G01X16832395Y3725037D03*
G54D31*
G01X16238403Y3495040D03*
G54D33*
G01X18064467Y7215853D03*
G01X18064467Y7749837D03*
G54D34*
G01X16990347Y2733027D03*
G01X16456363Y2733027D03*
G54D35*
G01X17703825Y2954045D03*
G01X17783835Y2954045D03*
G01X18343829Y2954045D03*
G01X18263845Y2954045D03*
G54D36*
G01X18198846Y2954045D03*
G01X18148833Y2954045D03*
G01X18098846Y2954045D03*
G01X18048834Y2954045D03*
G01X17998846Y2954045D03*
G01X17948834Y2954045D03*
G01X17898847Y2954045D03*
G01X17848834Y2954045D03*
G54D37*
G01X18455843Y2481555D03*
G01X17591837Y2481555D03*
G54D38*
G01X18455843Y2896540D03*
G01X17591837Y2896540D03*
G54D39*
G01X17534877Y3144520D03*
G01X17374883Y3144520D03*
G01X17374883Y3094520D03*
G01X17374883Y3194520D03*
G01X17534877Y3094520D03*
G01X17534877Y3194520D03*
G54D40*
G01X16026003Y5793925D03*
G01X16256000Y5793925D03*
G01X16485997Y5793925D03*
G54D41*
G01X16256000Y6387917D03*
G54D42*
G01X21364550Y2402840D03*
G01X21124570Y2307844D03*
G01X21124570Y2497836D03*
G54D43*
G01X16709644Y4182770D03*
G01X16804640Y4182770D03*
G01X16899636Y4182770D03*
G01X16899636Y4412590D03*
G01X16804640Y4412590D03*
G01X16709644Y4412590D03*
G54D44*
G01X16427247Y5117084D03*
G01X16427247Y5212080D03*
G01X16427247Y5307076D03*
G54D45*
G01X16196513Y5307076D03*
G01X16196513Y5117084D03*
G54D46*
G01X21802931Y5113244D03*
G01X21802931Y4986244D03*
G01X21802931Y4859244D03*
G01X21802931Y4732244D03*
G01X22339430Y5113244D03*
G01X22339430Y4986244D03*
G01X22339430Y4859244D03*
G01X22339430Y4732244D03*
G54D47*
G01X17185589Y8483600D03*
G01X17622571Y8483600D03*
G01X17800269Y8483600D03*
G01X18237251Y8483600D03*
G54D21*
G01X18196560Y3091078D03*
G01X18196560Y3177642D03*
G54D17*
G01X22456242Y7406640D03*
G01X22369678Y7406640D03*
G01X22456242Y7289800D03*
G01X22369678Y7289800D03*
G01X22456242Y7172960D03*
G01X22369678Y7172960D03*
G01X22456242Y7523480D03*
G01X22369678Y7523480D03*
G54D21*
G01X22372320Y6911238D03*
G01X22372320Y6997802D03*
G54D20*
G01X16390448Y6686187D03*
G01X16239775Y6686187D03*
G01X16239775Y6908800D03*
G01X16390448Y6908800D03*
G54D19*
G01X22692360Y8335416D03*
G01X22692360Y8184744D03*
G54D21*
G01X18161000Y4295242D03*
G01X18161000Y4208678D03*
G01X18161000Y3990238D03*
G01X18161000Y4076802D03*
G54D19*
G01X16479520Y4814976D03*
G01X16479520Y4664304D03*
G54D48*
G01X15788698Y5307263D03*
G01X15788698Y5117271D03*
G01X16035713Y5212267D03*
G54D49*
G01X18425160Y3862553D03*
G01X18425160Y4082567D03*
G54D50*
G01X16128799Y8566125D03*
G01X16738798Y8566125D03*
G54D51*
G01X16448799Y8086115D03*
G54D52*
G01X22641016Y2675021D03*
G01X22531017Y2675021D03*
G01X22421017Y2675021D03*
G01X22311017Y2675021D03*
G01X22201017Y2675021D03*
G01X22091018Y2675021D03*
G01X21981018Y2675021D03*
G01X21871018Y2675024D03*
G54D53*
G01X21956022Y3725019D03*
G01X22516021Y3725019D03*
G54D54*
G01X23106017Y2310018D03*
G01X21791021Y2410021D03*
G54D55*
G01X17493259Y3408680D03*
G01X17782261Y3408680D03*
G54D56*
G01X16271240Y4068293D03*
G01X16271240Y4415307D03*
G01X16002000Y4897907D03*
G01X16002000Y4550893D03*
G54D57*
G01X22432709Y5632768D03*
G01X22432709Y5682780D03*
G01X22432709Y5732767D03*
G01X22432709Y5782780D03*
G01X22432709Y5832767D03*
G01X22432709Y5882780D03*
G01X22432709Y5932767D03*
G01X22432709Y5982780D03*
G01X22432709Y6032767D03*
G01X22432709Y6082779D03*
G01X22432709Y6132767D03*
G01X22432709Y6182779D03*
G54D58*
G01X22677692Y6952755D03*
G01X22677692Y5462765D03*
G54D57*
G01X22432709Y6232766D03*
G01X22432709Y6282754D03*
G01X22432709Y6332766D03*
G01X22432709Y6382753D03*
G01X22432709Y6432766D03*
G01X22432709Y6482753D03*
G01X22432709Y6532766D03*
G01X22432709Y6582753D03*
G01X22432709Y6632766D03*
G01X22432709Y6682753D03*
G01X22432709Y6732765D03*
G01X22432709Y6782753D03*
G54D13*
G01X21081048Y8809292D03*
G01X21131060Y8809292D03*
G01X21181047Y8809292D03*
G01X21231060Y8809292D03*
G01X21281047Y8809292D03*
G01X21331060Y8809292D03*
G01X21381047Y8809292D03*
G01X21431060Y8809292D03*
G01X21481047Y8809292D03*
G01X21531059Y8809292D03*
G01X21581047Y8809292D03*
G01X21631059Y8809292D03*
G54D14*
G01X22401035Y8564309D03*
G01X20911045Y8564309D03*
G54D13*
G01X21681046Y8809292D03*
G01X21731034Y8809292D03*
G01X21781046Y8809292D03*
G01X21831033Y8809292D03*
G01X21881046Y8809292D03*
G01X21931033Y8809292D03*
G01X21981046Y8809292D03*
G01X22031033Y8809292D03*
G01X22081046Y8809292D03*
G01X22131033Y8809292D03*
G01X22181045Y8809292D03*
G01X22231033Y8809292D03*
G54D10*
G01X16657320Y5307482D03*
G01X16657320Y5167478D03*
G54D11*
G01X17804282Y3962400D03*
G01X17664278Y3962400D03*
G01X16592408Y6908800D03*
G01X16732413Y6908800D03*
G01X16732402Y6680200D03*
G01X16592398Y6680200D03*
G54D10*
G01X16779240Y6333642D03*
G01X16779240Y6193638D03*
G01X20929600Y2493162D03*
G01X20929600Y2353158D03*
G01X20741640Y2493162D03*
G01X20741640Y2353158D03*
G01X20553680Y2493162D03*
G01X20553680Y2353158D03*
G54D12*
G01X18159628Y3860800D03*
G01X18050612Y3860800D03*
G54D11*
G01X17804282Y3764280D03*
G01X17664278Y3764280D03*
G54D59*
G01X16007080Y4116400D03*
G01X16007080Y4316400D03*
G54D60*
G01X16504920Y4304132D03*
G01X16504920Y4413148D03*
G54D11*
G01X22125943Y4501104D03*
G01X21985938Y4501104D03*
G54D60*
G01X18506440Y7689748D03*
G01X18506440Y7580732D03*
G54D61*
G01X20844980Y2975229D03*
G01X20717980Y2975229D03*
G01X20590980Y2975229D03*
G01X20463980Y2975229D03*
G01X20336980Y2975229D03*
G01X20209980Y2975229D03*
G01X20082980Y2975229D03*
G01X19955980Y2975229D03*
G01X19828980Y2975229D03*
G01X19701980Y2975229D03*
G01X19574980Y2975229D03*
G01X19447980Y2975229D03*
G01X19320980Y2975229D03*
G01X19193980Y2975229D03*
G54D62*
G01X19093980Y3253740D03*
G01X19093980Y3380740D03*
G01X19093980Y3507740D03*
G01X19093980Y3634740D03*
G01X19093980Y3761740D03*
G01X19093980Y3888740D03*
G01X19093980Y4015740D03*
G01X19093980Y4142740D03*
G01X19093980Y4269740D03*
G01X19093980Y4396740D03*
G54D61*
G01X19193980Y4675251D03*
G01X19320980Y4675251D03*
G01X19447980Y4675251D03*
G01X19574980Y4675251D03*
G01X19701980Y4675251D03*
G01X19828980Y4675251D03*
G01X19955980Y4675251D03*
G01X20082980Y4675251D03*
G01X20209980Y4675251D03*
G01X20336980Y4675251D03*
G01X20463980Y4675251D03*
G01X20590980Y4675251D03*
G01X20717980Y4675251D03*
G01X20844980Y4675251D03*
G54D63*
G01X20094994Y3975227D03*
G04 Pad End*

M02*

