<svg xmlns="http://www.w3.org/2000/svg" xmlns:xlink="http://www.w3.org/1999/xlink" xmlns:lucid="lucid" width="765.03" height="1042"><g transform="translate(-1878.4678819444443 221)" lucid:page-tab-id="0_0"><path d="M2180-220c22.1 0 40 17.9 40 40s-17.9 40-40 40h-160c-22.1 0-40-17.9-40-40s17.9-40 40-40z" stroke="#000" stroke-width="2" fill="#e3fae3"/><use xlink:href="#a" transform="matrix(1,0,0,1,1985,-215) translate(89.951171875 43.40277777777778)"/><path d="M2095 91.88a9 9 0 0 1 10 0l110 73.34a4 4 0 0 1 0 6.66l-110 73.34a9 9 0 0 1-10 0l-110-73.34a4 4 0 0 1 0-6.66z" stroke="#000" stroke-width="2" fill="#fff3d9"/><use xlink:href="#b" transform="matrix(1,0,0,1,1985,93.54817708333351) translate(55.52691840277778 82.46527777777777)"/><use xlink:href="#c" transform="matrix(1,0,0,1,1985,93.54817708333351) translate(120.53342881944444 82.46527777777777)"/><path d="M2360 116.84a6 6 0 0 1 6-6h230a6 6 0 0 1 6 6v103.42a6 6 0 0 1-6 6h-230a6 6 0 0 1-6-6z" stroke="#000" stroke-width="2" fill="#edf5ff"/><use xlink:href="#d" transform="matrix(1,0,0,1,2372,122.83854166666688) translate(32.07942708333334 53.15277777777778)"/><use xlink:href="#e" transform="matrix(1,0,0,1,2372,122.83854166666688) translate(122.0099826388889 53.15277777777778)"/><path d="M2268.52 169.02h-50.23v-.95h50.22zm74.1 0h-34.34v-.95h34.33z" stroke="#3a414a" stroke-width=".05" fill="#3a414a"/><path d="M2218.3 169.02h-.55l.04-.47-.05-.48h.56z" fill="#3a414a"/><path stroke="#3a414a" stroke-width=".05" fill="#3a414a"/><path d="M2357.38 168.55l-14.27 4.63v-9.27z" fill="#3a414a"/><path d="M2358.92 168.55l-16.28 5.3v-10.6zm-15.33 3.98l12.24-3.98-12.25-3.98z" stroke="#3a414a" stroke-width=".05" fill="#3a414a"/><use xlink:href="#f" transform="matrix(1,0,0,1,2268.5184025383,157.79296875000017) translate(0 17.22222222222222)"/><path d="M2360 281.42a6 6 0 0 1 6-6h230a6 6 0 0 1 6 6v103.42a6 6 0 0 1-6 6h-230a6 6 0 0 1-6-6z" stroke="#000" stroke-width="2" fill="#edf5ff"/><use xlink:href="#g" transform="matrix(1,0,0,1,2372,287.4192708333334) translate(31.607421875 53.15277777777778)"/><use xlink:href="#e" transform="matrix(1,0,0,1,2372,287.4192708333334) translate(122.48198784722221 53.15277777777778)"/><path d="M2360 446a6 6 0 0 1 6-6h230a6 6 0 0 1 6 6v103.42a6 6 0 0 1-6 6h-230a6 6 0 0 1-6-6z" stroke="#000" stroke-width="2" fill="#edf5ff"/><use xlink:href="#g" transform="matrix(1,0,0,1,2372,452) translate(31.195095486111114 53.15277777777778)"/><use xlink:href="#h" transform="matrix(1,0,0,1,2372,452) translate(122.06966145833333 53.15277777777778)"/><path d="M2360 610.58a6 6 0 0 1 6-6h230a6 6 0 0 1 6 6V714a6 6 0 0 1-6 6h-230a6 6 0 0 1-6-6z" stroke="#000" stroke-width="2" fill="#edf5ff"/><use xlink:href="#i" transform="matrix(1,0,0,1,2372,616.5807291666666) translate(24.587022569444457 53.15277777777778)"/><use xlink:href="#j" transform="matrix(1,0,0,1,2372,616.5807291666666) translate(77.2345920138889 53.15277777777778)"/><path d="M2180 740c22.1 0 40 17.9 40 40s-17.9 40-40 40h-160c-22.1 0-40-17.9-40-40s17.9-40 40-40z" stroke="#000" stroke-width="2" fill="#e3fae3"/><use xlink:href="#k" transform="matrix(1,0,0,1,1985,745) translate(7.4750434027777715 43.40277777777778)"/><use xlink:href="#l" transform="matrix(1,0,0,1,1985,745) translate(77.87434895833333 43.40277777777778)"/><use xlink:href="#m" transform="matrix(1,0,0,1,1985,745) translate(145.615234375 43.40277777777778)"/><use xlink:href="#n" transform="matrix(1,0,0,1,1985,745) translate(178.31922743055554 43.40277777777778)"/><path d="M2481 721.5V774a6 6 0 0 1-6 6h-237.6" stroke="#3a414a" fill="none"/><path d="M2481.47 721.5h-.94v-.5h.94z" stroke="#3a414a" stroke-width=".05" fill="#3a414a"/><path d="M2222.62 780l14.27-4.63v9.26z" stroke="#3a414a" fill="#3a414a"/><path d="M2481 227.76v30.28" stroke="#3a414a" fill="none"/><path d="M2481.47 227.77h-.94v-.5h.94z" stroke="#3a414a" stroke-width=".05" fill="#3a414a"/><path d="M2481 272.8l-4.64-14.26h9.28z" stroke="#3a414a" fill="#3a414a"/><path d="M2481 392.34v30.28" stroke="#3a414a" fill="none"/><path d="M2481.47 392.35h-.94v-.5h.94z" stroke="#3a414a" stroke-width=".05" fill="#3a414a"/><path d="M2481 437.38l-4.64-14.26h9.28z" stroke="#3a414a" fill="#3a414a"/><path d="M2481 556.92v30.28" stroke="#3a414a" fill="none"/><path d="M2481.47 556.93h-.94v-.5h.94z" stroke="#3a414a" stroke-width=".05" fill="#3a414a"/><path d="M2481 601.96l-4.64-14.26h9.28z" stroke="#3a414a" fill="#3a414a"/><path d="M1900.47 656.27l.07.88.2.85.34.8.45.74.56.66.65.56.74.45.8.34.84.2.88.08h452.48v.94h-452.52l-1-.07-.98-.25-.94-.4-.87-.52-.78-.66-.66-.77-.53-.87-.4-.94-.23-1-.07-1v-41.73h.94zm65.35-487.25h-59.8l-.88.07-.85.2-.8.33-.75.45-.66.56-.57.66-.45.74-.33.8-.2.84-.08.9v418.48h-.94V174.53l.07-1 .24-.98.4-.94.52-.86.66-.77.77-.66.86-.52.94-.4 1-.23.98-.08h59.84z" stroke="#3a414a" stroke-width=".05" fill="#3a414a"/><path d="M2359 662.76h-.5v-.94h.5z" fill="#3a414a"/><path stroke="#3a414a" stroke-width=".05" fill="#3a414a"/><path d="M1980.6 168.55l-14.28 4.63v-9.27z" fill="#3a414a"/><path d="M1982.13 168.55l-16.28 5.3v-10.6zm-15.33 3.98l12.25-3.98-12.25-3.98z" stroke="#3a414a" stroke-width=".05" fill="#3a414a"/><use xlink:href="#o" transform="matrix(1,0,0,1,1878.4678819444443,593.0609372605225) translate(0 17.22222222222222)"/><path d="M1979-74a6 6 0 0 1 6-6h230a6 6 0 0 1 6 6V29.42a6 6 0 0 1-6 6h-230a6 6 0 0 1-6-6z" stroke="#000" stroke-width="2" fill="#edf5ff"/><use xlink:href="#p" transform="matrix(1,0,0,1,1991,-68) translate(19.085720486111114 53.15277777777778)"/><use xlink:href="#q" transform="matrix(1,0,0,1,1991,-68) translate(132.52973090277777 53.15277777777778)"/><path d="M2100-138.5v41.12" stroke="#3a414a" fill="none"/><path d="M2100.47-138.5h-.94v-.5h.94z" stroke="#3a414a" stroke-width=".05" fill="#3a414a"/><path d="M2100-82.62l-4.64-14.26h9.28z" stroke="#3a414a" fill="#3a414a"/><path d="M2100 36.92v36.06" stroke="#3a414a" fill="none"/><path d="M2100.47 36.93h-.94v-.5h.94z" stroke="#3a414a" stroke-width=".05" fill="#3a414a"/><path d="M2100 87.75l-4.64-14.27h9.28z" stroke="#3a414a" fill="#3a414a"/><path d="M2360-74a6 6 0 0 1 6-6h230a6 6 0 0 1 6 6V29.42a6 6 0 0 1-6 6h-230a6 6 0 0 1-6-6z" fill-opacity="0"/><path d="M2404.33-80h38.34m19.16 0h38.34m19.16 0h38.34m19.16 0H2596a6 6 0 0 1 6 6v17.24m0 17.23v34.48m0 17.23v17.24a6 6 0 0 1-6 6h-19.17m-19.16 0h-38.34m-19.16 0h-38.34m-19.16 0h-38.34m-19.16 0H2366a6 6 0 0 1-6-6V12.18m0-17.23v-34.48m0-17.23V-74a6 6 0 0 1 6-6h19.17" stroke="#000" stroke-width="2" fill="none"/><use xlink:href="#r" transform="matrix(1,0,0,1,2372,-68) translate(39.26258680555556 53.15277777777778)"/><path d="M2358-22.3h-19.58m-19.6 0h-39.15m-19.6 0h-19.57" stroke="#3a414a" stroke-width="2" fill="none"/><path d="M2359-21.32h-1.03v-1.95h1.03z" stroke="#3a414a" stroke-width=".05" fill="#3a414a"/><path d="M2225.24-22.3l14.26-4.63v9.27z" stroke="#3a414a" stroke-width="2" fill="#3a414a"/><path d="M2603.5-22.3h11.17m11.16 0H2637a6 6 0 0 1 6 6v10.42m0 10.4v20.82m0 10.4v20.82m0 10.4v20.82m0 10.4V119m0 10.4v20.82m0 10.4v20.82m0 10.4v20.82m0 10.4v20.82m0 10.4v20.82m0 10.4v20.82m0 10.4v10.4a6 6 0 0 1-6 6h-17.62" stroke="#3a414a" fill="none"/><path d="M2603.5-21.82h-.5v-.95h.5z" stroke="#3a414a" stroke-width=".05" fill="#3a414a"/><path d="M2604.62 333.13l14.26-4.64v9.26z" stroke="#3a414a" fill="#3a414a"/><path d="M2603.5-22.3h11.17m11.16 0H2637a6 6 0 0 1 6 6v9.97m0 9.96v19.92m0 9.96v19.94m0 9.96v19.92m0 9.96v19.92m0 9.96v19.92m0 9.96v19.93m0 9.96v19.92m0 9.96v19.93m0 9.96v19.9m0 9.97v19.92m0 9.95v19.93m0 9.96v19.92m0 9.96v19.92m0 9.96v19.92m0 9.96v19.93m0 9.97v19.92m0 9.95v9.96a6 6 0 0 1-6 6h-17.62" stroke="#3a414a" fill="none"/><path d="M2603.5-21.82h-.5v-.95h.5z" stroke="#3a414a" stroke-width=".05" fill="#3a414a"/><path d="M2604.62 497.7l14.26-4.63v9.28z" stroke="#3a414a" fill="#3a414a"/><path d="M2603.5-22.3h11.17m11.16 0H2637a6 6 0 0 1 6 6v10.2m0 10.2v20.37m0 10.2v20.37m0 10.2v20.38m0 10.2v20.37m0 10.18v20.38m0 10.2v20.37m0 10.2v20.37m0 10.2v20.38m0 10.2v20.37m0 10.2v20.37m0 10.2v20.37m0 10.18v20.38m0 10.2v20.37m0 10.2v20.38m0 10.2v20.38m0 10.2v20.37m0 10.2v20.37m0 10.2v20.37m0 10.18v20.38m0 10.2v20.38m0 10.2v20.37m0 10.2v10.2a6 6 0 0 1-6 6h-17.62" stroke="#3a414a" fill="none"/><path d="M2603.5-21.82h-.5v-.95h.5z" stroke="#3a414a" stroke-width=".05" fill="#3a414a"/><path d="M2604.62 662.3l14.26-4.64v9.27z" stroke="#3a414a" fill="#3a414a"/><defs><path d="M657 26c-323 0-524-166-541-416h195c15 169 171 246 346 246 202 0 356-106 356-265 5-203-294-238-475-293-239-73-380-191-380-389 0-252 224-419 512-419 294 0 499 171 508 396H992c-17-145-151-228-328-228-193 0-321 102-321 242 0 156 175 211 284 241l149 41c160 44 422 134 422 412 0 244-197 432-541 432" id="s"/><path d="M598-1118v154H368v674c0 100 37 144 132 144 23 0 62-6 92-12L629-6c-37 13-88 20-134 20-193 0-307-107-307-290v-688H20v-154h168v-266h180v266h230" id="t"/><path d="M471 26C259 26 90-98 90-318c0-256 228-303 435-329 202-27 287-16 287-108 0-139-79-219-234-219-161 0-248 86-283 164l-173-57c86-203 278-265 451-265 150 0 419 46 419 395V0H815v-152h-12C765-73 660 26 471 26zm31-159c199 0 310-134 310-271v-155c-30 35-226 55-295 64-131 17-246 59-246 186 0 116 97 176 231 176" id="u"/><path d="M158 0v-1118h174v172h12c41-113 157-188 290-188 26 0 70 2 91 3v181c-11-2-60-10-108-10-161 0-279 109-279 260V0H158" id="v"/><g id="a"><use transform="matrix(0.010850694444444444,0,0,0.010850694444444444,0,0)" xlink:href="#s"/><use transform="matrix(0.010850694444444444,0,0,0.010850694444444444,14.2578125,0)" xlink:href="#t"/><use transform="matrix(0.010850694444444444,0,0,0.010850694444444444,21.63628472222222,0)" xlink:href="#u"/><use transform="matrix(0.010850694444444444,0,0,0.010850694444444444,34.11458333333333,0)" xlink:href="#v"/><use transform="matrix(0.010850694444444444,0,0,0.010850694444444444,42.827690972222214,0)" xlink:href="#t"/></g><path d="M458 0L52-1490h194c108 439 233 855 324 1313 92-459 221-873 331-1313h216c110 438 234 854 330 1307 92-455 216-869 323-1307h196L1558 0h-221l-256-944c-26-95-50-200-73-331-22 122-44 223-73 331L680 0H458" id="w"/><path d="M338-670V0H158v-1490h180v566c73-149 190-208 336-208 226 0 379 139 379 422V0H872v-695c0-172-96-275-252-275-161 0-282 109-282 300" id="x"/><path d="M158 0v-1118h180V0H158zm91-1301c-68 0-125-53-125-119s57-119 125-119c69 0 126 53 126 119s-57 119-126 119" id="y"/><path d="M338-1490V0H158v-1490h180" id="z"/><path d="M628 24c-324 0-524-230-524-574 0-343 198-582 503-582 237 0 487 146 487 559v75H286c9 234 145 362 343 362 132 0 231-58 273-172l174 48C1024-91 857 24 628 24zM287-650h624c-17-190-120-322-304-322-192 0-309 151-320 322" id="A"/><g id="b"><use transform="matrix(0.010850694444444444,0,0,0.010850694444444444,0,0)" xlink:href="#w"/><use transform="matrix(0.010850694444444444,0,0,0.010850694444444444,21.89670138888889,0)" xlink:href="#x"/><use transform="matrix(0.010850694444444444,0,0,0.010850694444444444,35.036892361111114,0)" xlink:href="#y"/><use transform="matrix(0.010850694444444444,0,0,0.010850694444444444,40.41883680555556,0)" xlink:href="#z"/><use transform="matrix(0.010850694444444444,0,0,0.010850694444444444,45.80078125,0)" xlink:href="#A"/></g><path d="M98-1322v-168h1126v168H757V0H567v-1322H98" id="B"/><path d="M537 14c-226 0-379-139-379-422v-710h180v695c0 172 97 275 253 275 160 0 281-109 281-300v-670h181V0H879v-209C806-46 684 14 537 14" id="C"/><path d="M295 13c-75 0-135-60-135-135s60-135 135-135 135 60 135 135S370 13 295 13zm0-809c-75 0-135-60-135-135s60-135 135-135 135 60 135 135-60 135-135 135" id="D"/><g id="c"><use transform="matrix(0.010850694444444444,0,0,0.010850694444444444,0,0)" xlink:href="#B"/><use transform="matrix(0.010850694444444444,0,0,0.010850694444444444,13.0859375,0)" xlink:href="#v"/><use transform="matrix(0.010850694444444444,0,0,0.010850694444444444,21.451822916666664,0)" xlink:href="#C"/><use transform="matrix(0.010850694444444444,0,0,0.010850694444444444,34.592013888888886,0)" xlink:href="#A"/><use transform="matrix(0.010850694444444444,0,0,0.010850694444444444,47.54774305555556,0)" xlink:href="#D"/></g><path d="M783 20c-382 0-661-292-661-764 0-473 279-766 661-766 302 0 548 182 601 489h-190c-42-204-217-313-411-313-268 0-476 208-476 590 0 381 209 588 476 588 195 0 369-110 411-313h190c-52 303-296 489-601 489" id="E"/><path d="M158 418v-1536h174v179h20c37-59 106-193 324-193 279 0 474 222 474 576 0 356-194 580-473 580-213 0-288-135-325-197h-14v591H158zm492-555c209 0 317-186 317-421 0-232-105-413-317-413-206 0-314 166-314 413 0 249 111 421 314 421" id="F"/><g id="d"><use transform="matrix(0.010850694444444444,0,0,0.010850694444444444,0,0)" xlink:href="#E"/><use transform="matrix(0.010850694444444444,0,0,0.010850694444444444,16.23263888888889,0)" xlink:href="#u"/><use transform="matrix(0.010850694444444444,0,0,0.010850694444444444,28.7109375,0)" xlink:href="#F"/><use transform="matrix(0.010850694444444444,0,0,0.010850694444444444,42.31770833333333,0)" xlink:href="#t"/><use transform="matrix(0.010850694444444444,0,0,0.010850694444444444,49.58767361111111,0)" xlink:href="#C"/><use transform="matrix(0.010850694444444444,0,0,0.010850694444444444,62.72786458333333,0)" xlink:href="#v"/><use transform="matrix(0.010850694444444444,0,0,0.010850694444444444,70.72482638888889,0)" xlink:href="#A"/></g><path d="M158 0v-1118h175l1 205c55-151 181-225 313-225 147 0 245 90 285 228 53-141 190-228 352-228 194 0 352 125 352 384V0h-181v-749c0-161-105-225-225-225-151 0-243 103-243 244V0H807v-767c0-124-93-207-219-207-131 0-250 92-250 270V0H158" id="G"/><path d="M611 442c-248 0-391-105-460-228l146-94c47 65 117 165 314 165 178 0 307-82 307-266v-224h-17C863-141 792-18 576-18c-268 0-472-195-472-546 0-346 197-568 476-568 216 0 288 133 326 193h17v-179h175V29c0 289-215 413-487 413zm-5-620c203 0 314-146 314-390 0-237-108-403-314-403-213 0-319 180-319 403 0 230 109 390 319 390" id="H"/><g id="e"><use transform="matrix(0.010850694444444444,0,0,0.010850694444444444,0,0)" xlink:href="#y"/><use transform="matrix(0.010850694444444444,0,0,0.010850694444444444,5.381944444444445,0)" xlink:href="#G"/><use transform="matrix(0.010850694444444444,0,0,0.010850694444444444,24.84809027777778,0)" xlink:href="#u"/><use transform="matrix(0.010850694444444444,0,0,0.010850694444444444,37.326388888888886,0)" xlink:href="#H"/><use transform="matrix(0.010850694444444444,0,0,0.010850694444444444,50.95486111111111,0)" xlink:href="#A"/></g><path fill="#333" d="M75-1237v-253h1217v253H837V0H531v-1237H75" id="I"/><path fill="#333" d="M128 0v-1118h290v195h12c54-169 184-238 367-200v268c-27-8-86-15-130-15-138 0-239 95-239 234V0H128" id="J"/><path fill="#333" d="M513 14c-232 0-385-159-385-421v-711h300v659c0 139 76 222 202 222 127 0 217-86 217-234v-647h301V0H864l-4-232C797-74 683 14 513 14" id="K"/><path fill="#333" d="M633 22C291 22 81-200 81-553c0-345 210-579 537-579 292 0 525 185 525 567v84H378c7 183 109 277 260 277 105 0 184-46 216-132l272 51C1071-99 893 22 633 22zM380-669h474c-15-146-94-237-233-237-143 0-229 99-241 237" id="L"/><g id="f"><use transform="matrix(0.008680555555555556,0,0,0.008680555555555556,0,0)" xlink:href="#I"/><use transform="matrix(0.008680555555555556,0,0,0.008680555555555556,10.859375,0)" xlink:href="#J"/><use transform="matrix(0.008680555555555556,0,0,0.008680555555555556,18.098958333333336,0)" xlink:href="#K"/><use transform="matrix(0.008680555555555556,0,0,0.008680555555555556,29.16666666666667,0)" xlink:href="#L"/></g><path d="M180 0v-1490h510c348 0 508 209 508 474 0 266-160 477-507 477H370V0H180zm190-706h312c236 0 327-133 327-310 0-176-91-307-329-307H370v617" id="M"/><path d="M613 24c-304 0-509-231-509-576 0-350 205-580 509-580 305 0 511 230 511 580 0 345-206 576-511 576zm0-161c226 0 329-195 329-415 0-222-103-419-329-419-223 0-326 196-326 419 0 220 103 415 326 415" id="N"/><path d="M613 24c-304 0-509-231-509-576 0-350 205-580 509-580 216 0 392 114 453 309l-173 49c-33-115-133-197-280-197-223 0-326 196-326 419 0 220 103 415 326 415 150 0 252-85 285-206l172 49C1010-95 832 24 613 24" id="O"/><path d="M538 24C308 24 148-78 108-271l171-41c32 123 123 178 257 178 156 0 256-77 256-169 0-77-54-128-164-154l-186-44c-203-48-300-148-300-305 0-192 176-326 414-326 230 0 351 112 402 269l-163 42c-31-80-94-158-238-158-133 0-233 69-233 162 0 83 57 129 188 160l169 40c203 48 298 149 298 302 0 196-179 339-441 339" id="P"/><g id="g"><use transform="matrix(0.010850694444444444,0,0,0.010850694444444444,0,0)" xlink:href="#M"/><use transform="matrix(0.010850694444444444,0,0,0.010850694444444444,14.192708333333332,0)" xlink:href="#v"/><use transform="matrix(0.010850694444444444,0,0,0.010850694444444444,22.189670138888886,0)" xlink:href="#N"/><use transform="matrix(0.010850694444444444,0,0,0.010850694444444444,35.514322916666664,0)" xlink:href="#O"/><use transform="matrix(0.010850694444444444,0,0,0.010850694444444444,48.209635416666664,0)" xlink:href="#A"/><use transform="matrix(0.010850694444444444,0,0,0.010850694444444444,61.16536458333333,0)" xlink:href="#P"/><use transform="matrix(0.010850694444444444,0,0,0.010850694444444444,72.89496527777777,0)" xlink:href="#P"/></g><path d="M577 24c-279 0-473-224-473-580 0-354 195-576 474-576 218 0 287 134 324 193h14v-551h180V0H922v-173h-20C865-111 790 24 577 24zm27-161c203 0 314-172 314-421 0-247-108-413-314-413-212 0-317 181-317 413 0 235 108 421 317 421" id="Q"/><g id="h"><use transform="matrix(0.010850694444444444,0,0,0.010850694444444444,0,0)" xlink:href="#G"/><use transform="matrix(0.010850694444444444,0,0,0.010850694444444444,19.466145833333332,0)" xlink:href="#N"/><use transform="matrix(0.010850694444444444,0,0,0.010850694444444444,32.79079861111111,0)" xlink:href="#Q"/><use transform="matrix(0.010850694444444444,0,0,0.010850694444444444,46.39756944444444,0)" xlink:href="#A"/><use transform="matrix(0.010850694444444444,0,0,0.010850694444444444,59.35329861111111,0)" xlink:href="#z"/></g><g id="i"><use transform="matrix(0.010850694444444444,0,0,0.010850694444444444,0,0)" xlink:href="#M"/><use transform="matrix(0.010850694444444444,0,0,0.010850694444444444,14.073350694444445,0)" xlink:href="#N"/><use transform="matrix(0.010850694444444444,0,0,0.010850694444444444,27.39800347222222,0)" xlink:href="#P"/><use transform="matrix(0.010850694444444444,0,0,0.010850694444444444,39.127604166666664,0)" xlink:href="#t"/></g><path d="M338-670V0H158v-1118h173l1 207c72-158 192-221 342-221 226 0 378 139 378 422V0H872v-695c0-172-96-275-252-275-161 0-282 109-282 300" id="R"/><g id="j"><use transform="matrix(0.010850694444444444,0,0,0.010850694444444444,0,0)" xlink:href="#F"/><use transform="matrix(0.010850694444444444,0,0,0.010850694444444444,13.606770833333332,0)" xlink:href="#v"/><use transform="matrix(0.010850694444444444,0,0,0.010850694444444444,21.603732638888886,0)" xlink:href="#N"/><use transform="matrix(0.010850694444444444,0,0,0.010850694444444444,34.928385416666664,0)" xlink:href="#O"/><use transform="matrix(0.010850694444444444,0,0,0.010850694444444444,47.623697916666664,0)" xlink:href="#A"/><use transform="matrix(0.010850694444444444,0,0,0.010850694444444444,60.57942708333333,0)" xlink:href="#P"/><use transform="matrix(0.010850694444444444,0,0,0.010850694444444444,72.30902777777777,0)" xlink:href="#P"/><use transform="matrix(0.010850694444444444,0,0,0.010850694444444444,84.03862847222221,0)" xlink:href="#y"/><use transform="matrix(0.010850694444444444,0,0,0.010850694444444444,89.42057291666666,0)" xlink:href="#R"/><use transform="matrix(0.010850694444444444,0,0,0.010850694444444444,102.54991319444441,0)" xlink:href="#H"/></g><path d="M784 20c-382 0-662-292-662-764 0-473 280-766 662-766s660 293 660 766c0 472-278 764-660 764zm0-176c266 0 475-207 475-588 0-383-209-590-475-590-268 0-477 208-477 590 0 380 209 588 477 588" id="S"/><g id="k"><use transform="matrix(0.010850694444444444,0,0,0.010850694444444444,0,0)" xlink:href="#S"/><use transform="matrix(0.010850694444444444,0,0,0.010850694444444444,16.9921875,0)" xlink:href="#C"/><use transform="matrix(0.010850694444444444,0,0,0.010850694444444444,30.13237847222222,0)" xlink:href="#F"/><use transform="matrix(0.010850694444444444,0,0,0.010850694444444444,43.73914930555556,0)" xlink:href="#C"/><use transform="matrix(0.010850694444444444,0,0,0.010850694444444444,56.87934027777778,0)" xlink:href="#t"/></g><path d="M678-1118v154H420V0H240v-964H20v-154h220v-149c0-194 155-293 318-293 85 0 141 18 168 30l-50 154c-19-6-47-17-97-17-111 0-159 58-159 166v109h258" id="T"/><g id="l"><use transform="matrix(0.010850694444444444,0,0,0.010850694444444444,0,0)" xlink:href="#T"/><use transform="matrix(0.010850694444444444,0,0,0.010850694444444444,8.22482638888889,0)" xlink:href="#v"/><use transform="matrix(0.010850694444444444,0,0,0.010850694444444444,16.590711805555557,0)" xlink:href="#u"/><use transform="matrix(0.010850694444444444,0,0,0.010850694444444444,29.069010416666664,0)" xlink:href="#G"/><use transform="matrix(0.010850694444444444,0,0,0.010850694444444444,48.53515625,0)" xlink:href="#A"/></g><g id="m"><use transform="matrix(0.010850694444444444,0,0,0.010850694444444444,0,0)" xlink:href="#N"/><use transform="matrix(0.010850694444444444,0,0,0.010850694444444444,13.324652777777777,0)" xlink:href="#R"/></g><path d="M180 0v-1490h190v1322h690V0H180" id="U"/><path d="M645 0H180v-1490h484c435 0 692 280 692 742 0 466-257 748-711 748zM370-168h263c363 0 539-218 539-580 0-358-176-574-521-574H370v1154" id="V"/><g id="n"><use transform="matrix(0.010850694444444444,0,0,0.010850694444444444,0,0)" xlink:href="#U"/><use transform="matrix(0.010850694444444444,0,0,0.010850694444444444,11.93576388888889,0)" xlink:href="#E"/><use transform="matrix(0.010850694444444444,0,0,0.010850694444444444,28.168402777777775,0)" xlink:href="#V"/></g><path fill="#333" d="M135 0v-1490h305v1237h643V0H135" id="W"/><path fill="#333" d="M628 22C291 22 81-210 81-554c0-346 210-578 547-578 336 0 547 232 547 578 0 344-211 576-547 576zm0-236c160 0 242-146 242-341 0-197-82-341-242-341S387-753 387-555c0 195 81 341 241 341" id="X"/><path fill="#333" d="M128 418v-1536h295v188h14c41-89 129-202 319-202 248 0 453 193 453 575 0 372-197 576-455 576-183 0-275-108-317-198h-9v597H128zm534-640c156 0 240-139 240-336 0-196-83-334-240-334-154 0-241 131-241 334 0 202 88 336 241 336" id="Y"/><g id="o"><use transform="matrix(0.008680555555555556,0,0,0.008680555555555556,0,0)" xlink:href="#W"/><use transform="matrix(0.008680555555555556,0,0,0.008680555555555556,10.052083333333334,0)" xlink:href="#X"/><use transform="matrix(0.008680555555555556,0,0,0.008680555555555556,20.954861111111114,0)" xlink:href="#X"/><use transform="matrix(0.008680555555555556,0,0,0.008680555555555556,31.857638888888893,0)" xlink:href="#Y"/></g><path d="M180 0v-1490h510c348 0 508 194 508 460 0 198-88 351-276 417L1256 0h-220L726-579c-117 2-238 0-356 1V0H180zm190-747h312c235 0 327-108 327-283 0-177-92-293-329-293H370v576" id="Z"/><g id="p"><use transform="matrix(0.010850694444444444,0,0,0.010850694444444444,0,0)" xlink:href="#Z"/><use transform="matrix(0.010850694444444444,0,0,0.010850694444444444,13.975694444444445,0)" xlink:href="#A"/><use transform="matrix(0.010850694444444444,0,0,0.010850694444444444,26.931423611111104,0)" xlink:href="#T"/><use transform="matrix(0.010850694444444444,0,0,0.010850694444444444,34.50520833333333,0)" xlink:href="#A"/><use transform="matrix(0.010850694444444444,0,0,0.010850694444444444,47.460937499999986,0)" xlink:href="#v"/><use transform="matrix(0.010850694444444444,0,0,0.010850694444444444,55.45789930555554,0)" xlink:href="#A"/><use transform="matrix(0.010850694444444444,0,0,0.010850694444444444,68.41362847222221,0)" xlink:href="#R"/><use transform="matrix(0.010850694444444444,0,0,0.010850694444444444,81.54296874999999,0)" xlink:href="#O"/><use transform="matrix(0.010850694444444444,0,0,0.010850694444444444,94.23828124999997,0)" xlink:href="#A"/></g><g id="q"><use transform="matrix(0.010850694444444444,0,0,0.010850694444444444,0,0)" xlink:href="#O"/><use transform="matrix(0.010850694444444444,0,0,0.010850694444444444,12.6953125,0)" xlink:href="#N"/><use transform="matrix(0.010850694444444444,0,0,0.010850694444444444,26.01996527777778,0)" xlink:href="#R"/><use transform="matrix(0.010850694444444444,0,0,0.010850694444444444,39.14930555555556,0)" xlink:href="#T"/><use transform="matrix(0.010850694444444444,0,0,0.010850694444444444,47.37413194444444,0)" xlink:href="#y"/><use transform="matrix(0.010850694444444444,0,0,0.010850694444444444,52.756076388888886,0)" xlink:href="#H"/></g><g id="r"><use transform="matrix(0.010850694444444444,0,0,0.010850694444444444,0,0)" xlink:href="#O"/><use transform="matrix(0.010850694444444444,0,0,0.010850694444444444,12.6953125,0)" xlink:href="#N"/><use transform="matrix(0.010850694444444444,0,0,0.010850694444444444,26.01996527777778,0)" xlink:href="#R"/><use transform="matrix(0.010850694444444444,0,0,0.010850694444444444,39.14930555555556,0)" xlink:href="#T"/><use transform="matrix(0.010850694444444444,0,0,0.010850694444444444,47.37413194444444,0)" xlink:href="#y"/><use transform="matrix(0.010850694444444444,0,0,0.010850694444444444,52.756076388888886,0)" xlink:href="#H"/><use transform="matrix(0.010850694444444444,0,0,0.010850694444444444,66.38454861111111,0)" xlink:href="#C"/><use transform="matrix(0.010850694444444444,0,0,0.010850694444444444,79.52473958333334,0)" xlink:href="#v"/><use transform="matrix(0.010850694444444444,0,0,0.010850694444444444,87.89062500000001,0)" xlink:href="#u"/><use transform="matrix(0.010850694444444444,0,0,0.010850694444444444,100.36892361111113,0)" xlink:href="#t"/><use transform="matrix(0.010850694444444444,0,0,0.010850694444444444,107.6388888888889,0)" xlink:href="#y"/><use transform="matrix(0.010850694444444444,0,0,0.010850694444444444,113.02083333333334,0)" xlink:href="#N"/><use transform="matrix(0.010850694444444444,0,0,0.010850694444444444,126.3454861111111,0)" xlink:href="#R"/></g></defs></g></svg>